<?xml version="1.0" encoding="utf-8"?>
<!-- Generator: Adobe Illustrator 24.3.0, SVG Export Plug-In . SVG Version: 6.00 Build 0)  -->
<svg version="1.1" id="Capa_1" xmlns="http://www.w3.org/2000/svg" xmlns:xlink="http://www.w3.org/1999/xlink" x="0px" y="0px"
	 viewBox="0 0 383 400" style="enable-background:new 0 0 383 400;" xml:space="preserve">
<style type="text/css">
	.st0{clip-path:url(#SVGID_2_);}
	.st1{fill:#849BAF;}
	.st2{fill:#FFFFFF;}
	.st3{fill:#16110D;}
</style>
<g>
	<defs>
		<rect id="SVGID_1_" x="81" y="23.1" width="226" height="358"/>
	</defs>
	<clipPath id="SVGID_2_">
		<use xlink:href="#SVGID_1_"  style="overflow:visible;"/>
	</clipPath>
	<g class="st0">
		<path class="st1" d="M273.9,347.6c44.1-44.2,44.1-115.7,0-159.9s-115.7-44.2-159.8,0c-44.1,44.2-44.1,115.7,0,159.9
			C158.2,391.8,229.8,391.8,273.9,347.6z"/>
		<path class="st2" d="M257.9,305.6c-10-10-19.2-26.1-24.9-45.2c-10.6-35.9-4.9-69.4,12.8-74.7c4.9-1.5,10.3-0.7,15.9,2.3l0.2,0.1
			c2.4,2,4.4,3.9,6.2,5.7c30.3,30.4,40.2,76,25.1,116.2l-0.1,0.2l-0.1,0.2c-2.5,2.8-5.4,4.7-8.6,5.6
			C276.2,318.5,266.7,314.4,257.9,305.6z M260.6,190c-5-2.6-9.8-3.3-14.1-2.1c-16.5,4.9-21.5,37.1-11.2,71.8
			c10.3,34.7,32,59,48.5,54.2c2.7-0.8,5.2-2.4,7.4-4.8c14.7-39.4,5-83.9-24.6-113.6C264.8,193.7,262.9,191.9,260.6,190z"/>
		<path class="st2" d="M184.5,355.3c-0.5-0.5-0.9-0.9-1.4-1.4c-16.6-17.2-30.2-41.8-38.3-69.2c-8.1-27.3-10-55.2-5.4-78.5
			c4.5-22.6,14.7-37.8,28-41.8l2.4-0.7c35.9-6.9,72.6,4.4,98.4,30.1c42.8,42.8,42.8,112.4,0,155.2c-11,11.1-24,19.5-38.7,25
			l-1.2,0.5l0-0.2C215.5,377.4,199.7,370.6,184.5,355.3z M266.5,195.5c-25.2-25.2-61.2-36.3-96.2-29.5l-2.3,0.6
			c-12.4,3.7-22.1,18.3-26.4,40c-4.5,23-2.7,50.5,5.3,77.5c8,27,21.4,51.2,37.8,68.2c15.5,16.1,31.6,23.2,44,19.5l0.5-0.2
			c14.1-5.4,26.6-13.6,37.2-24.3C308.4,305.5,308.4,237.4,266.5,195.5z"/>
		<path class="st2" d="M268.1,349c42.7-42.8,42.7-112.4,0-155.2c-42.8-42.8-112.3-42.8-155.1,0c-6.8,6.8-12.5,14.2-17.1,22.1h0
			c0,0,0,0.1,0,0.1c-24.5,42-18.8,97,17.1,132.9c12.1,12.1,26.4,20.8,41.5,26.1c0.1,0,0.1,0.1,0.1,0.1l0,0
			C193.2,388.4,237.5,379.7,268.1,349z M278.9,248.2c-2.8-9.6-1-17.1,2.4-18.1c1.6-0.5,3.7,0.4,5.7,2.4c2.4,2.4,4.7,6.3,6.2,11.4
			c2.8,9.6,1,17.1-2.4,18.1C287.4,263.1,281.8,257.7,278.9,248.2z M114.7,347.4C82.4,315.2,75,267.3,92.5,227.9
			c-3.1,14.7-5.5,42.4,7.1,79.5c7.4,21.6,19.4,37.6,30.4,48.6c5.3,5.3,10.3,9.4,14.5,12.5C133.6,363.3,123.6,356.3,114.7,347.4z
			 M155.5,373c-3.2-1.7-38.7-21.6-53.9-66.3c-18.1-53.4-4.8-87-3.7-89.5c4.5-7.7,10.1-15,16.7-21.6c41.9-41.9,110-41.9,151.9,0
			c11.3,11.3,19.6,24.6,24.8,38.7c-3.2-4.8-7.1-7.3-10.6-6.3c-5.2,1.5-7,10.8-4,21c1.6,5.3,4.1,9.6,6.8,12.4c2.6,2.6,5.4,3.8,7.9,3
			c2.9-0.9,4.8-4.1,5.3-8.6c4.8,32.5-5.3,66.8-30.2,91.8C236.6,377.4,193.1,385.9,155.5,373z"/>
		<path class="st2" d="M270.3,315.4c0.5-4.3,10.8-6.7,15.7-6.4c4.8,0.2,4.6-2.1,7.1-7.2c2.5-5.1,3.6-9,1.7-14.3
			c-1.9-5.3-6.3-8-9.3-11.8c-2.9-3.8-1.7-10.9-3.8-15.6c-2.1-4.6-11.4,0-11.4-2.1c0-2.1,4.4-4,4.7-8c0.2-4-9.7-13-15.2-20.6
			c-5.5-7.6-1.5-10.7,2.3-10.7c3.8,0,5.9-2.1,3.3-8.9c-2.6-6.8-13.4-16-17-18.6c-7.1-5.1-1.2-7.6-5-10.1c-3.8-2.5-12.4-2.7-14.5-6.1
			c-0.7-1.2-0.4-3,0.1-4.8c-2.4-0.9-4.9-1.6-7.3-2.3c-1.4,2.6-1.7,6-1.5,8.8c0.2,4.8,5.7,2.7,7.9,10.2c2.2,7.5-9.8,20.3-13.8,17.6
			s-2.5-8.4,0.8-11.4c3.4-2.9,4.6-5.9,0.4-9.3c-4.2-3.4-14.3,2.1-14.9,9c-0.6,6.9-8.8,3.8-13.4-0.8c-4.6-4.6-0.8-12.8,3.1-16.1
			c6.5-5.5,12.3-2.2,16.9-4.3c2.1-1,4.5-3.3,6.5-5.7c-34.3-6.7-71.1,3.2-97.6,29.8c-9.6,9.6-17,20.5-22.2,32.1
			c2.1-0.2,4-0.7,5.1-1.8c3.3-3.2,4.2-8.8,6.1-6.1c1.9,2.7,4,2.3,11.5-4.5c7.5-6.8,9.3,0.1,16.4,5.5c7.1,5.4,7.5,5.8,7.9-0.4
			c0.4-6.2,5.2-14.6,12.7-21.4c8.3-7.7,23.2-10,24.9-7.5c1.7,2.5-2.6,3.6-10.7,6.4c-8.8,3.1-21.2,16.2-20.2,24.4
			c1.1,8.2,17.8,15.4,20.3,10.8c2.5-4.6-3.6-7.8,2.4-15.8c5.9-8.1,15.1-5.4,9-1c-6.1,4.4-6.5,15.3-4.4,20.4
			c2.1,5.1-2.3,11.2-7.1,13.3c-7.4,3.3,2.8,9.9-3.3,10.1c-6.1,0.2-24.1,14.9-26,21.9c-1.9,6.9,2.7,11.2,5.8,7.1
			c3.1-4,11.8-7.1,20.1-6.2c8.4,0.9,18.1,10,18.3,18.3c0.2,8.2-10.9,4.2-11.7,6.7c-0.8,2.5,5,4.2,5.7,6.1c0.6,1.9-1.1,5.3-2.9,8.4
			c-1.9,3.2-5,8.6-2.7,12.9c2.8,5.4,10.9,7.5,14.5,4.3c3.6-3.2,2.5-10.9,8-10.5c5.5,0.4,13.4,12.6,21.4,14.3
			c8,1.7,17.2-10.5,18.3-14.9c1.1-4.4,5.7-5.7,6.9,1.9c1.3,7.6-7.3,6-4,10.3c2.2,2.9,7.1,0.4,9.3-1.7c2.1-2.1,1.7-8.4,6.1-5.7
			c4.4,2.7,6.3,2.1,15.1-4.2C275.4,322.8,269.8,319.6,270.3,315.4z M210.4,219.5c-2.5-1.9-5.4,4.7-9.3,4.2c-3.9-0.5-7.1-5.7-3-7.8
			c4.7-2.4,8.1-2.7,12.7-3.6c4.6-0.8,8.1,4.4,5.9,8C214.4,223.9,212.9,221.4,210.4,219.5z"/>
		<path class="st3" d="M172.4,334.8c-0.7-0.7-1.4-1.6-1.9-2.5c-2.5-4.7,1.1-10.6,2.8-13.5c0.9-1.5,3.6-5.9,2.9-7.9
			c-0.2-0.6-1.4-1.3-2.4-2c-1.9-1.2-3.9-2.5-3.3-4.5c0.4-1.3,2.1-1.3,4.3-1.4c4.2-0.2,7.5-0.6,7.4-5.1c-0.2-7.7-9.3-16.8-17.8-17.7
			c-8.5-0.9-16.9,2.4-19.7,6c-1.3,1.7-3,2.2-4.5,1.5c-2.1-1-3.6-4.5-2.3-9.1c1.9-6.9,20-22.1,26.6-22.3c1.1,0,1.4-0.3,1.4-0.4
			c0.2-0.3-0.2-1.3-0.6-2.1c-1-2.2-2.4-5.5,2.2-7.5c4.7-2,8.6-8,6.7-12.5c-2.3-5.4-1.6-16.6,4.6-21.1c1.5-1.1,1.9-1.9,1.8-2.4
			c-0.1-0.5-0.7-0.7-1-0.7c-1.8-0.4-5.7,0.6-8.9,4.9c-3.4,4.6-2.7,7.5-2.1,10.1c0.4,1.9,0.9,3.7-0.2,5.7c-0.8,1.5-3,2.1-6,1.5
			c-5.9-1.1-14.6-6.4-15.4-12.5c-1.1-8.8,12-22,20.6-25c0.9-0.3,1.8-0.6,2.6-0.9c4.4-1.5,7.6-2.6,8-3.7c0.1-0.2,0.1-0.4-0.2-0.9
			c-0.1-0.1-0.4-0.5-1.7-0.6c-4.9-0.6-15.8,2.3-22.3,8.3c-7.2,6.6-12.1,14.8-12.5,21c-0.2,3-0.4,4.5-1.4,5c-1.2,0.6-2.8-0.7-7.1-3.9
			l-0.3-0.2c-1.9-1.4-3.4-2.9-4.7-4.3c-3.8-3.8-5.9-5.9-11-1.2c-5.2,4.7-7.8,6.4-9.8,6.2c-1.2-0.1-2-1-2.5-1.8
			c-0.3-0.4-0.4-0.5-0.5-0.5c-0.3,0-1.1,1.3-1.6,2.2c-0.8,1.4-1.7,3.1-3.1,4.4c-1.1,1.1-3.1,1.8-5.5,2l-1,0.1l0.4-0.9
			c5.4-12.1,12.9-22.9,22.3-32.3c25.8-25.7,62.5-36.9,98.2-29.9l1,0.2l-0.6,0.7c-2.6,3-4.9,5-6.7,5.8c-1.9,0.9-3.9,0.9-6,0.9
			c-3.4,0-6.9,0-10.7,3.3c-2.4,2-4.8,6-5,9.9c-0.1,2.2,0.6,4,1.9,5.4c3,3,7.7,5.5,10.4,4.5c1.2-0.4,1.9-1.5,2-3.3
			c0.4-4.5,4.3-8.1,8-9.6c3.1-1.3,6-1.2,7.8,0.2c1.9,1.5,2.8,3,2.9,4.6c0,1.8-1,3.5-3.3,5.5c-1.9,1.7-3.2,4.4-3,6.7
			c0.1,1.6,0.8,2.9,2.1,3.8c0.9,0.7,2.7,0.1,4.8-1.4c4.4-3.2,9.6-10.7,8.1-15.6c-1.1-3.8-3.1-4.9-4.8-5.9c-1.5-0.9-3-1.8-3.1-4.4
			c-0.2-3.8,0.4-6.9,1.6-9.1l0.2-0.4l0.4,0.1c2.7,0.7,5.1,1.5,7.4,2.3l0.5,0.2l-0.1,0.5c-0.4,1.7-0.8,3.4-0.1,4.4
			c1.1,1.7,4.4,2.6,7.6,3.5c2.5,0.6,5,1.3,6.7,2.5c1.9,1.3,1.7,2.6,1.6,3.9c-0.2,1.6-0.4,3.5,3.4,6.2c2.8,2,14.4,11.6,17.2,18.9
			c1.4,3.7,1.6,6.3,0.5,7.9c-0.8,1.2-2.2,1.8-4.3,1.8c-1.5,0-3.3,0.5-4,2.1c-0.6,1.3-0.8,3.6,2.2,7.8c1.9,2.7,4.4,5.5,6.9,8.3
			c4.6,5.3,8.6,9.8,8.4,12.6c-0.2,2.5-1.8,4.2-3.1,5.6c-0.9,0.9-1.6,1.7-1.6,2.4c0.2,0.1,1.6-0.1,2.7-0.2c3-0.5,7.2-1.1,8.6,2.1
			c1,2.1,1.2,4.8,1.5,7.3c0.3,3.2,0.7,6.2,2.2,8.1c2.9,3.7,7.4,6.5,9.3,11.9c2,5.5,0.8,9.7-1.7,14.7c-0.5,1-0.9,1.9-1.2,2.7
			c-1.4,3.2-2.2,5-6.4,4.8c-4.8-0.2-14.7,2.2-15.1,5.9c-0.1,1.1,0.2,2.2,0.6,3.4c1,2.9,2,6.1-4.5,10.8c-8.6,6.2-10.9,7.2-15.8,4.2
			c-0.8-0.5-1.5-0.7-2-0.5c-0.8,0.3-1.3,1.6-1.8,2.9c-0.4,1.2-0.9,2.4-1.7,3.2c-1.7,1.7-4.7,3.3-7.1,3.1c-1.2-0.1-2.2-0.6-2.9-1.5
			c-0.7-0.9-1-1.6-0.9-2.4c0.2-1,1-1.6,1.9-2.2c1.6-1.1,3.4-2.4,2.8-6c-0.5-3.1-1.6-4.9-3-5c-1.2,0-2.3,1.3-2.8,3.1
			c-1.1,4.5-10.4,17.1-18.9,15.4c-4.3-0.9-8.7-4.8-12.5-8.3c-3.3-3-6.5-5.9-8.9-6c-2.7-0.2-3.5,1.7-4.6,5c-0.7,2-1.4,4.1-2.9,5.4
			c-1.6,1.4-4.1,1.9-6.9,1.4C176.5,337.8,174.1,336.5,172.4,334.8z M176.6,309.6c0.3,0.3,0.6,0.7,0.7,1c0.6,1.7-0.3,4.5-3,8.9
			c-1.6,2.7-4.9,8.2-2.7,12.3c1.4,2.7,4.4,4.7,7.7,5.3c2.4,0.4,4.6,0,5.9-1.2c1.3-1.2,2-3.1,2.6-4.9c1-2.9,2.1-6,5.8-5.7
			c2.8,0.2,5.9,3,9.6,6.3c3.7,3.3,7.9,7.1,11.9,8c7.7,1.6,16.7-10.4,17.6-14.5c0.6-2.4,2.2-4,3.9-4c1,0,3.2,0.7,4.1,5.9
			c0.7,4.4-1.7,6-3.3,7.1c-0.7,0.5-1.4,0.9-1.5,1.4c-0.1,0.4,0.2,0.9,0.6,1.5c0.5,0.6,1.2,1,2.1,1.1c2,0.1,4.8-1.3,6.3-2.8
			c0.6-0.6,1-1.7,1.4-2.8c0.6-1.5,1.1-3.1,2.4-3.6c0.8-0.3,1.8-0.1,2.9,0.6c4.1,2.5,5.7,2.1,14.5-4.2c5.9-4.2,5-6.8,4.1-9.5
			c-0.4-1.2-0.8-2.5-0.7-3.9c0.6-4.9,11.8-7.1,16.3-6.9c3.5,0.2,4-1,5.4-4.1c0.3-0.8,0.7-1.7,1.3-2.7c2.4-4.9,3.5-8.7,1.7-13.8
			c-1.8-5.1-6.2-7.8-9.2-11.6c-1.7-2.2-2.1-5.5-2.4-8.7c-0.3-2.4-0.5-5-1.4-6.9c-1.1-2.4-4.6-1.9-7.4-1.5c-1.8,0.3-3,0.5-3.6-0.1
			c-0.2-0.2-0.4-0.5-0.4-0.8c0-1.1,0.9-2.1,1.9-3.2c1.2-1.3,2.6-2.8,2.8-4.9c0.1-2.4-4.1-7.2-8.1-11.8c-2.4-2.8-5-5.7-6.9-8.4
			c-3.3-4.6-3.1-7.4-2.3-9c0.8-1.6,2.8-2.7,5-2.7c1.7,0,2.8-0.4,3.3-1.3c0.9-1.3,0.7-3.6-0.6-6.9c-2.4-6.4-12.5-15.3-16.8-18.3
			c-4.3-3.2-4.1-5.5-3.9-7.3c0.1-1.2,0.2-2-1.1-2.9c-1.5-1-4-1.7-6.4-2.3c-3.6-0.9-6.9-1.8-8.3-4c-0.8-1.3-0.5-3.1-0.1-4.7
			c-2-0.7-4.1-1.3-6.4-2c-1,2-1.4,4.8-1.3,8.1c0.1,2,1.1,2.6,2.6,3.5c1.8,1.1,4,2.4,5.3,6.6c1.7,5.6-4,13.5-8.5,16.8
			c-2.5,1.9-4.7,2.3-6.1,1.4c-1.6-1.1-2.5-2.7-2.6-4.7c-0.2-2.6,1.2-5.6,3.4-7.6c2-1.8,2.9-3.2,2.9-4.6c0-1.2-0.8-2.5-2.4-3.8
			c-1.5-1.2-4-1.2-6.7,0c-3.3,1.4-7,4.7-7.3,8.7c-0.2,2.8-1.7,3.9-2.8,4.3c-3.3,1.2-8.4-1.6-11.6-4.8c-1.6-1.6-2.4-3.7-2.3-6.2
			c0.2-4.2,2.8-8.6,5.4-10.7c4.2-3.5,8-3.6,11.5-3.6c2,0,3.9,0,5.5-0.8c1.5-0.7,3.5-2.3,5.7-4.8c-35.1-6.5-70.9,4.6-96.1,29.8
			c-9,9.1-16.3,19.5-21.6,31.1c1.7-0.2,3-0.8,3.8-1.5c1.3-1.2,2.2-2.9,2.9-4.2c0.9-1.6,1.5-2.8,2.5-2.8c0.8,0,1.3,0.7,1.5,1
			c0.6,0.9,1.1,1.2,1.7,1.3c1.5,0.2,4.1-1.5,8.9-5.9c5.9-5.4,8.9-2.5,12.6,1.3c1.3,1.3,2.8,2.8,4.6,4.2l0.3,0.2
			c3.1,2.4,5.3,4.1,6,3.8c0.5-0.2,0.6-2.5,0.8-4c0.4-6.5,5.5-15,12.8-21.8c6.8-6.2,18.1-9.2,23.2-8.6c1.3,0.2,2.1,0.5,2.5,1.1
			c0.4,0.7,0.6,1.3,0.4,1.9c-0.6,1.7-3.4,2.7-8.7,4.5c-0.8,0.3-1.7,0.6-2.6,0.9c-8.8,3.1-20.8,16.2-19.8,23.8
			c0.7,5.5,9,10.5,14.5,11.6c2.5,0.5,4.2,0.1,4.8-1c0.9-1.7,0.6-3.1,0.2-4.9c-0.6-2.7-1.4-6,2.3-11c3.1-4.2,7.4-5.9,10.1-5.3
			c1,0.2,1.7,0.8,1.9,1.6c0.2,0.8-0.1,2-2.2,3.5c-5.7,4.2-6.3,14.6-4.2,19.7c2.2,5.2-2.1,11.7-7.3,14c-3.5,1.5-2.6,3.8-1.6,6
			c0.6,1.3,1,2.4,0.5,3.2c-0.4,0.6-1.1,0.9-2.4,0.9c-5.6,0.2-23.6,14.5-25.5,21.5c-1.1,3.9,0.1,6.9,1.7,7.7c1,0.5,2.2,0.1,3.1-1.1
			c3.5-4.5,12.5-7.3,20.7-6.4c9,1,18.6,10.6,18.8,18.8c0.1,5.9-5.1,6.1-8.5,6.2c-1.5,0.1-3.1,0.1-3.3,0.6c-0.4,1.1,1.3,2.2,2.8,3.1
			C175.2,308.5,176,309,176.6,309.6z M197.2,219.2c-0.9-0.9-1.5-1.9-1.6-3c-0.3-1.7,0.5-3.1,2.2-3.9c4.1-2.1,7.3-2.6,11-3.3
			c0.6-0.1,1.2-0.2,1.9-0.3c2.4-0.4,4.7,0.6,6.2,2.7c1.3,2,1.5,4.3,0.4,6.1c-0.8,1.2-1.5,1.9-2.4,2c-1.2,0.2-2.2-0.7-3.4-1.7
			c-0.4-0.3-0.8-0.7-1.3-1.1c-0.9-0.6-1.9,0.2-3.5,1.6c-1.6,1.4-3.4,3-5.6,2.7C199.6,220.9,198.2,220.2,197.2,219.2z M215.2,211.2
			c-1-1-2.5-1.8-4.4-1.4c-0.6,0.1-1.3,0.2-1.9,0.3c-3.7,0.7-6.7,1.2-10.6,3.2c-1.2,0.6-1.8,1.5-1.5,2.7c0.3,1.9,2.3,3.7,4.4,4
			c1.7,0.2,3.2-1.1,4.7-2.4c1.6-1.4,3.2-2.9,4.9-1.7c0.5,0.4,0.9,0.7,1.4,1.1c1,0.8,1.8,1.5,2.5,1.4c0.5-0.1,1-0.6,1.6-1.5
			c0.9-1.4,0.8-3.3-0.3-4.9C215.6,211.7,215.4,211.4,215.2,211.2z"/>
		<path class="st2" d="M105.7,228.2c-3.7,1.7-8.9,6.3-7.8,12c1.1,5.7,11.1-9,15.8-6.1c4.6,2.9,5.5-3.9,2.5-6.3
			C113.4,225.5,108.5,226.9,105.7,228.2z"/>
		<path class="st3" d="M98,238.4c-0.3-0.3-0.5-0.7-0.6-1.3c-1.1-6,4.3-10.8,8.1-12.6l0.2,0.5l-0.2-0.5c1.7-0.8,7.6-3.1,11-0.3
			c2.1,1.7,2.4,5.3,1.2,7c-0.5,0.6-1.8,1.9-4.4,0.2c-2-1.3-5.7,1.7-8.6,4.1c-2.7,2.2-4.8,3.9-6.3,3.3
			C98.3,238.7,98.1,238.5,98,238.4z M116.1,225.2c-0.1-0.1-0.2-0.2-0.2-0.2c-2.3-1.9-6.6-1-9.9,0.5c-3.4,1.6-8.5,6-7.5,11.4
			c0.1,0.3,0.2,0.7,0.4,0.8c0.8,0.3,3.1-1.5,5.1-3.1c3.4-2.7,7.3-5.9,9.9-4.2c0.9,0.6,2.1,1.1,2.9,0.1
			C117.7,229.2,117.5,226.6,116.1,225.2z"/>
		<path class="st2" d="M156.2,363.4c-9.8-2.7-14.4-8.9-20.4-12.4c-4.2-2.5-9.7-0.3-16.6,1.5c16.7,15.5,37.1,24.8,58.2,27.8
			c0.6-0.8,1.1-1.6,1.5-2.5C183.7,366.5,166,366.1,156.2,363.4z"/>
		<path class="st3" d="M118,348.9l1-0.2c1.1-0.3,2.1-0.6,3.1-0.8c5.5-1.5,10.2-2.8,13.9-0.6c2,1.2,3.8,2.6,5.7,4.2
			c3.9,3.2,8,6.4,14.5,8.2c2,0.5,4.2,1,6.6,1.5c7.1,1.4,14.4,2.8,16.6,7.1c1,1.8,0.9,4-0.2,6.5c-0.4,0.9-0.9,1.8-1.5,2.7l-0.2,0.3
			l-0.3-0.1c-22-3.1-42.2-12.8-58.5-27.9L118,348.9z M177.6,367.4c-2.8-2.8-9.2-4.1-14.9-5.2c-2.4-0.5-4.7-0.9-6.7-1.5
			c-6.7-1.9-11.1-5.3-14.9-8.4c-1.9-1.5-3.7-2.9-5.6-4.1c-3.3-2-7.6-0.8-13.1,0.7c-0.7,0.2-1.4,0.4-2.1,0.6
			c15.9,14.5,35.6,23.8,56.8,26.9c0.5-0.7,0.9-1.4,1.2-2.2c1-2.2,1-4,0.2-5.5C178.3,368.2,178,367.8,177.6,367.4z"/>
		<path class="st2" d="M150.3,321.2c-4.4-9.4-14,9.6-10.2,18.4c3.3,7.7,10.8,13.2,12.7,10.8c1.9-2.3-3.2-4-4.2-12.5
			C147.6,329.4,152.4,325.7,150.3,321.2z"/>
		<path class="st3" d="M144.9,344.5c-2.1-2.1-4-4.8-5.3-7.9c-2.8-6.7,1.6-19.3,6.4-21.4c1.1-0.5,3.2-0.8,4.8,2.6
			c1.1,2.4,0.4,4.6-0.4,7.1c-0.8,2.6-1.8,5.5-1.3,9.8c0.5,4.5,2.2,7,3.4,8.8c1,1.6,1.9,2.8,0.7,4.2c-0.3,0.4-1,0.9-2.2,0.7
			C149.3,348.1,147,346.7,144.9,344.5z M148.7,316.7c-1-1-1.9-0.6-2.3-0.4c-3.9,1.7-8.6,13.5-5.9,20c2.7,6.3,8,10.6,10.6,11
			c0.6,0.1,1,0,1.2-0.3c0.6-0.7,0.3-1.2-0.8-2.8c-1.2-1.8-3-4.5-3.6-9.3c-0.5-4.5,0.5-7.7,1.3-10.3c0.8-2.4,1.4-4.3,0.5-6.3
			C149.4,317.5,149.1,317,148.7,316.7z"/>
		<path class="st2" d="M181.9,357.9c-0.4-7.6,12.4-6.6,15.7-2.6c3.3,4-0.6,7.2-6.4,8.5C185.5,365.1,182.1,362.2,181.9,357.9z"/>
		<path class="st3" d="M183.3,359.5c-1.2-1.2-1.9-2.9-2-4.8c-0.2-2.6,1.2-4.6,3.7-5.6c4.1-1.6,10.6-0.3,13,2.6
			c1.5,1.9,1.5,3.4,1.1,4.4c-0.8,2.2-3.6,4-7.8,5c-3,0.7-5.5,0.3-7.4-1.1C183.7,359.9,183.5,359.7,183.3,359.5z M196.8,352.1
			c-2.3-2.3-7.9-3.3-11.4-2c-2.1,0.8-3.1,2.3-3,4.5c0.1,1.9,0.9,3.5,2.2,4.5c1.6,1.2,3.8,1.5,6.4,0.9c3.7-0.8,6.3-2.4,7-4.2
			c0.4-1,0.1-2.2-0.9-3.3C197,352.3,197,352.2,196.8,352.1z"/>
		<path class="st2" d="M239,347.4c1.6-2.6,6.7-1.3,8.4,0.3c2.3,2.2,5.8-3,7.2-1.2c1.4,1.8-5,10.1-10.9,8.8
			C238.9,354.3,236.5,351.3,239,347.4z"/>
		<path class="st3" d="M238.8,350.4c-0.5-0.5-0.8-1-1.1-1.6c-0.6-1.5-0.4-3.2,0.7-4.9c0.6-0.9,1.6-1.5,3-1.7
			c2.4-0.3,5.1,0.7,6.3,1.9c0.8,0.8,1.9,0.2,3.5-0.7c1.3-0.8,2.8-1.6,3.7-0.5c0.6,0.7,0.4,2.1-0.6,3.8c-1.8,2.9-6.3,7-10.8,6
			C241.5,352.2,239.9,351.4,238.8,350.4z M239.4,344.5c-0.9,1.4-1.1,2.7-0.7,3.8c0.6,1.5,2.4,2.6,5,3.2c3.8,0.8,7.9-2.7,9.6-5.5
			c0.9-1.4,0.9-2.2,0.7-2.4c-0.3-0.4-1.1,0-2.2,0.7c-1.5,0.9-3.4,2-4.9,0.6c-1-0.9-3.4-1.8-5.4-1.6
			C240.6,343.5,239.9,343.9,239.4,344.5z"/>
		<path class="st3" d="M260.1,303.4c-10-10-19.2-26.1-24.9-45.2c-10.6-35.9-4.9-69.4,12.8-74.7c4.9-1.5,10.3-0.7,15.9,2.3l0.2,0.1
			c2.4,2,4.4,3.9,6.2,5.7c30.3,30.4,40.2,76,25.1,116.2l-0.1,0.2l-0.1,0.2c-2.5,2.8-5.4,4.7-8.6,5.6
			C278.3,316.4,268.9,312.2,260.1,303.4z M262.7,187.8c-5-2.6-9.8-3.3-14.1-2.1c-16.5,4.9-21.5,37.1-11.2,71.8
			c10.3,34.7,32,59,48.5,54.2c2.7-0.8,5.2-2.4,7.4-4.8c14.7-39.4,5-83.9-24.6-113.6C267,191.6,265,189.8,262.7,187.8z"/>
		<path class="st3" d="M186.6,353.1c-0.5-0.5-0.9-0.9-1.4-1.4c-16.6-17.2-30.2-41.8-38.3-69.2c-8.1-27.3-10-55.2-5.4-78.5
			c4.5-22.6,14.7-37.8,28-41.8l2.4-0.7c35.9-6.9,72.6,4.4,98.4,30.1c42.8,42.8,42.8,112.4,0,155.2c-11,11.1-24,19.5-38.7,25
			l-1.2,0.5l0-0.2C217.7,375.3,201.9,368.4,186.6,353.1z M268.7,193.3c-25.2-25.2-61.2-36.3-96.2-29.5l-2.3,0.6
			c-12.4,3.7-22.1,18.3-26.4,40c-4.5,23-2.7,50.5,5.3,77.5c8,27,21.4,51.2,37.8,68.2c15.5,16.1,31.6,23.2,44,19.5l0.5-0.2
			c14.1-5.4,26.6-13.6,37.2-24.3C310.5,303.4,310.5,235.2,268.7,193.3z"/>
		<path class="st3" d="M270.3,346.9c42.7-42.8,42.7-112.4,0-155.2c-42.8-42.8-112.3-42.8-155.1,0c-6.8,6.8-12.5,14.2-17.1,22.1h0
			c0,0,0,0.1,0,0.1c-24.5,42-18.8,97,17.1,132.9c12.1,12.1,26.4,20.8,41.5,26.1c0.1,0,0.1,0.1,0.1,0.1l0,0
			C195.3,386.2,239.7,377.5,270.3,346.9z M281.1,246c-2.8-9.6-1-17.1,2.4-18.1c1.6-0.5,3.7,0.4,5.7,2.4c2.4,2.4,4.7,6.3,6.2,11.4
			c2.8,9.6,1,17.1-2.4,18.1C289.5,260.9,283.9,255.6,281.1,246z M116.8,345.3C84.6,313,77.2,265.2,94.6,225.7
			c-3.1,14.7-5.5,42.4,7.1,79.5c7.4,21.6,19.4,37.6,30.4,48.5c5.3,5.3,10.3,9.4,14.5,12.5C135.8,361.2,125.7,354.2,116.8,345.3z
			 M157.7,370.8c-3.2-1.7-38.7-21.6-53.9-66.3c-18.1-53.4-4.8-87-3.7-89.5c4.5-7.7,10.1-15,16.7-21.6c41.9-41.9,110-41.9,151.9,0
			c11.3,11.3,19.6,24.6,24.8,38.7c-3.2-4.8-7.1-7.3-10.6-6.3c-5.2,1.6-7,10.8-4,21c1.6,5.3,4.1,9.6,6.8,12.4c2.6,2.6,5.4,3.8,7.9,3
			c2.9-0.9,4.8-4.1,5.3-8.6c4.8,32.5-5.3,66.8-30.2,91.8C238.7,375.3,195.3,383.8,157.7,370.8z"/>
		<path d="M193.7,191.8c5.2,0,9.4-2.4,9.4-5.5s-4.2-5.5-9.4-5.5c-5.2,0-9.4,2.4-9.4,5.5S188.5,191.8,193.7,191.8z"/>
		<path d="M214.9,172.6c-11.9-6.9-30.5-6.9-42.4,0c-6.1,3.5-9.5,8.4-9.5,13.7c0,5.3,3.4,10.2,9.5,13.7c5.9,3.4,13.6,5.1,21.2,5.1
			s15.3-1.7,21.2-5.1c6.1-3.5,9.5-8.4,9.5-13.7S221,176.1,214.9,172.6z M212.4,195.6c-10.3,5.9-27,5.9-37.4,0c-4.5-2.6-7-5.9-7-9.3
			s2.5-6.7,7-9.3c5.1-3,11.9-4.5,18.7-4.5c6.8,0,13.5,1.5,18.7,4.5c4.5,2.6,7,5.9,7,9.3S216.9,193,212.4,195.6z"/>
		<path class="st1" d="M193.7,186.7c5.2,0,9.4-2.4,9.4-5.5c0-3-4.2-5.5-9.4-5.5c-5.2,0-9.4,2.4-9.4,5.5
			C184.2,184.2,188.5,186.7,193.7,186.7z"/>
		<path class="st1" d="M214.9,167.5c-11.9-6.9-30.5-6.9-42.4,0c-6.1,3.5-9.5,8.4-9.5,13.7c0,5.3,3.4,10.2,9.5,13.7
			c5.9,3.4,13.6,5.1,21.2,5.1s15.3-1.7,21.2-5.1c6.1-3.5,9.5-8.4,9.5-13.7C224.4,176,221,171.1,214.9,167.5z M212.4,190.6
			c-10.3,5.9-27,5.9-37.4,0c-4.5-2.6-7-5.9-7-9.3s2.5-6.7,7-9.3c5.1-3,11.9-4.5,18.7-4.5c6.8,0,13.5,1.5,18.7,4.5
			c4.5,2.6,7,5.9,7,9.3S216.9,188,212.4,190.6z"/>
		<path class="st1" d="M189.7,27.3c-19.9,9.2-37.8,37-39.5,62.7c-0.7,10.3,1.4,18.6,5.4,24.3l28.7,54.4l13.8,6.7
			c1.2-2.8,21.3-98.4,22.2-101.3c2.2-6.7,16.8-10.9,16.9-17.5C237.6,32.7,209.1,18.3,189.7,27.3z M187.2,88.6
			c-7.8,3.9-13.9-0.9-13.4-10.7c0.5-9.6,7.1-20.4,14.8-24c7.6-3.6,13.4,1,13.1,10.4C201.4,73.8,194.9,84.7,187.2,88.6z"/>
		<path class="st2" d="M192.2,32.2c-19.9,9.2-37.8,37-39.5,62.7c-0.3,4.9,0,9.3,0.8,13.2c22.7,13.7,39.7,12.9,57.5,25
			c5.5-25.7,11.2-52.6,11.7-54.1c2.2-6.7,13.2-11.8,13.3-18.3C236.4,36.8,211.6,23.2,192.2,32.2z M189.7,93.5
			c-7.8,3.9-13.9-0.9-13.4-10.7c0.5-9.6,7.1-20.4,14.8-24c7.6-3.6,13.4,1,13.1,10.4C203.9,78.7,197.4,89.6,189.7,93.5z"/>
		<path d="M198.8,177.4l-15.6-7.6l-0.2-0.4l-28.7-54.4c-4.3-6-6.2-14.7-5.6-25.1c1.7-25.8,19.8-54.5,40.3-64
			c10.3-4.8,23.9-3.4,34.4,3.5c9.8,6.4,15.4,16.3,15.2,27.2c-0.1,4.2-4.6,7.3-9,10.3c-3.5,2.4-7.2,4.9-8,7.6
			c-0.4,1.1-4.1,18.6-8.1,37.1c-7.9,36.6-13.5,62.7-14.2,64.4L198.8,177.4z M185.4,167.5l11.7,5.7c1.9-7.4,8.6-38.8,13.6-62.2
			c4.8-22.4,7.8-36.2,8.1-37.4c1.2-3.7,5.3-6.5,9.2-9.2c3.7-2.6,7.6-5.2,7.7-7.9c0.2-9.8-4.9-18.8-13.8-24.6
			c-9.7-6.4-22.1-7.7-31.5-3.3c-19.7,9-36.9,36.6-38.6,61.4c-0.6,9.6,1.1,17.7,5.1,23.3L185.4,167.5z M182,91.5
			c-1.8,0-3.4-0.5-4.9-1.4c-3.3-2.2-5.1-6.6-4.8-12.2c0.5-10.2,7.4-21.4,15.6-25.3c3.9-1.9,7.6-1.8,10.5,0c3.2,2.1,5,6.4,4.8,11.7
			c-0.3,10-7.2,21.5-15.4,25.6C185.8,91,183.8,91.5,182,91.5z M193.5,54.3c-1.3,0-2.8,0.4-4.3,1.1C182,58.8,175.8,69,175.4,78
			c-0.2,4.5,1,7.9,3.4,9.5c2,1.3,4.8,1.2,7.8-0.3c7.3-3.6,13.4-13.9,13.7-23c0.1-4.3-1.1-7.6-3.4-9.1
			C195.8,54.6,194.8,54.3,193.5,54.3z"/>
		<path d="M237.6,60.7c0.4-23.9-14.7-35.7-34.1-26.7c-19.9,9.2-37.8,37-39.5,62.7c-0.7,10.3,1.4,18.6,5.4,24.3l28.7,54.4l32.7-86
			c1.2-2.8,2.3-5.7,3.2-8.5C236.2,74.1,237.4,67.3,237.6,60.7z"/>
		<path d="M198.8,177.4l-1.8-0.9l-28.9-54.9c-4.3-6-6.2-14.7-5.6-25.1c1.7-25.8,19.8-54.5,40.3-64c9.2-4.2,17.9-4.2,24.6,0.2
			c7.7,5,11.8,15,11.6,27.9c-0.1,6.6-1.3,13.5-3.6,20.5c-0.9,2.9-2,5.8-3.3,8.7L198.8,177.4z M215.9,32.5c-3.7,0-7.7,1-11.8,2.9
			c-19.6,9-36.9,36.6-38.6,61.4c-0.6,9.6,1.1,17.7,5.1,23.3l27.2,51.6l31.5-82.9c1.2-2.8,2.3-5.6,3.2-8.5c2.2-6.8,3.3-13.4,3.4-19.7
			c0.2-11.7-3.5-21-10.2-25.3C222.9,33.5,219.5,32.5,215.9,32.5z"/>
		<path class="st2" d="M213.8,74.3c0,7.7-5.4,17-12.1,20.9c-6.7,3.8-12.1,0.7-12.1-7s5.4-17,12.1-20.9
			C208.4,63.5,213.8,66.6,213.8,74.3z"/>
	</g>
</g>
</svg>
