<svg width="365" height="289" viewBox="0 0 365 289" fill="none" xmlns="http://www.w3.org/2000/svg">
<g clip-path="url(#clip0)">
<path d="M53.756 31.959L51.0564 31.9162L51.0778 31.1884C51.1207 29.3475 52.3419 27.2926 53.9488 26.4149L55.1915 25.6871C56.1984 25.1306 57.2269 25.1092 58.041 25.5801C58.8552 26.0724 59.3051 27.0143 59.2837 28.1488C59.2837 28.1916 59.2837 28.213 59.2837 28.2558C59.3051 28.2344 59.348 28.2344 59.3694 28.213L60.762 27.4424C61.5333 27.0143 62.2404 25.837 62.2404 24.9808C62.2832 23.1398 63.5044 21.0849 65.1113 20.2073L66.3112 19.5437C67.3181 18.9871 68.3465 18.9657 69.1607 19.4366C69.9749 19.929 70.4248 20.8708 70.4034 22.0053C70.4034 22.0482 70.4034 22.0696 70.4034 22.091C70.4248 22.0696 70.4676 22.0696 70.4891 22.0482L71.496 21.4916C72.2674 21.0635 72.9744 19.8862 72.9744 19.0299C73.0172 17.189 74.2385 15.1341 75.8454 14.2564L77.0452 13.5929C78.0522 13.0363 79.0806 13.0149 79.8947 13.4858C80.7089 13.9782 81.1588 14.92 81.1374 16.0545L81.116 17.0178L78.4164 16.975L78.4378 16.0117C78.4378 15.9689 78.4378 15.9475 78.4378 15.9047C78.4164 15.9261 78.3735 15.9261 78.3521 15.9475L77.1523 16.6111C76.381 17.0392 75.674 18.2165 75.674 19.0727C75.6311 20.9136 74.4099 22.9686 72.803 23.8462L71.796 24.4028C70.789 24.9593 69.7606 24.9808 68.9465 24.5098C68.1323 24.0175 67.6824 23.0756 67.7038 21.9411C67.7038 21.8983 67.7038 21.8769 67.7038 21.8341C67.6824 21.8555 67.6395 21.8555 67.6181 21.8769L66.4183 22.5405C65.647 22.9686 64.9399 24.1459 64.9399 25.0022C64.8971 26.8431 63.6758 28.898 62.069 29.7757L60.6763 30.5463C59.6693 31.1028 58.6409 31.1242 57.8268 30.6533C57.0126 30.161 56.5627 29.2191 56.5841 28.0846C56.5841 28.0418 56.5841 28.0204 56.5841 27.9776C56.5627 27.999 56.5198 27.999 56.4984 28.0204L55.2343 28.7268C54.463 29.1549 53.756 30.3322 53.756 31.1884V31.959Z" fill="white"/>
<path d="M148.541 26.0723L152.655 48.8053L200.776 66.0584L196.662 43.3254L148.541 26.0723Z" fill="#849BAF"/>
<path d="M225.972 18.302L196.662 43.3254L148.541 26.0723L177.851 1.02747L225.972 18.302Z" fill="#849BAF"/>
<path d="M227.407 26.1365L198.076 51.1813L149.977 33.9282L179.286 8.88342L227.407 26.1365Z" fill="white"/>
<path d="M177.68 0L147.556 25.7084L151.862 49.4903L200.969 67.1073L231.093 41.3989L226.786 17.617L177.68 0ZM199.598 64.667L153.469 48.1203L149.72 27.4637L195.848 44.0104L199.598 64.667ZM150.341 25.7512L178.044 2.07636L224.172 18.6231L196.469 42.2979L150.341 25.7512Z" fill="#16110D"/>
<path d="M200.776 66.0584L203.24 78.5166L157.518 62.1197L155.269 49.7471L200.776 66.0584Z" fill="#849BAF"/>
<path d="M200.583 65.0309L154.09 48.3557L156.704 62.8047L203.411 79.5654L229.636 57.1535L226.979 42.4905L200.583 65.0309ZM158.311 61.4347L156.447 51.1385L199.983 66.7433L202.019 77.1038L158.311 61.4347Z" fill="#16110D"/>
<path d="M200.39 66.5078L200.026 64.4743L226.422 41.9125L226.808 43.9675L200.39 66.5078Z" fill="#849BAF"/>
<path d="M207.375 33.0719L160.753 16.3326L161.375 14.6201L208.982 31.702L207.375 33.0719Z" fill="#16110D"/>
<path d="M213.074 71.3671L211.231 72.9511L211.36 54.9916L207.375 33.0934L208.982 31.6807L213.181 54.8204L213.074 71.3671Z" fill="#849BAF"/>
<path d="M205.382 17.2317C204.804 16.14 203.54 14.8129 200.862 14.8129C197.348 14.7915 194.798 18.7087 193.277 21.8982C193.17 21.042 192.998 20.1429 192.763 19.2867C192.056 16.7394 187.621 13.3145 184.45 13.5071C183.379 13.5713 181.536 14.1065 181.107 16.932C180.229 22.5618 188.671 25.8155 191.477 26.7359L191.349 27.1426L192.527 27.057L193.491 27.3139L193.513 26.9714C194.755 26.8643 196.619 26.6717 198.483 26.3292C201.226 25.8369 204.011 25.0448 204.868 23.8033C205.961 22.1765 206.453 19.3081 205.382 17.2317ZM182.907 17.1889C183.121 15.7975 183.743 15.4336 184.3 15.348C184.386 15.3266 184.471 15.3266 184.557 15.3266C186.957 15.1768 190.535 18.1308 191.006 19.779C191.52 21.6199 191.67 23.6321 191.692 24.8736C188.263 23.6963 182.329 20.8707 182.907 17.1889ZM203.368 22.7116C202.683 23.6963 198.205 24.6381 193.941 25.0663C195.12 21.8982 197.776 16.6324 200.862 16.6324C202.276 16.6324 203.261 17.1247 203.754 18.088C204.482 19.4793 204.14 21.5985 203.368 22.7116Z" fill="#16110D"/>
<path d="M196.769 32.8793C196.062 33.0077 195.27 32.9863 194.391 32.7509C191.863 32.0873 192.206 29.9681 192.399 28.8336C192.484 28.277 192.592 27.6563 192.42 27.4422C192.313 27.2924 191.97 27.1639 191.52 27.0997C189.742 26.8643 188.349 27.1639 187.364 27.9774C185.885 29.1975 185.735 31.2311 185.735 31.2311L183.914 31.124C183.914 31.017 184.086 28.2985 186.185 26.5646C187.578 25.4087 189.463 24.9806 191.777 25.2802C192.784 25.4087 193.47 25.7512 193.898 26.3291C194.541 27.1854 194.37 28.2128 194.22 29.1119C193.984 30.5247 194.07 30.7601 194.884 30.9742C197.648 31.702 199.019 29.1975 199.062 29.0905L200.669 29.9681C200.155 30.9742 198.805 32.5154 196.769 32.8793Z" fill="#16110D"/>
<path d="M154.026 38.6589C154.026 38.6589 148.97 34.7203 145.456 33.7998C141.942 32.8794 136.179 32.6011 136.179 32.6011L120.41 31.2097L119.831 31.1669L104.127 29.7969C104.127 29.7969 98.7061 29.0905 94.3782 29.326C90.0718 29.5615 80.4304 32.2158 80.4304 32.2158L97.1207 67.7066L130.415 72.2875L170.673 74.1712L154.026 38.6589Z" fill="#849BAF"/>
<path d="M150.127 42.298C150.127 42.298 145.071 38.3594 141.557 37.4389C138.043 36.5185 132.28 36.2402 132.28 36.2402L116.511 34.8488L115.932 34.806L100.228 33.436C100.228 33.436 94.8072 32.7296 90.4793 32.9651C86.1728 33.2006 86.4727 33.6501 86.4727 33.6501L93.1574 47.8636C99.3279 60.9853 112.162 69.7403 126.645 70.7036L164.461 72.8228L150.127 42.298Z" fill="white"/>
<path d="M96.3067 67.3214L79.6165 31.8306L80.3021 31.6379C80.7091 31.5309 90.0505 28.9836 94.3784 28.7481C98.7063 28.5127 103.998 29.1976 104.234 29.219L136.243 32.0232C136.458 32.0232 142.071 32.3015 145.606 33.2433C149.206 34.1852 154.176 38.0382 154.39 38.2095L154.498 38.2951L154.562 38.4235L171.466 74.3639L130.416 72.8869L96.3067 67.3214ZM81.309 32.6012L97.5708 67.1502L130.544 71.6882L169.752 73.5077L153.533 39.0657C152.762 38.4878 148.37 35.2127 145.285 34.3993C141.857 33.5002 136.2 33.2219 136.136 33.2219L104.084 30.3964C103.998 30.3964 98.642 29.7114 94.4213 29.9254C90.8861 30.1181 83.5801 32.0018 81.309 32.6012Z" fill="#16110D"/>
<path d="M171.081 73.6789C170.866 73.5076 165.896 69.6546 162.296 68.7127C158.761 67.7922 153.148 67.514 152.933 67.4926L120.924 64.6884C120.71 64.667 115.397 63.982 111.069 64.2175C106.741 64.4529 97.3993 67.0002 96.9922 67.1287L96.3066 67.3213L97.0994 68.2846C97.1636 68.3274 97.3136 68.6057 98.0421 69.098C99.7989 70.3181 103.034 72.4159 105.584 73.0795C109.119 73.9999 114.711 74.2782 114.925 74.2782L146.934 77.0824C147.149 77.1038 152.484 77.7888 156.811 77.5747C161.161 77.3607 170.502 74.8562 170.888 74.7491L171.488 74.3638L171.081 73.6789Z" fill="#16110D"/>
<path d="M91.979 56.8539L91.6147 55.7194C92.0218 55.5909 101.556 52.5299 106.934 52.6155C112.247 52.6798 125.852 54.1782 126.431 54.2424L154.069 56.7469C154.219 56.7469 159.04 56.7897 165.746 62.291L164.975 63.19C158.611 57.967 154.048 57.9242 154.005 57.9242L126.302 55.3983C126.152 55.3769 112.162 53.8571 106.912 53.7929C101.727 53.7286 92.0647 56.8111 91.979 56.8539Z" fill="#16110D"/>
<path d="M117.432 50.261L109.548 49.576C107.919 49.4262 105.97 47.9277 105.155 46.2367L102.199 39.9006C101.406 38.1881 102.07 36.9252 103.698 37.075L111.583 37.76C113.211 37.9098 115.161 39.4082 115.975 41.0993L118.932 47.4354C119.746 49.1265 119.06 50.3894 117.432 50.261Z" fill="#849BAF"/>
<path d="M117.389 50.6035L109.955 49.9399C107.983 49.7687 105.712 48.1632 104.877 46.3865L101.727 39.6223C100.892 37.8242 101.813 36.5185 103.784 36.6897L111.219 37.3533C113.19 37.5245 115.461 39.13 116.296 40.9067L119.446 47.6709C120.282 49.469 119.36 50.7747 117.389 50.6035ZM104.105 37.4389C102.584 37.3105 101.877 38.3166 102.52 39.7079L105.67 46.4722C106.312 47.8421 108.069 49.0837 109.59 49.2121L117.025 49.8757C118.546 50.0041 119.253 48.9981 118.61 47.6067L115.461 40.8424C114.818 39.4725 113.061 38.2309 111.54 38.1025L104.105 37.4389Z" fill="#16110D"/>
<path d="M115.289 44.1175L110.211 40.3929C109.869 40.1575 109.483 40.1147 109.354 40.3287L107.469 43.454C107.383 43.5824 107.619 43.8179 107.812 43.8393L109.397 43.9677C109.612 43.9891 109.869 44.1604 109.976 44.3744L111.754 48.1847C111.84 48.3773 112.097 48.5486 112.311 48.57L115.032 48.8054C115.246 48.8268 115.354 48.677 115.246 48.4843L113.468 44.6741C113.382 44.4814 113.468 44.3316 113.704 44.353L115.289 44.4814C115.482 44.4814 115.504 44.2674 115.289 44.1175Z" fill="white"/>
<path d="M114.089 48.3987L111.368 48.1632C110.94 48.1204 110.426 47.7779 110.233 47.3712L108.455 43.5609L106.891 43.4325C106.633 43.4111 106.334 43.2399 106.119 43.0258C105.905 42.8117 105.841 42.5549 105.948 42.405L107.833 39.2798C107.94 39.1085 108.155 39.0229 108.433 39.0657C108.712 39.0871 109.012 39.2156 109.29 39.4082L114.368 43.1328C114.625 43.3255 114.796 43.5823 114.775 43.775C114.775 43.9891 114.604 44.0961 114.347 44.0747L112.761 43.9462L114.539 47.7565C114.732 48.1418 114.539 48.4201 114.089 48.3987ZM106.933 42.7047L108.133 42.8117C108.583 42.8545 109.097 43.2184 109.29 43.6252L111.068 47.4354L113.747 47.6495L111.947 43.8392C111.754 43.4325 111.968 43.1328 112.418 43.1756L113.618 43.2827L108.926 39.8363C108.862 39.7935 108.797 39.7721 108.776 39.7721C108.755 39.7721 108.69 39.7721 108.669 39.8149L106.933 42.7047Z" fill="#16110D"/>
<path d="M135.472 50.0255C133.394 48.5699 131.637 46.6647 130.694 44.6312C129.73 42.5762 129.73 40.6711 130.694 39.3225C131.658 37.9526 133.436 37.3104 135.708 37.5031C140.143 37.8884 145.306 41.5059 147.191 45.5302C148.156 47.5852 148.156 49.4903 147.191 50.8389C146.227 52.2089 144.449 52.851 142.178 52.6584C139.95 52.4871 137.55 51.4811 135.472 50.0255ZM141.771 41.035C139.843 39.6864 137.636 38.766 135.579 38.5948C133.715 38.4235 132.28 38.9158 131.551 39.9433C130.823 40.9708 130.865 42.4906 131.658 44.1817C133.394 47.9063 138.15 51.2456 142.242 51.5881C144.106 51.7593 145.542 51.267 146.27 50.2395C146.999 49.1906 146.956 47.6922 146.163 46.0012C145.327 44.1389 143.699 42.3836 141.771 41.035Z" fill="#16110D"/>
<path d="M136.436 48.6769C134.958 47.6495 133.715 46.3009 133.051 44.8667C132.344 43.3683 132.365 41.9983 133.051 40.9923C133.758 39.9862 135.043 39.5153 136.693 39.6651C139.843 39.9434 143.485 42.4907 144.835 45.359C145.542 46.8575 145.52 48.2274 144.835 49.2335C144.128 50.2396 142.842 50.7105 141.192 50.5607C139.607 50.4108 137.893 49.7044 136.436 48.6769ZM140.828 42.405C139.521 41.4846 138 40.8638 136.586 40.7354C135.343 40.6284 134.401 40.928 133.929 41.613C133.458 42.2766 133.479 43.2827 134.015 44.4172C135.215 46.9645 138.45 49.2549 141.257 49.4904C142.499 49.5974 143.442 49.2977 143.913 48.6127C144.385 47.9492 144.363 46.9431 143.828 45.8086C143.249 44.5242 142.135 43.3255 140.828 42.405Z" fill="#16110D"/>
<path d="M139.029 64.5601L139.114 63.4898L141.664 63.7038C142.071 63.7466 142.371 63.661 142.499 63.4684C142.628 63.2757 142.607 62.976 142.435 62.5907L142.285 62.291C141.835 61.3278 140.55 60.4287 139.478 60.3217L139.2 60.3003C137.743 60.1719 136.136 59.0374 135.515 57.7316L135.365 57.4319C135.022 56.7041 135.043 55.9977 135.386 55.484C135.75 54.9703 136.393 54.7134 137.207 54.799L137.486 54.8204C137.893 54.8632 138.193 54.7776 138.322 54.5849C138.45 54.3923 138.429 54.0926 138.257 53.7073L138.172 53.5147C137.722 52.5514 136.436 51.6524 135.365 51.5453L135.108 51.5239C133.651 51.3955 132.044 50.261 131.423 48.9552C131.08 48.2274 131.101 47.5424 131.444 47.0073C131.808 46.4935 132.451 46.2367 133.265 46.3223L133.544 46.3437C133.951 46.3865 134.251 46.3009 134.379 46.1082C134.508 45.9156 134.486 45.6159 134.315 45.2306L134.208 44.9951C133.758 44.0319 132.472 43.1328 131.401 43.0258L128.852 42.8117L128.937 41.7415L131.487 41.9555C132.944 42.0839 134.551 43.2185 135.172 44.5242L135.279 44.7597C135.622 45.4875 135.601 46.1725 135.258 46.7076C134.893 47.2213 134.251 47.4782 133.437 47.3926L133.179 47.3712C132.772 47.3284 132.472 47.414 132.344 47.6066C132.215 47.7993 132.237 48.099 132.408 48.4843C132.858 49.4475 134.144 50.3466 135.215 50.4536L135.472 50.475C136.929 50.6035 138.536 51.738 139.157 53.0437L139.264 53.2578C139.607 53.9856 139.586 54.6706 139.243 55.2057C138.879 55.7195 138.236 55.9763 137.422 55.8907L137.143 55.8693C136.736 55.8265 136.436 55.9121 136.308 56.1048C136.179 56.2974 136.2 56.5971 136.372 56.9824L136.522 57.2821C136.972 58.2453 138.257 59.1444 139.328 59.2514L139.586 59.2728C141.043 59.4013 142.649 60.5358 143.271 61.8415L143.421 62.1412C143.764 62.869 143.742 63.554 143.399 64.0891C143.035 64.6029 142.392 64.8597 141.578 64.7741L139.029 64.5601Z" fill="#16110D"/>
<path d="M99.9064 69.1196L99.6921 68.349C99.9707 68.2633 106.762 66.3582 112.269 66.9362C117.711 67.5141 159.04 70.8535 159.447 70.8749C159.64 70.8963 163.989 71.4528 166.646 72.9084C168.189 73.7432 168.51 73.8931 168.531 73.9145L168.189 74.6423C168.167 74.6423 167.889 74.4924 166.26 73.6148C163.711 72.2448 159.404 71.6669 159.361 71.6669C158.954 71.6455 117.604 68.3062 112.162 67.7282C106.827 67.1502 99.9707 69.0982 99.9064 69.1196Z" fill="#849BAF"/>
<path d="M300.596 129.955L258.903 76.5687L309.23 69.5475L350.902 122.912L300.596 129.955Z" fill="#849BAF"/>
<path d="M258.903 76.5687L241.934 118.481L283.627 171.846L300.596 129.955L258.903 76.5687Z" fill="#849BAF"/>
<path d="M298.496 135.156L256.803 81.7703L307.109 74.7492L348.803 128.114L298.496 135.156Z" fill="white"/>
<path d="M309.595 69.2479L309.423 69.0338L258.581 76.1405L241.398 118.545L283.413 172.338L333.998 165.274L334.276 165.232L351.459 122.827L309.595 69.2479ZM283.499 170.926L242.491 118.417L259.053 77.5319L279.214 103.347L300.06 130.04L283.499 170.926ZM259.781 76.9326L309.016 70.0399L350.024 122.548L300.789 129.441L259.781 76.9326Z" fill="#16110D"/>
<path d="M252.411 127.151L248.319 121.928C247.483 120.857 247.269 118.781 247.869 117.325L250.076 111.888C250.675 110.433 251.832 110.112 252.668 111.182L256.76 116.405C257.596 117.475 257.81 119.552 257.21 121.007L255.003 126.444C254.403 127.9 253.246 128.221 252.411 127.151Z" fill="white"/>
<path d="M251.811 125.417L247.954 120.472C246.926 119.166 246.604 116.854 247.226 115.313L249.583 109.512C250.204 107.971 251.532 107.8 252.561 109.106L256.417 114.05C257.446 115.356 257.767 117.668 257.146 119.209L254.789 125.01C254.168 126.53 252.839 126.723 251.811 125.417ZM252.304 109.726C251.511 108.72 250.482 108.87 250.011 110.047L247.654 115.848C247.183 117.026 247.419 118.824 248.211 119.83L252.068 124.775C252.861 125.781 253.889 125.631 254.36 124.453L256.717 118.653C257.189 117.475 256.953 115.677 256.16 114.671L252.304 109.726Z" fill="#16110D"/>
<path d="M254.382 119.637C254.51 119.787 254.66 119.744 254.703 119.53C254.96 117.967 254.574 116.105 253.653 114.949C252.732 113.793 251.618 113.729 250.868 114.65C250.761 114.778 250.782 115.078 250.911 115.228L254.382 119.637Z" fill="#849BAF"/>
<path d="M254.146 118.909L250.697 114.478C250.568 114.307 250.482 114.072 250.482 113.815C250.461 113.579 250.525 113.365 250.632 113.215C251.468 112.167 252.732 112.316 253.696 113.537C254.66 114.778 255.132 116.854 254.853 118.61C254.81 118.824 254.725 118.995 254.575 119.038C254.425 119.145 254.275 119.081 254.146 118.909ZM250.975 113.9L254.382 118.267C254.596 116.897 254.21 115.228 253.418 114.221C252.646 113.237 251.661 113.108 250.975 113.9Z" fill="#16110D"/>
<path d="M250.247 120.344C249.882 119.873 249.754 119.016 249.99 118.46L250.139 118.096L250.568 118.631L250.418 118.995C250.332 119.209 250.375 119.509 250.525 119.701C250.654 119.873 250.847 119.851 250.932 119.637L252.368 116.105L252.796 116.64L251.361 120.172C251.104 120.75 250.611 120.814 250.247 120.344Z" fill="#16110D"/>
<path d="M261.431 138.688L257.339 133.465C256.503 132.395 256.289 130.319 256.889 128.863L259.096 123.426C259.695 121.971 260.852 121.649 261.688 122.72L265.78 127.943C266.616 129.013 266.83 131.089 266.23 132.545L264.023 137.982C263.423 139.459 262.266 139.78 261.431 138.688Z" fill="white"/>
<path d="M260.831 136.955L256.974 132.01C255.946 130.704 255.624 128.392 256.246 126.851L258.603 121.05C259.224 119.509 260.552 119.338 261.581 120.643L265.437 125.588C266.466 126.894 266.787 129.206 266.166 130.747L263.809 136.548C263.188 138.089 261.859 138.26 260.831 136.955ZM261.324 121.285C260.531 120.279 259.502 120.429 259.031 121.607L256.674 127.408C256.203 128.585 256.439 130.383 257.231 131.389L261.088 136.334C261.881 137.34 262.909 137.19 263.38 136.013L265.737 130.212C266.209 129.034 265.973 127.236 265.18 126.23L261.324 121.285Z" fill="#16110D"/>
<path d="M263.616 131.946L262.995 126.701C262.952 126.359 262.759 126.102 262.545 126.145L259.545 126.765C259.417 126.787 259.395 127.065 259.502 127.194L260.317 128.242C260.424 128.392 260.467 128.649 260.402 128.82L259.074 132.095C259.01 132.267 259.031 132.502 259.16 132.652L260.574 134.45C260.681 134.6 260.831 134.579 260.895 134.407L262.223 131.132C262.288 130.961 262.438 130.94 262.566 131.089L263.38 132.138C263.509 132.288 263.659 132.16 263.616 131.946Z" fill="#849BAF"/>
<path d="M260.316 133.679L258.902 131.881C258.667 131.582 258.602 131.068 258.752 130.725L260.081 127.45L259.245 126.401C259.117 126.23 259.031 125.952 259.052 125.695C259.074 125.438 259.181 125.267 259.331 125.224L262.33 124.603C262.502 124.561 262.673 124.646 262.802 124.839C262.952 125.01 263.037 125.288 263.08 125.567L263.702 130.811C263.723 131.068 263.659 131.325 263.53 131.432C263.402 131.539 263.23 131.517 263.102 131.346L262.287 130.297L260.959 133.572C260.831 133.915 260.531 133.958 260.316 133.679ZM259.716 126.016L260.338 126.808C260.573 127.108 260.638 127.622 260.509 127.985L259.181 131.261L260.573 133.037L261.88 129.762C262.03 129.42 262.33 129.377 262.545 129.677L263.166 130.469L262.609 125.609C262.609 125.545 262.566 125.502 262.566 125.481C262.545 125.46 262.523 125.438 262.48 125.438L259.716 126.016Z" fill="#16110D"/>
<path d="M323.885 154.614L321.357 153.587L321.636 152.902C322.321 151.189 324.228 149.712 326.049 149.455L327.485 149.263C328.62 149.113 329.606 149.434 330.184 150.205C330.763 150.954 330.87 152.003 330.441 153.052C330.42 153.094 330.42 153.116 330.399 153.137C330.42 153.137 330.463 153.137 330.484 153.137L332.048 152.923C332.905 152.795 333.998 151.96 334.341 151.147C335.026 149.434 336.933 147.957 338.754 147.7L340.104 147.508C341.24 147.358 342.225 147.7 342.804 148.449C343.382 149.199 343.489 150.247 343.061 151.296C343.039 151.339 343.04 151.361 343.018 151.382C343.04 151.382 343.082 151.382 343.104 151.382L344.239 151.232C345.096 151.104 346.189 150.269 346.532 149.455C347.217 147.743 349.124 146.266 350.945 146.009L352.295 145.816C353.431 145.667 354.416 145.988 354.995 146.758C355.573 147.508 355.68 148.556 355.252 149.605L354.888 150.483L352.359 149.455L352.724 148.578C352.745 148.535 352.745 148.514 352.767 148.492C352.745 148.492 352.702 148.492 352.659 148.492L351.31 148.685C350.453 148.813 349.36 149.648 349.017 150.462C348.332 152.174 346.425 153.651 344.604 153.908L343.468 154.058C342.332 154.208 341.347 153.886 340.768 153.116C340.19 152.367 340.083 151.318 340.511 150.269C340.533 150.226 340.533 150.205 340.554 150.183C340.533 150.183 340.49 150.183 340.447 150.183L339.097 150.376C338.24 150.504 337.148 151.339 336.805 152.153C336.119 153.865 334.212 155.342 332.391 155.599L330.827 155.813C329.692 155.963 328.706 155.642 328.128 154.871C327.549 154.122 327.442 153.073 327.87 152.024C327.892 151.981 327.892 151.96 327.913 151.939C327.892 151.939 327.849 151.939 327.806 151.939L326.371 152.131C325.514 152.26 324.421 153.094 324.078 153.908L323.885 154.614Z" fill="white"/>
<path d="M299.418 82.4123L289.369 83.8251L296.782 93.3079L306.831 91.8951L299.418 82.4123ZM297.639 90.889L293.461 85.5375L298.582 84.8312L302.76 90.1826L297.639 90.889Z" fill="#849BAF"/>
<path d="M297.425 91.3814L292.583 85.1951L298.753 84.3389L303.596 90.5252L297.425 91.3814ZM294.318 85.9015L297.832 90.4181L301.903 89.8402L298.389 85.3235L294.318 85.9015Z" fill="#16110D"/>
<path d="M296.589 93.8002L288.512 83.4826L299.61 81.92L307.688 92.259L296.589 93.8002ZM290.226 84.1676L296.975 92.8156L305.974 91.5526L299.203 82.9046L290.226 84.1676Z" fill="#16110D"/>
<path d="M281.678 87.9779C279.664 87.1645 277.843 85.9015 276.664 84.4031C275.464 82.8619 275.1 81.2993 275.636 79.9721C276.171 78.645 277.521 77.7673 279.45 77.5105C283.22 76.9753 288.212 78.9875 290.548 82.0057C291.748 83.5469 292.112 85.1095 291.576 86.4367C291.041 87.7638 289.691 88.6415 287.763 88.8983C285.877 89.1552 283.692 88.7913 281.678 87.9779ZM285.213 79.2657C283.349 78.5165 281.335 78.174 279.6 78.4095C278.014 78.6236 276.9 79.3085 276.493 80.3146C276.086 81.3207 276.407 82.5622 277.393 83.8252C279.557 86.6079 284.163 88.4488 287.655 87.9779C289.241 87.7638 290.355 87.0789 290.762 86.0728C291.169 85.0667 290.848 83.8252 289.862 82.5622C288.748 81.1708 287.077 80.0149 285.213 79.2657Z" fill="#16110D"/>
<path d="M282.213 86.6507C280.778 86.0727 279.492 85.1951 278.657 84.1248C277.778 83.0117 277.521 81.8772 277.928 80.8925C278.314 79.9293 279.3 79.2871 280.714 79.0944C283.392 78.7091 286.927 80.1433 288.598 82.2839C289.477 83.397 289.734 84.5315 289.327 85.5162C288.941 86.4794 287.955 87.1216 286.541 87.3143C285.192 87.4855 283.649 87.2286 282.213 86.6507ZM284.677 80.5929C283.413 80.0791 282.021 79.8436 280.821 80.0149C279.771 80.1647 279.042 80.6143 278.764 81.2564C278.507 81.8986 278.721 82.7334 279.364 83.5683C280.842 85.4734 283.992 86.7363 286.391 86.4152C287.441 86.2654 288.17 85.8159 288.448 85.1737C288.705 84.5315 288.491 83.6967 287.848 82.8619C287.098 81.8986 285.941 81.1066 284.677 80.5929Z" fill="#16110D"/>
<path d="M337.147 106.087L287.934 112.852L279.256 101.721L328.449 94.9778L337.147 106.087Z" fill="#849BAF"/>
<path d="M285.063 110.668L275.7 98.6809L327.035 91.6384L336.398 103.626L285.063 110.668ZM277.435 99.4087L285.448 109.684L334.619 102.919L326.606 92.6445L277.435 99.4087Z" fill="#16110D"/>
<path d="M278.314 102.213L271.565 118.867L280.135 130.254L286.991 113.344L278.314 102.213Z" fill="#849BAF"/>
<path d="M278.528 128.05L269.294 115.763L276.45 98.1243L285.813 110.112L278.528 128.05ZM270.365 115.634L278.271 126.166L284.72 110.261L276.707 99.9866L270.365 115.634Z" fill="#16110D"/>
<path d="M279.642 148.642L271.029 137.639L278.014 120.386L286.627 131.389L279.642 148.642Z" fill="#849BAF"/>
<path d="M279.728 149.37L270.601 137.682L277.907 119.637L287.034 131.325L279.728 149.37ZM271.458 137.575L279.514 147.893L286.177 131.453L278.121 121.136L271.458 137.575Z" fill="#16110D"/>
<path d="M279.407 145.902L273.75 138.667L278.743 126.359L284.399 133.594L279.407 145.902Z" fill="white"/>
<path d="M279.257 145.025L273.065 137.104L278.378 123.983L284.57 131.903L279.257 145.025ZM273.943 136.997L279.064 143.548L283.734 132.031L278.614 125.481L273.943 136.997Z" fill="#16110D"/>
<path d="M278.871 152.089C276.6 149.177 275.872 144.04 277.264 140.615C278.657 137.19 281.613 136.783 283.885 139.695C286.156 142.606 286.884 147.743 285.491 151.168C284.099 154.572 281.142 155 278.871 152.089ZM283.606 140.38C281.592 137.789 278.957 138.175 277.714 141.193C276.493 144.233 277.114 148.792 279.15 151.382C281.164 153.972 283.799 153.587 285.041 150.569C286.263 147.529 285.62 142.97 283.606 140.38Z" fill="#16110D"/>
<path d="M279.492 150.526C277.821 148.385 277.286 144.575 278.314 142.049C279.342 139.523 281.528 139.223 283.22 141.364C284.892 143.505 285.427 147.315 284.399 149.841C283.37 152.367 281.164 152.666 279.492 150.526ZM282.92 142.049C281.506 140.23 279.621 140.486 278.764 142.627C277.886 144.768 278.357 148 279.771 149.819C281.206 151.639 283.07 151.382 283.927 149.241C284.806 147.101 284.356 143.869 282.92 142.049Z" fill="#16110D"/>
<path d="M326.263 126.123L284.806 72.7156L285.706 72.3517L327.335 125.973L326.263 126.123Z" fill="#16110D"/>
<path d="M310.066 168.314L308.995 168.443L326.178 126.016L327.249 125.888L310.066 168.314Z" fill="#849BAF"/>
<path d="M60.0761 57.0038C60.0761 57.0038 53.6914 57.432 50.4348 59.0802C47.1995 60.7285 42.7217 64.3674 42.7217 64.3674L30.038 73.8288L29.588 74.1713L16.9686 83.5899C16.9686 83.5899 12.4478 86.6723 9.38404 89.7119C6.32024 92.7516 0.899658 101.143 0.899658 101.143L37.0226 116.491L64.9182 97.7391L96.199 72.3518L60.0761 57.0038Z" fill="#849BAF"/>
<path d="M59.5833 62.3125C59.5833 62.3125 53.1986 62.7406 49.942 64.3889C46.7068 66.0371 42.2289 69.6761 42.2289 69.6761L29.5452 79.1375L29.0953 79.48L16.4758 88.8985C16.4758 88.8985 11.9551 91.981 8.89127 95.0206C5.82747 98.0602 6.3631 98.1886 6.3631 98.1886L20.8251 104.332C34.1945 110.005 49.5778 108.014 61.0403 99.0877L90.6713 75.4985L59.5833 62.3125Z" fill="white"/>
<path d="M36.1229 116.79L0 101.421L0.385654 100.822C0.599906 100.479 5.87051 92.3449 8.95574 89.2838C12.0195 86.2228 16.4331 83.2046 16.626 83.0761L42.3791 63.8751C42.5505 63.7467 46.9212 60.2147 50.1779 58.5451C53.4988 56.854 59.7764 56.4045 60.0335 56.4045H60.1834L60.312 56.4687L96.8848 72.0093L65.2826 98.2315L36.1229 116.79ZM1.79972 100.886L36.9585 115.827L64.5756 97.2682L95.0423 72.5231L59.9906 57.6032C59.0479 57.6888 53.563 58.1598 50.7349 59.6154C47.5854 61.2208 43.1718 64.7956 43.129 64.817L17.3116 84.0608C17.2473 84.1036 12.7909 87.1646 9.79132 90.1401C7.28457 92.6445 3.08523 98.9164 1.79972 100.886Z" fill="#16110D"/>
<path d="M96.135 71.7525C95.8779 71.7739 89.5788 72.202 86.2579 73.8931C83.0013 75.5627 78.6306 79.0947 78.4592 79.2231L52.706 98.4242C52.5132 98.5526 48.0996 101.571 45.0358 104.632C41.972 107.693 36.7014 115.806 36.4657 116.17L36.0801 116.769L37.3013 116.962C37.387 116.962 37.687 117.047 38.5654 116.94C40.6865 116.683 44.5002 116.105 46.8355 114.907C50.0707 113.237 54.4415 109.726 54.5915 109.598L80.3446 90.397C80.5374 90.2685 84.951 87.2289 88.0362 84.1893C91.1215 81.1283 96.4349 73.0583 96.6492 72.7158L96.842 72.0308L96.135 71.7525Z" fill="#16110D"/>
<path d="M25.9032 111.846L24.8748 111.246C25.089 110.882 30.1668 102.256 34.2162 98.7237C38.2227 95.2346 49.3638 87.293 49.8351 86.9505L72.1174 70.4252C72.2245 70.3182 75.8453 67.1502 84.5226 66.7863L84.5654 67.985C76.3381 68.3275 72.9101 71.3243 72.8672 71.3457L50.5636 87.9352C50.435 88.0208 38.994 96.1979 35.0303 99.6442C31.1095 103.026 25.9674 111.76 25.9032 111.846Z" fill="#16110D"/>
<path d="M40.5151 89.9902L34.1732 94.7209C32.8663 95.7056 30.4024 95.8768 28.667 95.149L22.2394 92.3877C20.504 91.6385 20.1612 90.2471 21.4681 89.2838L27.81 84.5532C29.1169 83.5685 31.5808 83.3972 33.3162 84.125L39.7438 86.8864C41.4792 87.6142 41.8221 89.0056 40.5151 89.9902Z" fill="#849BAF"/>
<path d="M40.7079 90.2899L34.7303 94.7637C33.1448 95.941 30.381 96.2621 28.5598 95.4915L21.7038 92.5375C19.8826 91.7669 19.6898 90.1614 21.2753 88.9841L27.2529 84.5103C28.8384 83.333 31.6022 83.0119 33.4233 83.7825L40.2794 86.7365C42.1006 87.5071 42.2934 89.0911 40.7079 90.2899ZM22.0251 89.3052C20.8039 90.2256 20.9539 91.4458 22.3465 92.0451L29.2026 94.9991C30.5952 95.5985 32.7377 95.3416 33.959 94.4426L39.9366 89.9688C41.1579 89.0483 41.0079 87.8282 39.6152 87.2288L32.7592 84.2748C31.3665 83.6755 29.224 83.9323 28.0028 84.8314L22.0251 89.3052Z" fill="#16110D"/>
<path d="M34.8159 86.8435L28.5383 87.4428C28.1312 87.4857 27.8099 87.7211 27.8527 87.9566L28.5383 91.5314C28.5597 91.6812 28.8811 91.7026 29.0525 91.5956L30.3166 90.6537C30.488 90.5253 30.8094 90.4825 31.0022 90.5681L34.8802 92.2377C35.073 92.3234 35.373 92.2806 35.5444 92.1521L37.7297 90.5253C37.9011 90.3969 37.8797 90.2256 37.6869 90.14L33.8089 88.4703C33.5947 88.3847 33.5732 88.2135 33.7661 88.0636L35.0302 87.1218C35.2016 86.9719 35.073 86.8221 34.8159 86.8435Z" fill="white"/>
<path d="M36.7656 90.825L34.5802 92.4518C34.2374 92.7087 33.6161 92.7943 33.209 92.623L29.3311 90.9534L28.067 91.8952C27.8527 92.0451 27.5314 92.1307 27.2314 92.0879C26.9314 92.0665 26.7172 91.9167 26.6743 91.7454L25.9887 88.1706C25.9459 87.978 26.053 87.7639 26.2887 87.6141C26.5029 87.4428 26.8243 87.3358 27.1671 87.3144L33.4447 86.715C33.7661 86.6936 34.0446 86.7578 34.1946 86.9291C34.3231 87.0789 34.2803 87.293 34.066 87.4428L32.802 88.3847L36.6799 90.0329C37.087 90.2042 37.1298 90.5681 36.7656 90.825ZM27.6385 91.3601L28.6026 90.6323C28.9668 90.354 29.5882 90.2898 29.9953 90.4611L33.8732 92.1307L36.0157 90.5039L32.1378 88.8556C31.7307 88.6844 31.6878 88.3205 32.0521 88.0422L33.0162 87.3144L27.21 87.8709C27.1243 87.8709 27.0814 87.9138 27.06 87.9352C27.0386 87.9566 26.9957 87.978 27.0171 88.0422L27.6385 91.3601Z" fill="#16110D"/>
<path d="M53.8203 77.8317C51.2921 78.1314 48.7211 77.8745 46.6643 76.9969C44.5646 76.0978 43.3005 74.6851 43.1077 73.0368C42.9148 71.3886 43.8147 69.7189 45.6358 68.3489C49.2139 65.6732 55.4486 64.9454 59.5408 66.7007C61.6405 67.5997 62.9046 69.0125 63.0974 70.6608C63.2902 72.309 62.3904 73.9787 60.5692 75.3486C58.7909 76.6758 56.327 77.532 53.8203 77.8317ZM52.5133 66.9147C50.178 67.193 47.9283 67.985 46.2786 69.2052C44.7788 70.3183 44.029 71.6454 44.1789 72.887C44.3289 74.1499 45.3573 75.2416 47.0928 75.9908C50.885 77.6176 56.627 76.9327 59.9265 74.471C61.4262 73.3579 62.1761 72.0307 62.0261 70.7892C61.8762 69.5263 60.8477 68.4346 59.1123 67.6854C57.2269 66.8719 54.8487 66.6365 52.5133 66.9147Z" fill="#16110D"/>
<path d="M53.6274 76.1834C51.8491 76.3975 50.0066 76.2048 48.5496 75.5841C47.0285 74.9419 46.1286 73.9144 45.9786 72.6943C45.8286 71.4742 46.4928 70.2754 47.7998 69.2908C50.3279 67.407 54.763 66.8719 57.6554 68.1348C59.1766 68.777 60.0764 69.8045 60.2264 71.0246C60.3764 72.2448 59.7122 73.4435 58.4053 74.4282C57.1412 75.3486 55.4057 75.9694 53.6274 76.1834ZM52.7276 68.563C51.1421 68.7556 49.5781 69.2908 48.4639 70.1256C47.457 70.8748 46.9642 71.731 47.0713 72.5444C47.1784 73.3579 47.8426 74.0857 48.9996 74.578C51.592 75.6911 55.5343 75.2202 57.7839 73.5291C58.7909 72.7799 59.2837 71.9237 59.1766 71.1103C59.0694 70.2968 58.4053 69.569 57.2483 69.0767C55.9413 68.5416 54.313 68.3703 52.7276 68.563Z" fill="#16110D"/>
<path d="M40.001 115.72L39.3154 115.292C39.4654 115.035 43.2577 109.106 47.757 105.873C52.192 102.684 85.2511 77.6605 85.5939 77.4036C85.7653 77.2966 89.3647 74.8349 92.3214 74.1286C94.0354 73.7218 94.3782 73.6362 94.3997 73.6148L94.6353 74.3854C94.6139 74.3854 94.314 74.4925 92.5142 74.8992C89.7075 75.5627 86.1081 78.0244 86.0653 78.0458C85.7439 78.2813 52.6848 103.326 48.2283 106.516C43.8576 109.662 40.0439 115.656 40.001 115.72Z" fill="#849BAF"/>
<path d="M49.9639 218.832L47.8643 217.997L48.0999 217.419C48.657 216.006 50.221 214.765 51.7422 214.529L52.9206 214.358C53.8633 214.208 54.6775 214.487 55.1703 215.107C55.663 215.728 55.7487 216.584 55.4059 217.462C55.3845 217.483 55.3845 217.505 55.3845 217.548C55.4059 217.548 55.4274 217.548 55.4702 217.548L56.7771 217.355C57.4842 217.248 58.384 216.541 58.6626 215.856C59.2196 214.444 60.7837 213.181 62.3049 212.967L63.4404 212.795C64.3831 212.646 65.1973 212.924 65.69 213.545C66.1828 214.165 66.2685 215.022 65.9257 215.899C65.9043 215.921 65.9043 215.942 65.9043 215.985C65.9257 215.985 65.9471 215.985 65.99 215.985L66.9327 215.835C67.6397 215.728 68.5396 215.022 68.8181 214.337C69.3752 212.924 70.9392 211.682 72.4604 211.447L73.5959 211.276C74.5387 211.126 75.3528 211.404 75.8456 212.025C76.3384 212.646 76.4241 213.502 76.0813 214.379L75.7813 215.107L73.6816 214.272L73.9816 213.545C74.003 213.523 74.003 213.502 74.003 213.459C73.9816 213.459 73.9602 213.459 73.9173 213.459L72.7818 213.63C72.0748 213.737 71.1749 214.444 70.8964 215.129C70.3393 216.541 68.7753 217.804 67.2541 218.018L66.3114 218.168C65.3687 218.318 64.5545 218.04 64.0617 217.419C63.5689 216.798 63.4832 215.942 63.826 215.064C63.8475 215.043 63.8475 215.022 63.8475 214.979C63.826 214.979 63.8046 214.979 63.7618 214.979L62.6262 215.15C61.9192 215.257 61.0193 215.964 60.7408 216.649C60.1838 218.061 58.6197 219.303 57.0985 219.538L55.7916 219.731C54.8489 219.881 54.0347 219.603 53.5419 218.982C53.0492 218.361 52.9635 217.505 53.3063 216.627C53.3277 216.606 53.3277 216.584 53.3277 216.541C53.3063 216.541 53.2848 216.541 53.242 216.541L52.0636 216.713C51.3566 216.82 50.4567 217.526 50.1782 218.211L49.9639 218.832Z" fill="white"/>
<path d="M267.185 241.979C316.96 192.249 316.96 111.62 267.185 61.8902C217.41 12.16 136.708 12.16 86.9331 61.8902C37.1579 111.62 37.1579 192.249 86.9331 241.979C136.708 291.709 217.41 291.709 267.185 241.979Z" fill="#849BAF"/>
<path d="M258.281 131.196C242.319 131.196 222.222 125.738 202.447 115.014C165.339 94.8707 143.185 63.6182 153.105 45.3805C155.869 40.3073 160.754 36.6469 167.631 34.5491L167.91 34.5063C171.423 34.2495 174.53 34.0996 177.379 34.0996C225.779 34.0996 270.001 62.5908 290.033 106.665L290.14 106.879L290.162 107.115C290.397 111.332 289.605 115.142 287.805 118.46C283.156 126.979 272.315 131.196 258.281 131.196ZM168.252 37.0322C162.125 38.9373 157.775 42.1696 155.376 46.6006C146.12 63.6182 167.802 93.2867 203.69 112.766C239.577 132.245 276.3 134.236 285.555 117.24C287.098 114.414 287.784 111.139 287.612 107.5C267.944 64.4531 224.708 36.6683 177.401 36.6683C174.637 36.6469 171.638 36.7753 168.252 37.0322Z" fill="white"/>
<path d="M239.341 229.299C238.591 229.299 237.841 229.299 237.091 229.278C210.074 228.807 179.65 220.095 151.391 204.747C123.152 189.442 99.3915 168.742 84.4796 146.48C70.039 124.903 66.0325 104.653 73.5099 90.9107L74.9025 88.4918C98.0417 54.4137 136.329 34.0996 177.401 34.0996C245.597 34.0996 301.089 89.5407 301.089 157.675C301.089 175.292 297.425 192.353 290.183 208.386L289.583 209.713L289.412 209.606C281.742 222.193 263.659 229.299 239.341 229.299ZM177.379 36.6469C137.164 36.6469 99.67 56.5329 77.0664 89.8404L75.7381 92.1522C68.7535 104.996 72.7171 124.282 86.6007 145.046C101.277 166.966 124.716 187.387 152.569 202.499C180.465 217.633 210.503 226.238 237.091 226.709C262.309 227.18 280.82 220.052 287.805 207.187L288.105 206.631C294.982 191.133 298.475 174.65 298.475 157.654C298.517 90.9321 244.162 36.6469 177.379 36.6469Z" fill="white"/>
<path d="M301.067 157.654C301.067 89.5193 245.576 34.0782 177.379 34.0782C109.183 34.0782 53.6917 89.5193 53.6917 157.654C53.6917 168.443 55.0843 178.931 57.6982 188.907H57.6767C57.6767 188.907 57.6982 188.971 57.7196 189.014C71.646 242.014 120.003 281.23 177.358 281.23C196.662 281.23 214.959 276.777 231.264 268.857C231.35 268.836 231.414 268.814 231.435 268.814V268.793C272.615 248.714 301.067 206.438 301.067 157.654ZM229.271 68.7342C219.373 63.3614 214.809 55.9335 216.759 52.3374C217.659 50.6891 220.016 49.7472 223.251 49.7472C227.022 49.7472 232.014 51.0102 237.327 53.9C247.226 59.2728 251.789 66.7007 249.84 70.2968C247.89 73.8716 239.17 74.1071 229.271 68.7342ZM177.379 278.683C125.937 278.683 81.8872 246.467 64.3614 201.193C73.5743 215.407 93.7782 239.403 133.351 258.882C156.447 270.249 178.772 273.352 196.255 273.352C204.697 273.352 212.024 272.625 217.766 271.768C205.147 276.221 191.542 278.683 177.379 278.683ZM230.343 266.481C226.4 267.659 182.243 280.074 134.508 256.57C77.4522 228.486 61.3619 191.133 60.1835 188.222C57.6339 178.46 56.2627 168.228 56.2627 157.675C56.2627 90.9535 110.597 36.6683 177.379 36.6683C195.441 36.6683 212.581 40.6498 227.986 47.7565C221.644 46.4936 216.438 47.5853 214.488 51.1386C211.553 56.5543 217.487 65.2665 228.029 71.0032C233.492 73.9572 238.934 75.4556 243.348 75.4556C247.461 75.4556 250.654 74.1499 252.068 71.5384C253.717 68.5202 252.582 64.4745 249.432 60.493C279.171 82.5624 298.475 117.903 298.475 157.675C298.518 205.432 270.665 246.809 230.343 266.481Z" fill="white"/>
<path d="M275.914 129.163C272.893 125.353 279.256 115.228 283.284 111.546C287.312 107.864 285.298 106.195 283.284 100.158C281.27 94.1217 278.935 90.1188 273.236 87.443C267.537 84.7673 261.838 86.0945 256.481 85.4309C251.125 84.7673 246.433 78.0673 241.055 76.0551C235.699 74.043 232.014 85.0884 230.321 83.4188C228.65 81.7491 230.664 76.7187 227.643 73.3152C224.622 69.9117 209.539 70.6823 199.148 69.0126C188.756 67.343 189.421 61.649 192.441 58.6308C195.462 55.6126 195.462 52.2733 187.985 48.9126C180.508 45.5733 164.524 46.8576 159.597 47.6282C149.87 49.1694 152.548 42.555 147.513 43.5611C142.478 44.5672 135.472 51.2672 131.101 50.2611C129.537 49.8972 128.38 48.1848 127.309 46.3653C124.695 47.6068 122.145 48.9554 119.639 50.3896C120.538 53.579 123.067 56.4902 125.402 58.6308C129.43 62.3126 132.108 56.2976 139.821 60.4717C147.534 64.6459 148.198 84.4034 142.842 85.4095C137.486 86.4156 134.122 80.7216 134.465 75.6913C134.808 70.6609 133.458 67.3216 127.416 67.9852C121.374 68.6487 117.689 81.0427 122.724 87.0792C127.759 93.1156 118.696 97.1185 111.326 97.1185C103.955 97.1185 100.442 87.5501 100.934 81.8133C101.749 72.2663 108.969 70.3184 110.983 64.9669C111.904 62.5267 111.904 58.695 111.647 55.2701C79.0378 77.2539 57.5483 114.521 57.5483 156.819C57.5483 172.06 60.355 186.638 65.4542 200.102C67.0397 198.282 68.0895 196.313 68.111 194.579C68.1967 189.378 64.4258 184.197 68.111 184.861C71.7961 185.525 73.1459 183.512 73.6387 172.146C74.1529 160.758 81.1804 164.782 91.1002 163.434C101.02 162.085 101.663 162.085 97.0564 156.798C92.4286 151.532 89.6005 141.043 90.0932 129.655C90.6289 116.919 100.634 103.134 103.977 103.819C107.319 104.482 104.77 108.763 100.592 117.433C96.028 126.937 96.5637 147.251 103.955 152.945C111.326 158.639 130.48 151.018 128.787 145.324C127.116 139.63 119.746 141.985 118.053 130.811C116.382 119.659 125.766 114.521 124.416 122.891C123.067 131.261 131.465 140.294 137.143 142.649C142.842 144.982 144.235 153.373 142.092 158.831C138.75 167.351 152.226 164.418 147.513 169.427C142.799 174.458 140.164 200.573 144.17 207.594C148.198 214.636 155.226 214.294 154.519 208.6C153.79 202.906 158.247 193.53 165.639 187.579C173.009 181.629 188.092 181.136 194.798 187.579C201.504 194.023 189.442 199.567 190.77 202.242C192.12 204.918 198.141 201.579 200.155 202.585C202.169 203.591 203.497 207.615 204.504 211.618C205.511 215.643 207.353 222.45 212.603 224.076C219.18 226.089 227.3 221.336 227.622 215.964C227.965 210.612 220.916 205.239 225.608 201.236C230.3 197.212 246.39 200.573 254.103 195.542C261.816 190.512 259.46 173.452 256.781 169.085C254.103 164.739 256.781 160.052 263.809 165.061C270.858 170.091 262.78 175.656 268.844 176.448C272.893 176.962 274.886 171.097 274.886 167.736C274.886 164.397 269.529 159.709 275.229 158.361C280.928 157.012 281.935 155.021 283.949 142.948C285.963 130.961 278.935 132.973 275.914 129.163ZM151.734 100.586C148.22 101.121 151.198 108.678 147.663 111.375C144.149 114.072 137.4 112.531 139.028 107.607C140.914 101.935 143.356 98.9808 146.313 94.6568C149.291 90.3328 156.297 91.6814 157.39 96.2837C158.483 100.843 155.247 100.03 151.734 100.586Z" fill="white"/>
<path d="M213.331 222.664C212.153 222.664 210.974 222.492 209.882 222.171C204.14 220.416 202.254 212.881 201.354 209.264C200.883 207.401 199.469 201.707 197.326 200.637C196.705 200.316 195.184 200.658 193.834 200.937C191.413 201.45 188.649 202.05 187.642 200.016C186.978 198.668 188.285 197.255 189.935 195.457C193.17 191.946 195.377 188.992 191.799 185.524C185.521 179.509 170.973 179.531 163.496 185.567C155.954 191.668 151.969 200.915 152.612 206.01C152.912 208.386 151.991 210.163 150.148 210.783C147.641 211.618 143.742 210.034 141.085 205.389C137.1 198.432 139.435 171.868 144.513 166.452C145.349 165.553 145.37 165.146 145.349 164.996C145.242 164.547 144.149 164.119 143.185 163.733C140.7 162.749 136.929 161.272 138.964 156.049C141.064 150.676 139.5 142.798 134.358 140.679C128.23 138.153 119.874 128.713 121.224 120.237C121.545 118.246 121.181 117.24 120.753 116.94C120.303 116.641 119.617 117.004 119.339 117.176C117.56 118.31 115.225 122.185 116.125 128.157C117.089 134.514 119.938 136.27 122.488 137.832C124.352 138.967 126.088 140.037 126.837 142.584C127.394 144.49 126.13 146.63 123.238 148.599C117.646 152.41 106.483 155.128 100.999 150.89C93.0927 144.789 93.0284 123.79 97.4634 114.586C97.9562 113.58 98.4061 112.638 98.8346 111.76C101.149 107.051 102.798 103.626 102.198 102.427C102.113 102.256 101.92 102.02 101.299 101.892C101.149 101.871 100.592 101.828 99.3917 102.77C94.9995 106.216 88.5934 117.154 88.1649 127.129C87.6935 138.089 90.3717 148.557 94.9781 153.822C97.2278 156.391 98.2347 157.74 97.8062 158.917C97.2706 160.351 95.021 160.651 89.0005 161.464L88.6362 161.507C86.0224 161.85 83.6013 161.85 81.4802 161.828C75.4169 161.785 72.0745 161.785 71.7317 169.599C71.3675 177.519 70.6176 180.965 68.9036 182.335C67.8109 183.213 66.4826 183.106 65.4542 182.913C64.94 182.827 64.7043 182.892 64.6614 182.934C64.4043 183.234 64.8328 184.818 65.1542 185.974C65.647 187.686 66.2469 189.848 66.204 192.01C66.1612 193.766 65.1756 195.885 63.3759 197.94L62.6689 198.753L62.2832 197.747C57.0126 183.812 54.3345 169.17 54.3345 154.229C54.3345 113.237 74.6884 75.0918 108.755 52.1876L109.676 51.5668L109.762 52.6585C110.104 57.1324 109.869 60.4931 109.054 62.6336C108.24 64.7956 106.655 66.4011 104.984 68.1135C102.306 70.8321 99.5203 73.6362 99.0489 79.3088C98.7489 82.7765 99.9916 87.9567 102.948 91.1676C104.619 92.9871 106.591 93.9076 108.797 93.9076C113.554 93.9076 119.317 92.1309 120.71 89.1769C121.31 87.8711 120.967 86.4369 119.703 84.9171C116.468 81.0427 116.725 75.0704 118.417 70.8749C119.831 67.3643 122.231 65.0739 124.823 64.7956C127.544 64.496 129.516 64.9455 130.801 66.2084C132.237 67.5784 132.794 69.7832 132.558 73.1867C132.365 76.0979 133.522 79.2018 135.429 80.8928C136.779 82.0915 138.407 82.5411 140.185 82.22C141.449 81.9845 142.456 80.1436 142.906 77.318C143.849 71.303 142.049 61.2209 136.993 58.4595C133.094 56.3617 130.63 56.9611 128.444 57.5177C126.452 58.01 124.588 58.4809 122.445 56.533C119.274 53.6218 117.26 50.7534 116.489 47.9921L116.36 47.4997L116.789 47.2429C119.531 45.7016 122.06 44.3745 124.502 43.1972L125.038 42.9403L125.338 43.454C126.323 45.1451 127.416 46.7505 128.701 47.0502C130.972 47.5639 134.293 45.6374 137.507 43.7537C140.014 42.2981 142.585 40.7997 144.835 40.3502C147.341 39.8579 148.305 41.0352 149.227 42.1911C150.384 43.6253 151.691 45.2521 156.94 44.4173C160.711 43.8179 177.701 42.1697 185.692 45.7445C189.785 47.564 191.949 49.5119 192.356 51.6953C192.634 53.2579 191.97 54.8847 190.342 56.5116C189.185 57.6675 188.178 59.5512 188.756 61.3707C189.249 62.8905 191.027 64.9027 196.684 65.8017C200.369 66.4011 204.632 66.6793 208.789 66.9576C216.652 67.4714 223.444 67.9209 225.565 70.3183C227.45 72.4375 227.536 75.0918 227.6 77.2324C227.643 78.6452 227.686 79.8653 228.222 80.4005C228.521 80.3149 229.464 79.0305 230.15 78.0886C232.207 75.3059 235.013 71.4957 238.72 72.887C241.184 73.8075 243.519 75.6912 245.747 77.4893C248.554 79.7369 251.189 81.8775 253.996 82.22C259.267 82.8836 265.073 81.5136 270.943 84.2749C276.878 87.0791 279.321 91.3603 281.335 97.3753C281.742 98.574 282.127 99.5801 282.47 100.479C283.906 104.161 284.698 106.194 281.142 109.427C277.157 113.066 271.222 122.87 273.836 126.188C274.65 127.194 275.786 127.772 277.028 128.371C280.071 129.869 283.52 131.582 282.02 140.529C280.049 152.324 279.042 154.978 272.829 156.455C271.758 156.712 271.072 157.098 270.836 157.611C270.408 158.468 271.093 159.923 271.758 161.314C272.357 162.599 273 163.947 273 165.21C273 167.886 271.908 171.568 269.808 173.409C268.758 174.329 267.558 174.715 266.251 174.543C264.966 174.372 264.152 174.008 263.702 173.366C263.059 172.467 263.273 171.311 263.487 170.091C263.895 167.929 264.344 165.489 260.938 163.048C258.088 161.015 255.71 160.437 254.553 161.529C253.589 162.428 253.696 164.397 254.832 166.216C257.531 170.605 260.188 188.179 251.961 193.53C247.761 196.27 241.205 196.591 235.42 196.891C230.364 197.148 225.586 197.405 223.529 199.16C221.215 201.151 222.115 203.356 223.786 206.78C224.836 208.921 225.908 211.126 225.758 213.438C225.608 215.835 224.022 218.254 221.408 220.052C218.966 221.786 216.095 222.664 213.331 222.664ZM196.576 199.224C197.091 199.224 197.541 199.288 197.905 199.481C199.747 200.402 201.183 203.313 202.597 208.942C203.454 212.325 205.211 219.389 210.267 220.951C213.545 221.957 217.53 221.229 220.68 219.067C222.972 217.483 224.344 215.428 224.472 213.416C224.601 211.447 223.594 209.392 222.63 207.401C221.087 204.233 219.501 200.979 222.694 198.24C225.093 196.185 229.85 195.949 235.356 195.671C240.97 195.371 247.354 195.05 251.254 192.503C258.731 187.644 256.203 170.926 253.739 166.923C252.282 164.547 252.261 161.957 253.696 160.63C254.489 159.902 256.824 158.575 261.709 162.042C265.78 164.953 265.18 168.207 264.773 170.348C264.58 171.332 264.43 172.189 264.752 172.638C264.987 172.959 265.566 173.195 266.444 173.302C267.365 173.43 268.222 173.131 268.994 172.467C270.729 170.947 271.758 167.586 271.758 165.232C271.758 164.269 271.179 163.048 270.643 161.892C269.851 160.223 269.037 158.489 269.722 157.076C270.151 156.177 271.093 155.578 272.572 155.235C277.885 153.994 278.806 152.324 280.799 140.358C282.127 132.352 279.406 130.982 276.514 129.548C275.228 128.906 273.879 128.243 272.893 127.001C269.401 122.613 276.621 111.91 280.328 108.506C283.22 105.852 282.706 104.525 281.313 100.95C280.949 100.03 280.563 99.0021 280.156 97.782C278.207 91.9382 276 88.0424 270.429 85.4308C264.902 82.8407 259.31 84.1679 253.868 83.4829C250.697 83.0976 247.804 80.743 244.976 78.474C242.812 76.7401 240.584 74.9206 238.291 74.0644C235.506 73.0155 233.128 76.2478 231.221 78.8379C230 80.4861 229.207 81.5778 228.286 81.642C227.943 81.6634 227.622 81.535 227.365 81.2781C226.465 80.3791 226.422 78.9235 226.379 77.2538C226.315 75.2203 226.25 72.9299 224.665 71.1532C222.908 69.1624 215.709 68.6915 208.767 68.2206C204.59 67.9423 200.283 67.664 196.555 67.0647C190.256 66.0586 188.199 63.6183 187.599 61.756C186.957 59.7653 187.685 57.4106 189.485 55.5911C190.813 54.264 191.349 53.0652 191.134 51.9307C190.813 50.2397 188.821 48.5486 185.2 46.9218C178.194 43.7751 163.025 44.7598 157.176 45.6802C151.198 46.6221 149.505 44.5243 148.263 42.9831C147.384 41.8914 146.87 41.2492 145.113 41.5917C143.078 41.9984 140.592 43.454 138.171 44.8454C134.572 46.9432 131.187 48.9125 128.444 48.2703C126.773 47.885 125.552 46.2368 124.545 44.5885C122.424 45.616 120.217 46.7719 117.882 48.0777C118.674 50.4323 120.538 53.001 123.302 55.5483C124.931 57.0467 126.195 56.7256 128.123 56.2333C130.415 55.6554 133.265 54.949 137.593 57.3036C143.378 60.4289 145.156 71.2174 144.17 77.4893C143.613 80.9784 142.285 83.0976 140.421 83.4401C138.257 83.8468 136.243 83.2903 134.593 81.8133C132.365 79.8439 131.08 76.3976 131.294 73.0583C131.487 70.0615 131.058 68.1778 129.923 67.0861C128.916 66.1228 127.287 65.7803 124.973 66.0372C122.852 66.2726 120.86 68.242 119.617 71.3244C118.117 75.049 117.817 80.6145 120.71 84.0823C122.724 86.5011 122.467 88.4705 121.888 89.712C120.217 93.2654 113.918 95.1919 108.819 95.1919C106.269 95.1919 103.934 94.1002 102.027 92.0452C98.8132 88.5561 97.4634 82.9478 97.7848 79.2018C98.299 73.0583 101.384 69.9544 104.084 67.2145C105.669 65.6091 107.148 64.1106 107.876 62.1841C108.54 60.4074 108.776 57.5605 108.583 53.8573C75.3955 76.6331 55.62 114.072 55.62 154.251C55.62 168.657 58.1267 182.785 63.0974 196.27C64.2543 194.729 64.8971 193.252 64.9185 192.01C64.9614 190.02 64.3829 187.986 63.933 186.338C63.3759 184.347 62.9688 182.913 63.7187 182.1C64.3186 181.436 65.347 181.629 65.6898 181.671C66.8468 181.885 67.5753 181.778 68.1109 181.35C69.4607 180.28 70.1463 176.855 70.4677 169.556C70.8747 160.501 75.5454 160.522 81.5016 160.565C83.5799 160.565 85.9581 160.587 88.4863 160.244L88.8505 160.201C93.1998 159.623 96.3493 159.195 96.6278 158.468C96.8421 157.89 95.1495 155.942 94.0354 154.679C89.2361 149.199 86.4294 138.367 86.9008 127.087C87.3293 116.748 94.014 105.381 98.6204 101.763C99.7774 100.864 100.763 100.479 101.556 100.65C102.434 100.822 103.055 101.25 103.355 101.871C104.234 103.647 102.713 106.73 99.9916 112.338C99.5631 113.216 99.0917 114.157 98.6204 115.164C94.0354 124.668 94.9353 144.597 101.791 149.905C106.762 153.737 117.389 151.083 122.531 147.572C124.888 145.967 126.002 144.297 125.616 142.97C125.016 140.915 123.602 140.037 121.824 138.945C119.189 137.319 115.911 135.306 114.882 128.371C114.004 122.484 116.125 117.754 118.674 116.127C119.681 115.485 120.71 115.399 121.481 115.891C122.21 116.362 122.981 117.561 122.531 120.451C121.267 128.328 129.13 137.147 134.872 139.523C140.764 141.942 142.542 150.505 140.185 156.52C138.6 160.565 141.171 161.571 143.678 162.556C145.113 163.113 146.377 163.605 146.613 164.718C146.784 165.489 146.42 166.302 145.477 167.33C141.149 171.932 138.214 197.726 142.221 204.747C144.513 208.728 147.813 210.205 149.762 209.542C151.005 209.135 151.584 207.894 151.369 206.138C150.577 199.802 155.547 190.319 162.703 184.54C170.609 178.161 186.035 178.161 192.699 184.583C197.476 189.185 193.513 193.466 190.899 196.292C189.785 197.49 188.521 198.86 188.799 199.417C189.378 200.551 191.606 200.08 193.577 199.652C194.648 199.438 195.698 199.224 196.576 199.224ZM140.978 110.754C139.607 110.754 138.278 110.39 137.271 109.684C135.729 108.571 135.215 106.815 135.879 104.825C137.529 99.8798 139.607 96.9258 142.006 93.5008C142.414 92.9229 142.821 92.3449 143.249 91.7242C144.792 89.498 147.491 88.4277 150.298 88.9628C152.933 89.4551 154.926 91.2318 155.483 93.5651C155.869 95.1705 155.783 96.305 155.204 97.0756C154.39 98.1887 152.89 98.3172 151.176 98.4456C150.577 98.4884 149.955 98.5526 149.312 98.6382C148.113 98.8309 147.963 100.286 147.834 102.684C147.684 105.081 147.534 107.779 145.542 109.298C144.235 110.283 142.585 110.754 140.978 110.754ZM148.905 90.0973C147.298 90.0973 145.499 90.6967 144.299 92.4306C143.87 93.0513 143.463 93.6507 143.056 94.2286C140.614 97.7178 138.686 100.458 137.1 105.231C136.607 106.687 136.929 107.864 138.021 108.635C139.778 109.876 142.842 109.726 144.727 108.292C146.249 107.136 146.377 104.846 146.506 102.62C146.656 100.222 146.806 97.7392 149.077 97.3753C149.741 97.2683 150.405 97.2255 151.048 97.1612C152.462 97.0542 153.705 96.9472 154.155 96.305C154.476 95.8555 154.497 95.0207 154.219 93.8433C153.79 92.0024 152.183 90.6111 150.062 90.2043C149.677 90.1401 149.291 90.0973 148.905 90.0973Z" fill="#16110D"/>
<path d="M75.1812 190.833C73.5743 195.093 73.1458 202.949 78.5235 206.631C83.8798 210.312 80.1947 190.555 86.2366 189.228C92.2785 187.879 87.5007 181.778 83.2156 182.207C79.1234 182.592 76.381 187.622 75.1812 190.833Z" fill="white"/>
<path d="M77.1309 205.175C76.6595 205.175 76.1453 204.982 75.5882 204.597C69.8891 200.68 70.3391 192.567 72.0102 188.05L72.6101 188.264L72.0102 188.05C72.7601 186.038 75.5882 179.488 80.5803 178.974C83.6655 178.653 86.7294 181.243 87.115 183.577C87.2436 184.433 87.2007 186.509 83.7941 187.28C81.2016 187.858 80.6446 193.145 80.1732 197.383C79.7662 201.236 79.4234 204.276 77.8379 205.004C77.6236 205.111 77.388 205.175 77.1309 205.175ZM81.0731 180.237C80.9445 180.237 80.8374 180.237 80.7089 180.259C77.3451 180.601 74.6241 184.732 73.21 188.5C71.7317 192.481 71.2603 200.059 76.2953 203.548C76.5952 203.762 77.0237 203.976 77.3023 203.848C78.2235 203.42 78.5878 200.145 78.8877 197.255C79.4234 192.353 80.0233 186.809 83.4941 186.038C84.6725 185.781 86.0437 185.182 85.8295 183.791C85.5724 182.142 83.2799 180.237 81.0731 180.237Z" fill="#16110D"/>
<path d="M223.187 258.326C213.181 264.02 204.654 262.757 197.005 264.683C191.713 266.032 189.035 272.154 184.9 279.111C210.567 278.126 234.22 269.264 253.482 254.837C253.31 253.745 253.053 252.675 252.625 251.626C247.611 238.889 233.214 252.632 223.187 258.326Z" fill="white"/>
<path d="M181.193 277.227L181.793 276.221C182.436 275.151 183.036 274.102 183.614 273.074C186.807 267.509 189.549 262.714 194.284 261.515C196.834 260.873 199.426 260.573 202.19 260.274C207.846 259.631 213.695 258.989 220.316 255.222C222.308 254.087 224.472 252.632 226.743 251.112C233.492 246.595 240.455 241.907 245.662 243.513C247.868 244.198 249.54 245.996 250.675 248.843C251.082 249.892 251.382 250.983 251.554 252.182L251.618 252.567L251.318 252.803C231.307 267.808 207.46 276.242 182.372 277.206L181.193 277.227ZM243.455 244.455C238.934 244.455 232.892 248.522 227.472 252.139C225.179 253.681 222.994 255.136 220.958 256.292C214.102 260.188 207.868 260.894 202.34 261.494C199.64 261.793 197.069 262.093 194.605 262.714C190.406 263.784 187.899 268.151 184.728 273.674C184.321 274.38 183.914 275.086 183.486 275.814C207.739 274.658 230.792 266.417 250.225 251.947C250.054 250.983 249.818 250.106 249.475 249.25C248.49 246.745 247.119 245.247 245.276 244.669C244.719 244.54 244.098 244.455 243.455 244.455Z" fill="#16110D"/>
<path d="M184.921 229.449C173.93 225.446 181.407 248.201 191.434 252.246C200.197 255.778 210.545 254.109 210.224 250.748C209.881 247.409 204.504 250.17 196.876 244.134C189.227 238.118 190.149 231.354 184.921 229.449Z" fill="white"/>
<path d="M199.126 252.311C195.848 252.311 192.098 251.711 188.606 250.298C180.957 247.216 174.53 233.666 176.672 228.101C177.165 226.816 178.601 224.868 182.564 226.302C185.371 227.33 186.549 229.62 187.92 232.275C189.335 235.015 190.92 238.118 194.691 241.094C198.676 244.241 201.975 244.904 204.354 245.396C206.432 245.803 208.06 246.146 208.274 248.158C208.339 248.757 208.167 249.656 207.053 250.491C205.532 251.626 202.597 252.311 199.126 252.311ZM180.057 227.052C178.451 227.052 178.043 228.122 177.893 228.529C176.179 233.002 181.836 246.146 189.12 249.078C196.233 251.947 203.925 251.219 206.325 249.421C206.839 249.035 207.075 248.65 207.032 248.243C206.925 247.28 206.368 247.066 204.139 246.617C201.761 246.146 198.162 245.418 193.92 242.079C189.934 238.932 188.199 235.55 186.806 232.853C185.521 230.327 184.492 228.336 182.157 227.48C181.279 227.18 180.593 227.052 180.057 227.052Z" fill="#16110D"/>
<path d="M239.32 233.431C232.871 227.694 243.969 218.297 249.775 218.875C255.582 219.474 255.003 225.104 251.446 230.691C247.911 236.299 242.919 236.642 239.32 233.431Z" fill="white"/>
<path d="M241.719 233.559C239.834 233.559 237.949 232.789 236.342 231.354C234.135 229.385 233.599 226.773 234.821 223.948C236.813 219.431 243.091 215.257 247.269 215.685C249.99 215.964 251.168 217.269 251.682 218.34C252.839 220.694 252.004 224.397 249.411 228.486C247.569 231.397 245.233 233.11 242.684 233.474C242.384 233.538 242.041 233.559 241.719 233.559ZM246.647 216.948C242.984 216.948 237.691 220.651 235.999 224.483C234.97 226.816 235.378 228.807 237.199 230.412C238.806 231.847 240.712 232.489 242.534 232.232C244.719 231.932 246.733 230.391 248.361 227.822C250.675 224.162 251.489 220.844 250.568 218.918C250.032 217.804 248.875 217.162 247.161 216.97C246.99 216.948 246.819 216.948 246.647 216.948Z" fill="#16110D"/>
<path d="M276.535 179.638C275.786 176.277 280.842 173.216 283.499 173.152C287.034 173.066 285.727 166.174 288.255 166.452C290.783 166.73 292.369 178.482 286.605 182.164C281.935 185.161 277.65 184.668 276.535 179.638Z" fill="white"/>
<path d="M278.742 182.1C277.992 182.1 277.285 181.971 276.643 181.714C274.971 181.029 273.836 179.488 273.322 177.24C273.043 176.02 273.407 174.715 274.35 173.516C276.021 171.375 279.042 170.027 280.906 169.984C282.213 169.962 282.642 168.635 283.156 166.602C283.563 164.953 284.056 163.091 285.748 163.284C286.82 163.391 287.698 164.632 288.212 166.794C289.091 170.476 288.812 177.347 284.377 180.173C282.385 181.436 280.435 182.1 278.742 182.1ZM274.586 176.941C274.993 178.782 275.85 179.98 277.135 180.516C278.828 181.222 281.142 180.687 283.691 179.06C287.355 176.705 287.805 170.626 286.97 167.051C286.541 165.275 285.92 164.547 285.62 164.525C285.063 164.483 284.784 165.382 284.399 166.88C283.927 168.785 283.327 171.183 280.949 171.225C279.406 171.268 276.75 172.531 275.378 174.286C274.671 175.185 274.393 176.085 274.586 176.941Z" fill="#16110D"/>
<path d="M258.281 127.771C242.319 127.771 222.222 122.313 202.447 111.589C165.339 91.4458 143.185 60.2147 153.105 41.9556C155.869 36.8824 160.754 33.222 167.631 31.1242L167.91 31.0814C171.423 30.8245 174.53 30.6747 177.379 30.6747C225.779 30.6747 270.001 59.1658 290.033 103.24L290.14 103.454L290.162 103.69C290.397 107.907 289.605 111.717 287.805 115.035C283.156 123.576 272.315 127.771 258.281 127.771ZM168.252 33.6073C162.125 35.5124 157.775 38.7447 155.376 43.1757C146.12 60.1933 167.802 89.8618 203.69 109.341C239.577 128.82 276.3 130.811 285.555 113.815C287.098 110.989 287.784 107.714 287.612 104.075C267.944 61.0281 224.708 33.2434 177.401 33.2434C174.637 33.2434 171.638 33.3718 168.252 33.6073Z" fill="#16110D"/>
<path d="M239.341 225.896C238.591 225.896 237.841 225.896 237.091 225.874C210.074 225.403 179.65 216.691 151.391 201.343C123.174 186.038 99.413 165.339 84.5011 143.055C70.0605 121.478 66.0539 101.228 73.5313 87.4857L74.924 85.0669C98.0632 50.9888 136.35 30.6747 177.422 30.6747C245.619 30.6747 301.11 86.1157 301.11 154.25C301.11 171.867 297.446 188.928 290.205 204.961L289.605 206.288L289.433 206.181C281.742 218.768 263.659 225.896 239.341 225.896ZM177.379 33.2434C137.164 33.2434 99.6701 53.1294 77.0665 86.4368L75.7381 88.7487C68.7535 101.592 72.7172 120.879 86.6007 141.642C101.277 163.562 124.716 183.983 152.569 199.096C180.465 214.23 210.503 222.835 237.091 223.306C262.309 223.777 280.82 216.648 287.805 203.784L288.105 203.227C294.982 187.729 298.475 171.247 298.475 154.25C298.518 87.5285 244.162 33.2434 177.379 33.2434Z" fill="#16110D"/>
<path d="M301.067 154.25C301.067 86.1157 245.576 30.6747 177.379 30.6747C109.183 30.6747 53.6917 86.1157 53.6917 154.25C53.6917 165.039 55.0843 175.528 57.6982 185.503H57.6767C57.6767 185.503 57.6982 185.567 57.7196 185.61C71.646 238.611 120.003 277.826 177.358 277.826C196.662 277.826 214.959 273.374 231.264 265.454C231.35 265.432 231.414 265.411 231.435 265.411V265.39C272.615 245.311 301.067 203.034 301.067 154.25ZM229.271 65.3307C219.373 59.9578 214.809 52.53 216.759 48.9338C217.659 47.2856 220.016 46.3437 223.251 46.3437C227.022 46.3437 232.014 47.6067 237.327 50.4965C247.226 55.8693 251.789 63.2972 249.84 66.8933C247.89 70.4681 239.17 70.6822 229.271 65.3307ZM177.379 275.258C125.937 275.258 81.8872 243.042 64.3614 197.769C73.5743 211.982 93.7782 235.978 133.351 255.457C156.447 266.824 178.772 269.928 196.255 269.928C204.697 269.928 212.024 269.2 217.766 268.344C205.147 272.817 191.542 275.258 177.379 275.258ZM230.343 263.078C226.4 264.255 182.243 276.67 134.508 253.167C77.4522 225.082 61.3619 187.729 60.1835 184.818C57.6339 175.057 56.2627 164.825 56.2627 154.272C56.2627 87.5499 110.597 33.2648 177.379 33.2648C195.441 33.2648 212.581 37.2463 227.986 44.353C221.644 43.0901 216.438 44.1818 214.488 47.7351C211.553 53.1508 217.487 61.863 228.029 67.5997C233.492 70.5537 238.934 72.0521 243.348 72.0521C247.461 72.0521 250.654 70.7464 252.068 68.1349C253.717 65.1166 252.582 61.0709 249.432 57.0895C279.171 79.1589 298.475 114.5 298.475 154.272C298.518 202.007 270.665 243.406 230.343 263.078Z" fill="#16110D"/>
<path d="M13.5626 133.444L3.70703 158.339L37.366 200.701L47.2216 175.806L13.5626 133.444Z" fill="#849BAF"/>
<path d="M15.6409 166.709L10.5846 160.351C9.53474 159.045 9.27764 156.519 9.98467 154.721L12.62 148.043C13.327 146.245 14.7411 145.859 15.7909 147.165L20.8473 153.523C21.8971 154.828 22.1542 157.354 21.4472 159.152L18.8119 165.831C18.1048 167.629 16.6908 168.014 15.6409 166.709Z" fill="#849BAF"/>
<path d="M16.0694 169.384L11.013 163.027C9.96321 161.721 9.70611 159.195 10.4131 157.397L13.0484 150.718C13.7555 148.92 15.1695 148.535 16.2194 149.841L21.2757 156.198C22.3256 157.504 22.5827 160.03 21.8756 161.828L19.2403 168.507C18.5333 170.305 17.1192 170.69 16.0694 169.384Z" fill="white"/>
<path d="M15.3623 166.923L10.5845 160.929C9.32038 159.345 8.9133 156.519 9.64176 154.636L12.4485 147.508C13.1983 145.624 14.8267 145.388 16.0907 146.972L20.8686 152.966C22.1327 154.55 22.5397 157.376 21.8113 159.259L19.0046 166.388C18.2547 168.271 16.605 168.507 15.3623 166.923ZM15.7908 147.743C14.8267 146.523 13.5626 146.716 12.9841 148.15L10.1774 155.278C9.59891 156.733 9.92029 158.917 10.9058 160.137L15.6622 166.131C16.6264 167.351 17.8905 167.158 18.4689 165.724L21.2757 158.596C21.8541 157.14 21.5328 154.957 20.5472 153.737L15.7908 147.743Z" fill="#16110D"/>
<path d="M18.4262 159.859C18.5762 160.051 18.769 159.987 18.8119 159.709C19.1118 157.804 18.6191 155.513 17.4835 154.101C16.3908 152.688 14.9982 152.624 14.0983 153.758C13.9698 153.908 14.0126 154.272 14.1626 154.465L18.4262 159.859Z" fill="#849BAF"/>
<path d="M18.1263 158.96L13.8627 153.587C13.7127 153.394 13.6056 153.095 13.5841 152.773C13.5627 152.474 13.627 152.217 13.7555 152.046C14.7625 150.761 16.3266 150.911 17.5264 152.41C18.7262 153.908 19.3261 156.455 18.9833 158.617C18.9404 158.896 18.8333 159.088 18.6619 159.152C18.4905 159.238 18.2977 159.152 18.1263 158.96ZM14.2055 152.859L18.4048 158.146C18.6405 156.477 18.1477 154.422 17.1836 153.202C16.2623 152.024 15.0411 151.874 14.2055 152.859Z" fill="#16110D"/>
<path d="M13.3698 160.736C12.9199 160.158 12.7485 159.131 13.027 158.446L13.1984 157.996L13.7126 158.66L13.5412 159.11C13.4341 159.366 13.4984 159.752 13.6698 159.966C13.8412 160.18 14.0554 160.158 14.1625 159.902L15.8766 155.556L16.3908 156.22L14.6982 160.544C14.4196 161.229 13.8412 161.314 13.3698 160.736Z" fill="#16110D"/>
<path d="M79.3377 170.861L47.2213 175.806L13.5623 133.444L45.6786 128.499L79.3377 170.861Z" fill="#849BAF"/>
<path d="M77.7095 175.656L45.5931 180.601L11.9341 138.239L44.0505 133.294L77.7095 175.656Z" fill="white"/>
<path d="M45.9573 127.75L13.0482 132.823L2.91406 158.467L37.0659 201.45L69.975 196.398L80.1091 170.754L45.9573 127.75ZM37.173 199.331L4.49953 158.232L13.7552 134.814L23.8036 147.465L46.4287 175.935L37.173 199.331ZM25.1963 146.994L14.8265 133.958L45.3788 129.27L78.0523 170.39L47.4999 175.078L25.1963 146.994Z" fill="#16110D"/>
<path d="M53.9276 174.008L23.2896 135.584L33.4237 134.107L63.9975 172.467L53.9276 174.008Z" fill="#849BAF"/>
<path d="M58.1698 174.864L23.4824 131.325L35.202 129.612L69.868 173.173L58.1698 174.864ZM26.0534 132.352L58.7483 173.387L67.297 172.146L34.6021 131.089L26.0534 132.352Z" fill="#16110D"/>
<path d="M52.2563 186.059L57.1413 173.687L58.7053 173.494L54.4417 184.261L63.0332 182.934L67.2754 172.21L68.8395 172.017L64.0402 184.154L52.2563 186.059Z" fill="#849BAF"/>
<path d="M32.6735 175.72C31.238 179.359 28.1099 179.809 25.6888 176.748C23.2678 173.687 22.4536 168.271 23.8891 164.654C25.3246 161.015 28.4527 160.565 30.8737 163.626C33.2948 166.687 34.1089 172.103 32.6735 175.72Z" fill="white"/>
<path d="M24.8963 174.586C21.9396 170.861 20.954 164.226 22.6895 159.795C24.4463 155.364 28.2815 154.807 31.2381 158.532C34.1948 162.256 35.1804 168.892 33.4449 173.323C31.6881 177.733 27.853 178.311 24.8963 174.586ZM30.8953 159.409C28.26 156.091 24.8534 156.605 23.3108 160.544C21.7468 164.482 22.6252 170.369 25.2605 173.687C27.8958 177.005 31.3024 176.491 32.845 172.552C34.3876 168.614 33.5092 162.727 30.8953 159.409Z" fill="#16110D"/>
<path d="M25.6892 172.552C23.5038 169.791 22.7753 164.889 24.0609 161.614C25.3464 158.339 28.1959 157.932 30.3813 160.672C32.5667 163.434 33.2951 168.335 32.0096 171.611C30.7241 174.886 27.8745 175.314 25.6892 172.552ZM30.0385 161.571C28.1745 159.238 25.7749 159.581 24.6822 162.363C23.5895 165.146 24.2108 169.299 26.0534 171.632C27.9174 173.965 30.317 173.623 31.4097 170.84C32.5024 168.079 31.8811 163.926 30.0385 161.571Z" fill="#16110D"/>
<path d="M267.901 208.878V225.639L299.975 244.133V227.394L267.901 208.878Z" fill="#849BAF"/>
<path d="M364.336 190.276L299.975 227.394L267.901 208.878L332.263 171.76L364.336 190.276Z" fill="#849BAF"/>
<path d="M364.336 196.056L299.975 233.174L267.901 214.679L332.263 177.54L364.336 196.056Z" fill="white"/>
<path d="M332.263 170.99L267.237 208.493V226.003L299.975 244.883L365 207.38V189.87L332.263 170.99ZM299.311 242.999L268.544 225.254V210.034L299.311 227.779V242.999ZM269.208 208.878L332.241 172.51L363.008 190.255L299.975 226.623L269.208 208.878Z" fill="#16110D"/>
<path d="M299.975 244.133L300.125 253.317L269.636 235.742V226.623L299.975 244.133Z" fill="#849BAF"/>
<path d="M299.975 243.363L268.973 225.489V236.128L300.125 254.087L361.937 218.425V207.636L299.975 243.363ZM270.301 235.357V227.779L299.332 244.519L299.461 252.161L270.301 235.357Z" fill="#16110D"/>
<path d="M299.632 244.39V242.892L361.594 207.166L361.615 208.685L299.632 244.39Z" fill="#849BAF"/>
<path d="M290.355 248.457L288.705 238.118V220.78L353.388 183.576L354.031 184.711L290.012 221.529V238.011L291.662 248.265L290.355 248.457Z" fill="#16110D"/>
<path d="M308.931 221.465L277.864 203.527L278.528 202.371L310.259 220.694L308.931 221.465Z" fill="#16110D"/>
<path d="M308.052 249.506L306.531 250.384L308.952 237.605L308.931 221.465L310.259 220.673V237.712L308.052 249.506Z" fill="#849BAF"/>
<path d="M309.552 210.376C309.273 209.52 308.566 208.407 306.638 208.065C304.153 207.594 301.818 210.055 300.318 212.132C300.339 211.511 300.339 210.847 300.275 210.205C300.103 208.3 297.382 205.282 295.09 205.004C294.319 204.918 292.926 205.046 292.262 207.016C290.912 210.912 296.504 214.315 298.389 215.343L298.239 215.621L299.097 215.706L299.739 216.028L299.782 215.792C300.682 215.878 302.032 215.963 303.424 215.963C305.46 215.963 307.538 215.749 308.309 214.979C309.338 213.973 310.066 211.982 309.552 210.376ZM293.547 207.444C293.869 206.481 294.383 206.309 294.769 206.309C294.833 206.309 294.897 206.309 294.961 206.331C296.697 206.545 298.861 209.092 298.989 210.334C299.118 211.704 298.968 213.159 298.818 214.058C296.525 212.774 292.648 209.991 293.547 207.444ZM307.409 214.015C306.788 214.636 303.467 214.722 300.382 214.486C301.646 212.367 304.196 208.964 306.402 209.37C307.409 209.563 308.052 210.034 308.288 210.783C308.631 211.853 308.117 213.33 307.409 214.015Z" fill="#16110D"/>
<path d="M335.884 189.442L328.92 193.466C327.485 194.301 324.978 194.194 323.307 193.23L317.137 189.677C315.487 188.714 315.294 187.28 316.729 186.445L323.693 182.42C325.128 181.586 327.635 181.693 329.306 182.656L335.477 186.209C337.126 187.173 337.319 188.607 335.884 189.442Z" fill="#849BAF"/>
<path d="M336.055 189.763L329.477 193.551C327.742 194.558 324.914 194.558 323.157 193.551L316.579 189.763C314.844 188.757 314.844 187.13 316.579 186.124L323.157 182.335C324.892 181.329 327.721 181.329 329.477 182.335L336.055 186.124C337.79 187.13 337.79 188.757 336.055 189.763ZM317.286 186.53C315.937 187.301 315.937 188.564 317.286 189.335L323.864 193.123C325.214 193.894 327.399 193.894 328.728 193.123L335.305 189.335C336.655 188.564 336.655 187.301 335.305 186.53L328.728 182.742C327.378 181.971 325.192 181.971 323.864 182.742L317.286 186.53Z" fill="#16110D"/>
<path d="M329.542 185.717C329.756 185.588 329.713 185.396 329.456 185.31C327.635 184.732 325.3 184.904 323.757 185.781C322.214 186.68 321.936 188.007 322.922 189.056C323.05 189.206 323.414 189.227 323.629 189.099L329.542 185.717Z" fill="white"/>
<path d="M328.62 185.867L322.729 189.27C322.514 189.399 322.193 189.463 321.893 189.42C321.593 189.399 321.357 189.292 321.207 189.142C320.093 187.965 320.479 186.466 322.129 185.503C323.778 184.54 326.371 184.326 328.428 184.968C328.685 185.053 328.856 185.182 328.899 185.353C328.942 185.567 328.835 185.76 328.62 185.867ZM322.064 188.821L327.871 185.46C326.264 184.989 324.185 185.16 322.836 185.931C321.55 186.702 321.229 187.879 322.064 188.821Z" fill="#16110D"/>
<path d="M325.321 187.365L329.328 189.677C329.756 189.934 329.756 190.34 329.328 190.597C328.899 190.854 328.192 190.854 327.742 190.597L327.335 190.362L325.321 187.365Z" fill="#849BAF"/>
<path d="M329.692 190.811C329.049 191.175 328.021 191.175 327.399 190.811L326.992 190.576L327.721 190.169L328.128 190.405C328.363 190.533 328.749 190.533 328.985 190.405C329.22 190.276 329.22 190.041 328.985 189.912L324.978 187.601L325.707 187.194L329.713 189.506C330.313 189.848 330.313 190.426 329.692 190.811Z" fill="#16110D"/>
<path d="M320.543 201.6C318.208 201.6 315.872 201.086 314.072 200.059C312.251 199.01 311.244 197.576 311.244 196.035C311.244 194.493 312.251 193.081 314.072 192.01C317.629 189.955 323.435 189.955 326.992 192.01C328.813 193.059 329.82 194.493 329.82 196.035C329.82 197.576 328.813 198.989 326.992 200.059C325.214 201.086 322.878 201.6 320.543 201.6ZM320.543 191.475C318.379 191.475 316.215 191.946 314.587 192.888C313.087 193.744 312.251 194.879 312.251 196.035C312.251 197.19 313.087 198.325 314.587 199.181C317.886 201.086 323.221 201.086 326.521 199.181C328.02 198.325 328.856 197.19 328.856 196.035C328.856 194.857 328.02 193.744 326.521 192.888C324.849 191.946 322.685 191.475 320.543 191.475Z" fill="#16110D"/>
<path d="M320.543 200.08C318.893 200.08 317.222 199.716 315.958 198.988C314.651 198.218 313.923 197.19 313.923 196.056C313.923 194.921 314.651 193.894 315.958 193.123C318.486 191.668 322.6 191.668 325.128 193.123C326.435 193.873 327.163 194.921 327.163 196.056C327.163 197.19 326.435 198.218 325.128 198.988C323.842 199.716 322.193 200.08 320.543 200.08ZM320.543 193.016C319.065 193.016 317.586 193.337 316.451 194.001C315.444 194.579 314.908 195.307 314.908 196.077C314.908 196.827 315.465 197.576 316.451 198.154C318.7 199.459 322.364 199.459 324.614 198.154C325.621 197.576 326.156 196.848 326.156 196.077C326.156 195.328 325.599 194.579 324.614 194.001C323.5 193.337 322.021 193.016 320.543 193.016Z" fill="#16110D"/>
<path d="M94.8496 188.757L98.9632 211.49L147.084 228.743L142.971 206.01L94.8496 188.757Z" fill="#849BAF"/>
<path d="M172.28 180.986L142.971 206.01L94.8496 188.757L124.159 163.733L172.28 180.986Z" fill="#849BAF"/>
<path d="M173.694 188.842L144.385 213.866L96.2637 196.613L125.573 171.589L173.694 188.842Z" fill="white"/>
<path d="M123.966 162.684L93.864 188.414L98.1705 212.196L147.277 229.813L177.401 204.105L173.094 180.323L123.966 162.684ZM145.906 227.351L99.7774 210.805L96.028 190.148L142.156 206.695L145.906 227.351ZM96.6493 188.435L124.352 164.761L170.481 181.307L142.778 204.982L96.6493 188.435Z" fill="#16110D"/>
<path d="M147.084 228.743L149.527 241.201L103.805 224.804L101.577 212.431L147.084 228.743Z" fill="#849BAF"/>
<path d="M146.891 227.715L100.399 211.04L103.013 225.489L149.72 242.25L175.944 219.838L173.287 205.175L146.891 227.715ZM104.619 224.119L102.755 213.823L146.291 229.428L148.327 239.788L104.619 224.119Z" fill="#16110D"/>
<path d="M146.699 229.192L146.334 227.159L172.73 204.597L173.116 206.652L146.699 229.192Z" fill="#849BAF"/>
<path d="M153.683 195.756L107.062 179.017L107.683 177.304L155.29 194.386L153.683 195.756Z" fill="#16110D"/>
<path d="M159.382 234.073L157.518 235.635L157.668 217.676L153.683 195.778L155.29 194.365L159.468 217.505L159.382 234.073Z" fill="#849BAF"/>
<path d="M151.669 179.937C151.091 178.824 149.848 177.519 147.148 177.497C143.635 177.476 141.085 181.393 139.564 184.582C139.457 183.726 139.285 182.827 139.05 181.971C138.343 179.424 133.908 175.999 130.737 176.191C129.665 176.256 127.823 176.791 127.394 179.616C126.516 185.246 134.957 188.5 137.764 189.42L137.636 189.827L138.814 189.741L139.778 189.998L139.8 189.656C141.042 189.549 142.906 189.356 144.77 189.013C147.513 188.521 150.298 187.729 151.155 186.488C152.269 184.861 152.762 181.992 151.669 179.937ZM129.194 179.873C129.408 178.482 130.03 178.118 130.587 178.032C130.672 178.011 130.758 178.011 130.844 178.011C133.243 177.861 136.821 180.815 137.293 182.463C137.807 184.304 137.957 186.316 137.978 187.558C134.572 186.381 128.637 183.555 129.194 179.873ZM149.655 185.417C148.97 186.402 144.492 187.344 140.228 187.772C141.406 184.604 144.063 179.338 147.148 179.338C148.562 179.338 149.548 179.83 150.041 180.794C150.791 182.164 150.448 184.283 149.655 185.417Z" fill="#16110D"/>
<path d="M143.078 195.564C142.371 195.692 141.578 195.671 140.7 195.435C138.171 194.772 138.514 192.652 138.707 191.518C138.793 190.961 138.9 190.341 138.728 190.126C138.621 189.977 138.279 189.848 137.829 189.784C136.05 189.549 134.658 189.848 133.672 190.662C132.194 191.882 132.044 193.915 132.044 193.915L130.223 193.808C130.223 193.701 130.394 190.983 132.494 189.249C133.886 188.093 135.772 187.665 138.086 187.964C139.093 188.093 139.778 188.435 140.207 189.013C140.85 189.87 140.678 190.897 140.528 191.796C140.293 193.209 140.378 193.444 141.192 193.658C143.956 194.386 145.327 191.882 145.37 191.775L146.977 192.652C146.442 193.658 145.092 195.2 143.078 195.564Z" fill="#16110D"/>
<path d="M17.5045 22.5404L13.3909 38.9373L40.2581 64.9239L44.3717 48.5271L17.5045 22.5404Z" fill="#849BAF"/>
<path d="M71.4531 40.6497L44.3716 48.5271L17.5044 22.5404L44.5859 14.6844L71.4531 40.6497Z" fill="#849BAF"/>
<path d="M70.039 46.3222L42.9575 54.1782L16.0688 28.2129L43.1503 20.3356L70.039 46.3222Z" fill="white"/>
<path d="M44.7576 13.9352L16.9476 22.0052L12.6626 39.1513L40.0869 65.6731L67.9182 57.6031L72.2033 40.4571L44.7576 13.9352ZM39.894 63.6396L14.1195 38.7232L17.8475 23.8247L43.6006 48.7197L39.894 63.6396ZM18.7902 22.8615L44.3933 15.4122L70.1465 40.3072L44.5433 47.7564L18.7902 22.8615Z" fill="#16110D"/>
<path d="M40.2581 64.9239L38.137 73.9571L12.5981 49.2548L14.8478 40.35L40.2581 64.9239Z" fill="#849BAF"/>
<path d="M40.4509 64.1747L14.4835 39.0657L11.8696 49.4689L37.9655 74.685L62.1975 67.621L64.8542 57.0466L40.4509 64.1747ZM13.348 49.0622L15.212 41.6344L39.5296 65.138L37.7727 72.6514L13.348 49.0622Z" fill="#16110D"/>
<path d="M39.8726 65.0952L40.2368 63.6182L64.6401 56.5328L64.2759 58.0098L39.8726 65.0952Z" fill="#849BAF"/>
<path d="M54.5915 44.9095L28.5598 19.7362L29.5025 18.7729L56.0912 44.4813L54.5915 44.9095Z" fill="#16110D"/>
<path d="M46.8571 72.1591L45.1431 72.6514L50.6493 60.707L54.5916 44.9095L56.0914 44.46L51.9134 61.1565L46.8571 72.1591Z" fill="#849BAF"/>
<path d="M58.0408 33.7571C57.998 32.8367 57.548 31.5951 55.7698 30.7817C53.4344 29.7114 50.5634 31.5523 48.5923 33.222C48.7637 32.6226 48.9351 31.9804 49.0422 31.3168C49.3422 29.4117 47.4139 25.7941 45.25 24.9593C44.5215 24.681 43.1289 24.467 41.9933 26.2223C39.7223 29.7114 44.3501 34.4207 45.957 35.8763L45.7428 36.1117L46.5569 36.4114L47.114 36.8823L47.2211 36.6469C48.0781 36.9466 49.385 37.3747 50.7348 37.7172C52.7274 38.2095 54.8056 38.5092 55.7483 37.9526C56.9481 37.2248 58.1265 35.4482 58.0408 33.7571ZM43.0646 26.95C43.6217 26.0938 44.1573 26.0296 44.5429 26.1366C44.6072 26.158 44.6715 26.1794 44.7358 26.2008C46.3855 26.8216 47.8853 29.8612 47.6924 31.1028C47.4782 32.4728 46.964 33.8641 46.6212 34.7204C44.6929 32.9009 41.5863 29.2405 43.0646 26.95ZM55.0413 36.7967C54.2914 37.2463 51.0134 36.5185 48.0567 35.5338C49.8135 33.7785 53.1559 31.06 55.2127 31.9804C56.1554 32.4085 56.6696 33.0293 56.7125 33.8213C56.7767 34.9772 55.8983 36.283 55.0413 36.7967Z" fill="#16110D"/>
<path d="M47.5854 41.5915C47.0712 41.4631 46.557 41.2062 46.0428 40.7995C44.5645 39.6008 45.4215 38.295 45.8928 37.5886C46.1071 37.2461 46.3642 36.8608 46.3213 36.6682C46.2999 36.5397 46.1071 36.3471 45.8286 36.1758C44.7144 35.4909 43.686 35.2554 42.7862 35.5123C41.415 35.8548 40.7079 37.1605 40.7079 37.1819L39.5295 36.5611C39.5724 36.4969 40.4937 34.7416 42.4005 34.2065C43.686 33.864 45.0572 34.1423 46.5142 35.0199C47.1355 35.4052 47.4997 35.8548 47.6068 36.3685C47.7782 37.1177 47.3497 37.7599 46.9855 38.3164C46.407 39.1941 46.3856 39.3653 46.8784 39.772C48.5067 41.0992 50.1564 39.8362 50.2422 39.772L51.0777 40.8209C50.4136 41.3346 49.0423 41.9554 47.5854 41.5915Z" fill="#16110D"/>
<path d="M220.616 246.574L184.343 210.269L231.457 197.64L267.73 233.923L220.616 246.574Z" fill="#849BAF"/>
<path d="M184.343 210.269L173.116 252.203L209.389 288.508L220.616 246.574L184.343 210.269Z" fill="#849BAF"/>
<path d="M219.223 251.775L182.95 215.471L230.064 202.842L266.337 239.124L219.223 251.775Z" fill="white"/>
<path d="M231.778 197.319L231.585 197.126L183.957 209.905L172.602 252.332L209.239 289L256.61 276.285L256.867 276.221L268.223 233.794L231.778 197.319ZM209.153 287.63L173.63 252.075L184.579 211.147L211.403 237.797L220.123 246.702L209.153 287.63ZM185.221 210.505L231.328 198.132L266.851 233.687L220.744 246.06L185.221 210.505Z" fill="#16110D"/>
<path d="M244.634 239.895L208.553 203.548L209.389 203.098L245.619 239.617L244.634 239.895Z" fill="#16110D"/>
<path d="M234.178 282.022L233.171 282.279L244.548 239.809L245.555 239.531L234.178 282.022Z" fill="#849BAF"/>
<path d="M221.173 229.021L211.788 231.547L219.951 239.681L229.336 237.155L221.173 229.021ZM220.487 237.284L215.881 232.703L220.658 231.418L225.265 235.999L220.487 237.284Z" fill="#849BAF"/>
<path d="M220.337 237.776L215.023 232.467L220.787 230.926L226.1 236.235L220.337 237.776ZM216.737 232.938L220.615 236.813L224.408 235.785L220.53 231.911L216.737 232.938Z" fill="#16110D"/>
<path d="M219.823 240.173L210.953 231.311L221.323 228.529L230.193 237.391L219.823 240.173ZM212.645 231.761L220.08 239.189L228.479 236.941L221.044 229.513L212.645 231.761Z" fill="#16110D"/>
<path d="M191.242 270.013L190.363 269.778L201.547 227.993L201.804 227.929L249.475 215.557L249.711 216.434L202.297 228.743L191.242 270.013Z" fill="#16110D"/>
<path d="M259.781 222.813C259.674 219.281 258.389 216.798 255.968 215.385C248.919 211.297 234.264 217.633 228.993 220.159C230.086 218.425 231.543 215.15 232.443 209.306C233.428 202.97 229.422 197.083 224.987 195.028C221.516 193.444 218.131 194.129 215.688 196.955C209.753 203.848 223.594 218.468 226.465 221.379C225.03 222.621 223.808 222.15 222.266 221.55C221.087 221.079 219.738 220.544 218.238 220.972C214.895 221.936 213.096 225.018 213.01 225.146L213.803 225.596C213.824 225.575 215.517 222.706 218.495 221.85C219.695 221.507 220.766 221.936 221.923 222.385C223.487 223.006 225.244 223.691 227.129 222.021L227.236 222.128L227.343 222.043C227.365 222.043 227.386 222.064 227.408 222.064C227.708 222.235 228.179 222.492 228.822 222.813C229.829 223.52 230.836 224.676 230.772 226.516C230.707 228.486 231.436 230.22 232.828 231.418C233.493 231.975 234.264 232.36 235.078 232.596C235.999 232.831 236.963 232.874 237.949 232.66L237.756 231.761C236.171 232.103 234.585 231.718 233.407 230.712C232.228 229.706 231.607 228.229 231.671 226.538C231.714 225.489 231.457 224.633 231.071 223.926C234.521 225.596 239.727 227.908 244.762 229.256C249.476 230.519 254.061 230.947 256.889 229.214C258.903 228.036 259.888 225.853 259.781 222.813ZM216.374 197.554C218.195 195.435 220.637 194.665 223.23 195.35C223.68 195.478 224.151 195.628 224.601 195.842C228.736 197.747 232.464 203.227 231.543 209.135C230.322 217.034 228.072 220.052 227.279 220.887C225.008 218.618 210.91 203.912 216.374 197.554ZM256.439 228.464C250.247 232.232 234.328 224.611 229.165 221.978C228.865 221.786 228.586 221.636 228.329 221.507C232.143 219.624 248.404 212.025 255.539 216.156C257.66 217.398 258.796 219.645 258.881 222.835C258.967 225.575 258.153 227.415 256.439 228.464Z" fill="#16110D"/>
<path d="M187.45 261.215L181.536 255.307C180.315 254.087 179.737 251.54 180.251 249.613L182.158 242.464C182.672 240.537 184.086 239.981 185.307 241.179L191.221 247.087C192.442 248.308 193.02 250.855 192.506 252.781L190.599 259.931C190.085 261.879 188.671 262.435 187.45 261.215Z" fill="white"/>
<path d="M186.443 259.139L180.851 253.552C179.372 252.075 178.601 249.228 179.158 247.216L181.193 239.595C181.729 237.583 183.379 237.134 184.857 238.611L190.449 244.198C191.927 245.675 192.699 248.522 192.142 250.534L190.106 258.154C189.571 260.188 187.921 260.616 186.443 259.139ZM184.643 239.467C183.507 238.332 182.243 238.675 181.815 240.216L179.779 247.837C179.372 249.399 179.951 251.583 181.086 252.717L186.678 258.304C187.814 259.439 189.078 259.096 189.506 257.555L191.542 249.934C191.949 248.372 191.37 246.188 190.235 245.054L184.643 239.467Z" fill="#16110D"/>
<path d="M189.164 252.439L187.578 245.974C187.471 245.546 187.171 245.247 186.935 245.332L183.293 246.574C183.143 246.616 183.164 246.959 183.314 247.13L184.493 248.308C184.664 248.479 184.75 248.8 184.686 249.014L183.529 253.316C183.464 253.531 183.55 253.852 183.722 254.001L185.757 256.035C185.907 256.185 186.1 256.142 186.143 255.928L187.3 251.625C187.364 251.39 187.535 251.347 187.707 251.518L188.885 252.696C189.078 252.888 189.228 252.717 189.164 252.439Z" fill="#849BAF"/>
<path d="M185.286 255.115L183.25 253.081C182.929 252.76 182.757 252.118 182.865 251.668L184.022 247.366L182.843 246.188C182.65 245.996 182.522 245.653 182.5 245.332C182.479 245.011 182.608 244.754 182.779 244.711L186.421 243.47C186.614 243.406 186.85 243.491 187.043 243.684C187.257 243.898 187.407 244.198 187.492 244.562L189.078 251.026C189.164 251.347 189.121 251.668 188.971 251.84C188.821 252.011 188.607 251.989 188.414 251.797L187.235 250.619L186.1 254.922C185.971 255.35 185.607 255.436 185.286 255.115ZM183.336 245.632L184.236 246.531C184.579 246.873 184.75 247.516 184.621 247.965L183.465 252.268L185.5 254.258L186.635 249.956C186.764 249.506 187.128 249.399 187.471 249.742L188.371 250.641L186.914 244.647C186.893 244.562 186.85 244.519 186.828 244.497C186.807 244.476 186.764 244.433 186.721 244.454L183.336 245.632Z" fill="#16110D"/>
<path d="M207.032 273.224L205.275 272.753L205.404 272.282C205.725 271.083 206.861 269.949 208.061 269.628L209.003 269.371C209.753 269.178 210.417 269.307 210.889 269.778C211.339 270.227 211.489 270.912 211.296 271.64C211.296 271.661 211.274 271.683 211.274 271.704C211.296 271.704 211.317 271.704 211.339 271.683L212.367 271.404C212.924 271.255 213.588 270.591 213.738 270.034C214.06 268.836 215.195 267.701 216.395 267.38L217.274 267.145C218.023 266.952 218.688 267.08 219.138 267.551C219.587 268.001 219.737 268.686 219.545 269.414C219.545 269.435 219.523 269.457 219.523 269.478C219.545 269.478 219.566 269.478 219.587 269.456L220.337 269.264C220.894 269.114 221.559 268.45 221.709 267.894C222.03 266.695 223.165 265.561 224.365 265.24L225.244 265.004C225.994 264.811 226.658 264.94 227.129 265.411C227.579 265.86 227.729 266.545 227.536 267.273L227.365 267.894L225.608 267.423L225.779 266.802C225.779 266.781 225.801 266.759 225.801 266.738C225.779 266.738 225.758 266.738 225.736 266.759L224.858 266.995C224.301 267.145 223.637 267.808 223.487 268.365C223.165 269.564 222.03 270.698 220.83 271.019L220.08 271.212C219.352 271.404 218.666 271.276 218.216 270.805C217.766 270.356 217.616 269.671 217.809 268.943C217.809 268.921 217.831 268.9 217.831 268.879C217.809 268.879 217.788 268.879 217.766 268.9L216.888 269.135C216.331 269.285 215.667 269.949 215.517 270.505C215.195 271.704 214.06 272.839 212.86 273.16L211.832 273.438C211.103 273.631 210.417 273.502 209.968 273.031C209.518 272.582 209.368 271.897 209.56 271.148C209.56 271.126 209.582 271.105 209.582 271.083C209.56 271.083 209.539 271.083 209.518 271.105L208.575 271.362C208.018 271.511 207.354 272.175 207.204 272.732L207.032 273.224Z" fill="white"/>
<path d="M119.639 141.065L61.8335 106.301L106.077 81.8346L163.903 116.576L119.639 141.065Z" fill="#849BAF"/>
<path d="M61.8334 106.302L61.0193 151.318L118.846 186.06L119.639 141.065L61.8334 106.302Z" fill="#849BAF"/>
<path d="M119.553 146.63L61.7263 111.888L105.991 87.4001L163.796 122.163L119.553 146.63Z" fill="white"/>
<path d="M106.334 81.4279L106.098 81.2994L61.362 106.023L60.5479 151.553L118.824 186.573L163.325 161.957L163.56 161.828L164.374 116.298L106.334 81.4279ZM118.396 185.225L61.4906 151.04L62.2833 107.115L90.2646 123.918L119.189 141.3L118.396 185.225ZM62.7547 106.323L106.055 82.3697L162.939 116.555L119.66 140.508L62.7547 106.323Z" fill="#16110D"/>
<path d="M73.8529 155.642L68.1967 152.238C67.0397 151.532 66.097 149.691 66.1398 148.128L66.247 142.285C66.2684 140.722 67.2539 140.016 68.4109 140.701L74.0672 144.104C75.2241 144.81 76.1668 146.651 76.124 148.214L76.0169 154.058C75.974 155.62 75.0099 156.327 73.8529 155.642Z" fill="white"/>
<path d="M72.6745 154.229L67.3182 151.018C65.9042 150.162 64.7686 148.128 64.8115 146.48L64.9186 140.251C64.94 138.603 66.1184 137.961 67.5325 138.795L72.8888 142.006C74.3028 142.863 75.4384 144.896 75.3955 146.544L75.2884 152.773C75.267 154.443 74.0886 155.085 72.6745 154.229ZM67.5325 139.48C66.4398 138.817 65.5399 139.331 65.5185 140.594L65.4114 146.823C65.39 148.086 66.247 149.67 67.3397 150.312L72.696 153.523C73.7886 154.186 74.6885 153.672 74.7099 152.41L74.817 146.18C74.8385 144.918 73.9815 143.333 72.8888 142.691L67.5325 139.48Z" fill="#16110D"/>
<path d="M72.9961 147.957C73.1675 148.064 73.296 147.957 73.2532 147.743C72.9318 146.202 71.9034 144.597 70.6393 143.847C69.3966 143.098 68.3039 143.441 67.9397 144.554C67.8969 144.704 68.0254 144.982 68.1968 145.067L72.9961 147.957Z" fill="#849BAF"/>
<path d="M72.5247 147.358L67.7254 144.468C67.554 144.361 67.3826 144.168 67.2755 143.933C67.1684 143.719 67.1469 143.483 67.2112 143.334C67.6183 142.071 68.8395 141.728 70.1893 142.542C71.5391 143.355 72.7175 145.11 73.0817 146.844C73.1246 147.058 73.0817 147.251 72.996 147.336C72.8675 147.465 72.6961 147.465 72.5247 147.358ZM67.7897 143.826L72.5032 146.673C72.2033 145.324 71.2391 143.912 70.1679 143.248C69.118 142.606 68.1325 142.841 67.7897 143.826Z" fill="#16110D"/>
<path d="M69.3964 150.076C68.8822 149.777 68.4751 149.027 68.4751 148.428V148.043L69.0536 148.385V148.771C69.0536 148.985 69.2036 149.263 69.3964 149.391C69.5892 149.498 69.7392 149.413 69.7606 149.199L69.8249 145.41L70.4034 145.752L70.3391 149.541C70.3391 150.162 69.9106 150.397 69.3964 150.076Z" fill="#16110D"/>
<path d="M86.3651 163.155L80.7089 159.752C79.5519 159.045 78.6092 157.204 78.652 155.642L78.7592 149.798C78.7806 148.235 79.7662 147.529 80.9231 148.214L86.5794 151.618C87.7363 152.324 88.679 154.165 88.6362 155.727L88.5291 161.571C88.5076 163.155 87.5221 163.862 86.3651 163.155Z" fill="white"/>
<path d="M85.1867 161.764L79.8304 158.553C78.4164 157.697 77.2808 155.663 77.3237 154.015L77.4308 147.786C77.4522 146.138 78.6306 145.496 80.0447 146.33L85.401 149.541C86.8151 150.397 87.9506 152.431 87.9077 154.079L87.8006 160.308C87.7792 161.957 86.6008 162.599 85.1867 161.764ZM80.0447 147.015C78.952 146.352 78.0521 146.865 78.0307 148.128L77.9236 154.358C77.9022 155.62 78.7592 157.204 79.8519 157.847L85.2082 161.058C86.3008 161.721 87.2007 161.207 87.2221 159.944L87.3293 153.715C87.3507 152.452 86.4937 150.868 85.401 150.226L80.0447 147.015Z" fill="#16110D"/>
<path d="M86.0009 156.113L83.5584 151.446C83.387 151.147 83.1085 150.975 82.9371 151.083L80.3875 152.731C80.2803 152.795 80.366 153.052 80.516 153.159L81.6516 153.844C81.8015 153.929 81.9301 154.165 81.9301 154.358L81.8658 157.868C81.8658 158.039 81.9944 158.275 82.1443 158.361L84.094 159.538C84.244 159.623 84.3726 159.559 84.3726 159.388L84.4368 155.877C84.4368 155.685 84.5654 155.621 84.7368 155.706L85.8723 156.391C86.0223 156.455 86.108 156.306 86.0009 156.113Z" fill="#849BAF"/>
<path d="M83.537 158.874L81.5873 157.697C81.2659 157.504 81.0302 157.055 81.0302 156.691L81.0945 153.18L79.959 152.495C79.7661 152.388 79.6162 152.153 79.5305 151.917C79.4662 151.682 79.4876 151.468 79.6162 151.382L82.1658 149.734C82.2943 149.648 82.4871 149.67 82.7014 149.777C82.8942 149.905 83.087 150.098 83.2156 150.355L85.6581 155.021C85.7866 155.257 85.808 155.513 85.7223 155.663C85.6366 155.813 85.4652 155.835 85.2938 155.727L84.1583 155.043L84.094 158.553C84.1155 158.917 83.8369 159.067 83.537 158.874ZM80.2375 151.981L81.0945 152.495C81.4159 152.688 81.673 153.159 81.673 153.523L81.6087 157.033L83.537 158.168L83.5798 154.657C83.5798 154.293 83.8584 154.143 84.1797 154.336L85.0367 154.85L82.7657 150.526C82.7442 150.462 82.7014 150.44 82.68 150.419C82.6585 150.397 82.6157 150.397 82.5943 150.419L80.2375 151.981Z" fill="#16110D"/>
<path d="M101.577 97.2896L92.7285 102.17L103.013 108.356L111.861 103.476L101.577 97.2896ZM102.948 105.809L97.1421 102.32L101.641 99.8368L107.448 103.326L102.948 105.809Z" fill="#849BAF"/>
<path d="M102.927 106.344L96.2207 102.32L101.641 99.3231L108.347 103.347L102.927 106.344ZM98.0633 102.341L102.948 105.274L106.526 103.305L101.641 100.372L98.0633 102.341Z" fill="#16110D"/>
<path d="M102.991 108.892L91.8074 102.17L101.577 96.7758L112.761 103.497L102.991 108.892ZM93.6499 102.191L103.034 107.821L110.94 103.433L101.556 97.8247L93.6499 102.191Z" fill="#16110D"/>
<path d="M87.0724 108.784C84.9085 108.742 82.7659 108.228 81.1376 107.265C79.4665 106.259 78.5666 104.931 78.588 103.519C78.6094 102.106 79.5522 100.8 81.2662 99.8583C84.5871 98.0174 89.9434 98.1244 93.2 100.072C94.8712 101.078 95.771 102.406 95.7282 103.818C95.7068 105.231 94.7641 106.537 93.05 107.479C91.4003 108.378 89.2149 108.827 87.0724 108.784ZM87.2224 99.4301C85.2298 99.3873 83.2159 99.794 81.6947 100.65C80.302 101.421 79.5093 102.448 79.4879 103.519C79.4665 104.589 80.2163 105.638 81.5876 106.473C84.5871 108.271 89.5363 108.356 92.6001 106.665C93.9928 105.895 94.7855 104.867 94.8069 103.797C94.8283 102.727 94.0785 101.678 92.7072 100.843C91.2075 99.9439 89.2364 99.473 87.2224 99.4301Z" fill="#16110D"/>
<path d="M87.0939 107.372C85.5727 107.35 84.0301 106.986 82.8731 106.28C81.6733 105.552 81.0091 104.589 81.0305 103.54C81.052 102.491 81.7376 101.549 82.9588 100.864C85.3156 99.5586 89.1078 99.6228 91.4218 101.014C92.6216 101.742 93.2858 102.705 93.2643 103.754C93.2429 104.803 92.5573 105.745 91.3361 106.43C90.1577 107.093 88.6151 107.393 87.0939 107.372ZM87.201 100.843C85.8298 100.822 84.4586 101.1 83.4087 101.678C82.4874 102.192 81.9518 102.855 81.9518 103.562C81.9304 104.268 82.4446 104.953 83.3445 105.488C85.4013 106.73 88.7865 106.794 90.8861 105.616C91.8074 105.103 92.3431 104.439 92.3431 103.733C92.3645 103.026 91.8503 102.341 90.9504 101.806C89.922 101.185 88.5722 100.864 87.201 100.843Z" fill="#16110D"/>
<path d="M145.092 105.852L101.77 129.677L89.7292 122.441L133.051 98.5953L145.092 105.852Z" fill="#849BAF"/>
<path d="M98.3206 128.692L85.3369 120.9L130.523 96.0267L143.506 103.818L98.3206 128.692ZM87.2223 120.922L98.342 127.6L141.621 103.776L130.501 97.097L87.2223 120.922Z" fill="#16110D"/>
<path d="M89.0218 123.212L88.7004 141.107L100.741 148.642L101.063 130.469L89.0218 123.212Z" fill="#849BAF"/>
<path d="M98.4488 147.165L85.4866 139.052L85.8294 120.108L98.8131 127.9L98.4488 147.165ZM86.4293 138.517L97.549 145.474L97.8489 128.392L86.7292 121.714L86.4293 138.517Z" fill="#16110D"/>
<path d="M106.848 165.895L94.9138 158.746L95.2566 140.208L107.169 147.379L106.848 165.895Z" fill="#849BAF"/>
<path d="M107.191 166.559L94.5283 158.96L94.8711 139.587L107.533 147.187L107.191 166.559ZM95.2996 158.532L106.484 165.253L106.805 147.593L95.621 140.872L95.2996 158.532Z" fill="#16110D"/>
<path d="M105.648 163.455L97.8064 158.746L98.0421 145.517L105.884 150.226L105.648 163.455Z" fill="white"/>
<path d="M105.198 162.684L96.6279 157.526L96.885 143.419L105.455 148.578L105.198 162.684ZM97.3778 157.119L104.47 161.379L104.684 149.006L97.5921 144.746L97.3778 157.119Z" fill="#16110D"/>
<path d="M107.362 169.384C104.212 167.501 101.706 162.963 101.77 159.302C101.834 155.62 104.448 154.186 107.598 156.07C110.747 157.954 113.254 162.492 113.19 166.152C113.125 169.834 110.511 171.268 107.362 169.384ZM107.576 156.819C104.77 155.128 102.456 156.434 102.391 159.688C102.327 162.941 104.555 166.966 107.362 168.657C110.169 170.348 112.483 169.042 112.547 165.788C112.611 162.513 110.383 158.489 107.576 156.819Z" fill="#16110D"/>
<path d="M107.383 167.715C105.048 166.323 103.205 162.963 103.248 160.266C103.291 157.547 105.241 156.477 107.555 157.889C109.89 159.281 111.733 162.642 111.69 165.339C111.647 168.036 109.719 169.106 107.383 167.715ZM107.555 158.596C105.584 157.419 103.934 158.318 103.891 160.629C103.848 162.941 105.434 165.767 107.405 166.966C109.376 168.143 111.026 167.244 111.068 164.932C111.09 162.642 109.526 159.795 107.555 158.596Z" fill="#16110D"/>
<path d="M142.135 128.349L84.5012 93.5007L85.2297 92.8372L143.078 127.814L142.135 128.349Z" fill="#16110D"/>
<path d="M142.156 173.344L141.214 173.858L142.028 128.264L142.97 127.75L142.156 173.344Z" fill="#849BAF"/>
</g>
<defs>
<clipPath id="clip0">
<rect width="365" height="289" fill="white"/>
</clipPath>
</defs>
</svg>
