<svg width="94" height="104" viewBox="0 0 94 104" fill="none" xmlns="http://www.w3.org/2000/svg">
<path d="M2.93161 55.1219L1.87371 55.654C1.74147 55.654 1.60923 55.654 1.47699 55.654L0.551327 55.1219C0.419089 54.9889 0.419089 54.9889 0.551327 54.8558L1.60923 54.3237C1.74147 54.3237 1.87371 54.3237 2.00594 54.3237L2.93161 54.8558C3.06385 54.8558 3.06385 54.9889 2.93161 55.1219Z" fill="black"/>
<path d="M5.4443 53.6585L4.3864 54.1906C4.25416 54.1906 4.12192 54.1906 3.98969 54.1906L3.06402 53.6585C2.93178 53.5255 2.93178 53.5255 3.06402 53.3924L4.12192 52.8604C4.25416 52.8604 4.3864 52.8604 4.51864 52.8604L5.4443 53.3924C5.57654 53.3924 5.57654 53.5255 5.4443 53.6585Z" fill="black"/>
<path d="M5.4443 56.5848L4.3864 57.1169C4.25416 57.1169 4.12192 57.1169 3.98969 57.1169L3.06402 56.5848C2.93178 56.4517 2.93178 56.4517 3.06402 56.3187L4.12192 55.7866C4.25416 55.7866 4.3864 55.7866 4.51864 55.7866L5.4443 56.3187C5.57654 56.3187 5.57654 56.4517 5.4443 56.5848Z" fill="black"/>
<path d="M2.93161 58.0481L1.87371 58.5802C1.74147 58.5802 1.60923 58.5802 1.47699 58.5802L0.551327 58.0481C0.419089 57.9151 0.419089 57.9151 0.551327 57.7821L1.47699 57.25C1.60923 57.25 1.74147 57.25 1.87371 57.25L2.79937 57.7821C3.06385 57.7821 3.06385 57.9151 2.93161 58.0481Z" fill="black"/>
<path d="M7.95651 55.1219L6.89861 55.654C6.76637 55.654 6.63413 55.654 6.50189 55.654L5.57623 55.1219C5.44399 54.9889 5.44399 54.9889 5.57623 54.8558L6.63413 54.3237C6.76637 54.3237 6.89861 54.3237 7.03085 54.3237L7.95651 54.8558C8.08875 54.8558 8.08875 54.9889 7.95651 55.1219Z" fill="black"/>
<path d="M7.82443 57.9151L6.76653 58.5802C6.63429 58.5802 6.50205 58.5802 6.36981 58.5802L5.44415 58.0481C5.31191 57.9151 5.31191 57.9151 5.44415 57.7821L6.50205 57.25C6.63429 57.25 6.76653 57.25 6.89877 57.25L7.82443 57.7821C7.95667 57.7821 7.95667 57.9151 7.82443 57.9151Z" fill="black"/>
<path d="M5.31198 59.3787L4.25408 59.9108C4.12184 59.9108 3.9896 59.9108 3.85736 59.9108L2.9317 59.3787C2.79946 59.2457 2.79946 59.2457 2.9317 59.1127L3.85736 58.5806C3.9896 58.5806 4.12184 58.5806 4.25408 58.5806L5.17974 59.1127C5.44422 59.2457 5.44422 59.3787 5.31198 59.3787Z" fill="black"/>
<path d="M10.2048 59.3787L9.1469 59.9108C9.01466 59.9108 8.88242 59.9108 8.75019 59.9108L7.82452 59.3787C7.69228 59.2457 7.69228 59.2457 7.82452 59.1127L8.88242 58.5806C9.01466 58.5806 9.1469 58.5806 9.27914 58.5806L10.2048 59.1127C10.337 59.1127 10.337 59.2457 10.2048 59.3787Z" fill="black"/>
<path d="M7.69211 60.7088L6.6342 61.2409C6.50197 61.2409 6.36973 61.2409 6.23749 61.2409L5.31182 60.7088C5.17959 60.5758 5.17959 60.5758 5.31182 60.4427L6.23749 59.9106C6.36973 59.9106 6.50197 59.9106 6.6342 59.9106L7.55987 60.4427C7.82434 60.5758 7.82434 60.7088 7.69211 60.7088Z" fill="black"/>
<path d="M12.7175 57.9153L11.6596 58.4474C11.5274 58.4474 11.3951 58.4474 11.2629 58.4474L10.3372 57.9153C10.205 57.7823 10.205 57.7823 10.3372 57.6493L11.3951 57.1172C11.5274 57.1172 11.6596 57.1172 11.7918 57.1172L12.7175 57.6493C12.8497 57.6493 12.8497 57.7823 12.7175 57.9153Z" fill="black"/>
<path d="M15.2297 56.452L14.1718 56.9841C14.0396 56.9841 13.9073 56.9841 13.7751 56.9841L12.8494 56.452C12.7172 56.3189 12.7172 56.3189 12.8494 56.1859L13.9073 55.6538C14.0396 55.6538 14.1718 55.6538 14.304 55.6538L15.2297 56.1859C15.3619 56.1859 15.3619 56.3189 15.2297 56.452Z" fill="black"/>
<path d="M12.7175 60.8418L11.6596 61.3739C11.5274 61.3739 11.3951 61.3739 11.2629 61.3739L10.3372 60.8418C10.205 60.7088 10.205 60.7088 10.3372 60.5758L11.3951 59.9106C11.5274 59.9106 11.6596 59.9106 11.7918 59.9106L12.7175 60.4427C12.8497 60.5758 12.8497 60.7088 12.7175 60.8418Z" fill="black"/>
<path d="M10.2048 62.1722L9.1469 62.7043C9.01466 62.7043 8.88242 62.7043 8.75019 62.7043L7.82452 62.1722C7.69228 62.0391 7.69228 62.0391 7.82452 61.9061L8.88242 61.374C9.01466 61.374 9.1469 61.374 9.27914 61.374L10.2048 61.9061C10.337 62.0391 10.337 62.1722 10.2048 62.1722Z" fill="black"/>
<path d="M15.2297 59.3787L14.1718 59.9108C14.0396 59.9108 13.9073 59.9108 13.7751 59.9108L12.8494 59.3787C12.7172 59.2457 12.7172 59.2457 12.8494 59.1127L13.9073 58.5806C14.0396 58.5806 14.1718 58.5806 14.304 58.5806L15.2297 59.1127C15.3619 59.1127 15.3619 59.2457 15.2297 59.3787Z" fill="black"/>
<path d="M17.7424 57.9153L16.6845 58.4474C16.5523 58.4474 16.42 58.4474 16.2878 58.4474L15.3621 57.9153C15.2299 57.7823 15.2299 57.7823 15.3621 57.6493L16.42 57.1172C16.5523 57.1172 16.6845 57.1172 16.8167 57.1172L17.7424 57.6493C17.8746 57.6493 17.8746 57.7823 17.7424 57.9153Z" fill="black"/>
<path d="M15.0976 62.1722L14.0397 62.7043C13.9075 62.7043 13.7752 62.7043 13.643 62.7043L12.7173 62.1722C12.5851 62.0391 12.5851 62.0391 12.7173 61.9061L13.7752 61.374C13.9075 61.374 14.0397 61.374 14.172 61.374L15.0976 61.9061C15.2299 62.0391 15.2299 62.0391 15.0976 62.1722Z" fill="black"/>
<path d="M17.6101 60.7088L16.5522 61.2409C16.4199 61.2409 16.2877 61.2409 16.1555 61.2409L15.2298 60.7088C15.0976 60.5758 15.0976 60.5758 15.2298 60.4427L16.2877 59.9106C16.4199 59.9106 16.5522 59.9106 16.6844 59.9106L17.6101 60.4427C17.7423 60.5758 17.7423 60.7088 17.6101 60.7088Z" fill="black"/>
<path d="M18.8002 43.5484C16.5521 39.8238 14.0396 41.6861 13.5106 42.2182C13.5106 42.2182 13.3784 42.2182 13.3784 42.0852C12.8495 41.154 10.3369 36.2321 8.08889 37.2963L4.38623 39.4247V39.5577L7.03099 44.0805L10.6014 53.9243L9.67575 54.3233V56.3187L9.80798 56.4517L13.5106 54.3233L18.139 50.5987C18.139 50.4656 21.7094 48.3373 18.8002 43.5484Z" fill="white"/>
<path d="M9.67564 56.8511C9.54341 56.8511 9.41117 56.8511 9.41117 56.718C9.27893 56.585 9.14669 56.452 9.14669 56.1859V53.7915L9.94012 53.6585L6.63417 44.3468L3.85718 39.691V39.425C3.85718 39.2919 3.98942 39.1589 4.12165 39.0259L7.95655 36.8975C10.4691 35.7003 12.7171 39.558 13.775 41.4203C14.304 41.0212 15.2296 40.6222 16.2875 40.7552C17.4777 40.8882 18.5356 41.8194 19.329 43.2826C22.5027 48.4706 18.5356 50.998 18.5356 50.998L13.775 54.7227L10.0724 56.8511C9.94012 56.8511 9.80788 56.8511 9.67564 56.8511ZM10.0724 54.7227V55.6538L13.1138 53.9245L17.7422 50.1999C17.8744 50.0668 20.7836 48.2045 18.2711 43.9478C17.6099 42.7505 16.6843 42.0854 15.8908 41.9524C14.8329 41.8194 14.0395 42.4845 13.775 42.6175L13.6428 42.7505H13.3783C13.2461 42.7505 12.9816 42.6175 12.9816 42.3515C12.0559 40.3561 9.94012 37.1636 8.35327 37.8287L4.91508 39.691L7.4276 44.0808L11.1303 54.4566L10.0724 54.7227Z" fill="black"/>
<path d="M15.0976 46.0764C15.0976 46.0764 13.3785 45.9434 13.114 46.0764C12.8495 46.0764 9.14687 47.6727 9.14687 47.6727L8.61792 48.8699L10.4692 54.0578L9.54359 54.3239V56.3192L9.67582 56.4523L13.3785 54.3239L18.0068 50.5992C18.0068 50.5992 21.3128 48.4708 18.8002 44.0811L15.0976 46.0764Z" fill="#849BAF"/>
<path d="M9.67581 56.8511C9.54357 56.8511 9.41133 56.8511 9.41133 56.7181C9.27909 56.5851 9.14686 56.4521 9.14686 56.186V53.7916L9.94028 53.6586L8.22119 48.8697L8.88238 47.2734L9.01462 47.1404C10.7337 46.4753 12.7173 45.5441 13.114 45.5441C13.3785 45.5441 14.4364 45.5441 15.0976 45.5441L19.3292 43.2827L19.5936 43.6818C22.2384 48.4706 18.668 50.8651 18.5357 50.8651L13.6429 54.7228L9.94028 56.8511C9.80805 56.8511 9.67581 56.8511 9.67581 56.8511ZM10.0725 54.7228V55.6539L13.114 53.9246L17.7423 50.1999C17.8746 50.0669 20.3871 48.4706 18.668 44.746L15.2298 46.6083H14.9653C14.1719 46.6083 13.2462 46.4753 13.114 46.6083C12.8495 46.6083 10.8659 47.5395 9.54357 48.0716L9.14686 49.0027L11.1304 54.4567L10.0725 54.7228Z" fill="black"/>
<path d="M10.3369 43.9478L13.3783 42.2184V42.0854C13.1138 41.5533 12.4527 40.2231 11.527 39.0259L7.69209 41.2873L6.50195 43.5487L6.89867 44.3468L7.42762 45.9431L8.75 47.0073L10.3369 43.9478Z" fill="#849BAF"/>
<path d="M9.01453 47.5392L7.03096 46.0759L6.36977 44.3466L5.84082 43.4155L7.1632 40.755L11.527 38.2275L11.9238 38.6266C12.9817 39.8238 13.6429 41.4201 13.9073 41.8192C14.0396 41.9522 13.9073 42.2182 13.9073 42.3513V42.4843L10.8659 44.2136L9.01453 47.5392ZM7.95663 45.4108L8.61782 45.9429L9.94019 43.4155L12.7172 41.8192C12.4527 41.2871 11.9238 40.3559 11.2626 39.5578L7.95663 41.4201L7.03096 43.2824L7.42767 43.9476L7.95663 45.4108Z" fill="black"/>
<path d="M14.9651 45.6768C12.7171 41.9522 10.2046 43.8145 9.67563 44.3466C9.67563 44.3466 9.54339 44.3466 9.54339 44.2136C9.01444 43.2824 6.50192 38.3605 4.25388 39.4247C1.34465 40.888 4.91507 47.1401 4.91507 47.1401L9.54339 56.3187L9.67563 56.4518L14.304 52.7271C14.304 52.7271 17.8744 50.4657 14.9651 45.6768Z" fill="#849BAF"/>
<path d="M9.80788 56.984H9.54341C9.41117 56.984 9.1467 56.851 9.1467 56.5849L4.38613 47.4063C4.2539 47.2733 2.00585 43.0165 2.79928 40.6221C3.06375 39.957 3.46047 39.4249 4.12166 39.1588C4.91508 38.7598 6.3697 38.7598 8.08879 40.8881C8.88222 41.8193 9.54341 43.0165 9.94012 43.6816C10.4691 43.2826 11.3947 42.8835 12.4526 43.0165C13.6428 43.1495 14.7007 44.0807 15.4941 45.544C18.6678 50.7319 14.7007 53.2593 14.7007 53.2593L9.80788 56.984ZM4.91508 39.824C4.78285 39.824 4.65061 39.824 4.38613 39.957C3.98942 40.09 3.72494 40.4891 3.59271 40.8881C3.06375 42.6175 4.51837 45.81 5.17956 46.8742L9.54341 55.6538L13.775 52.1952C13.9073 52.0621 16.8165 50.1998 14.304 45.943C13.6428 44.7458 12.7171 44.0807 11.9237 43.9477C10.8658 43.8147 10.0724 44.4798 9.80788 44.6128L9.67565 44.7458H9.41117C9.27893 44.7458 9.01446 44.6128 9.01446 44.3468C8.74998 43.9477 8.08879 42.4844 7.16313 41.2872C6.63418 40.6221 5.70851 39.824 4.91508 39.824Z" fill="black"/>
<path d="M7.92087 47.7632L6.98071 48.251L9.58728 53.3344L10.5274 52.8465L7.92087 47.7632Z" fill="black"/>
<path d="M8.75 42.6176L12.5849 40.4893L13.3783 42.2186L9.54343 44.2139L8.75 42.6176Z" fill="black"/>
<path d="M15.0977 52.1951L17.0812 51.397L19.197 49.8007L19.8582 47.9384V46.2091L19.5937 45.5439L16.0233 47.5393L16.2878 48.8695L15.7588 50.5988L15.0977 52.1951Z" fill="black"/>
<path d="M22.5031 47.9383L21.4452 47.8052C21.7097 45.9429 21.0485 44.4796 20.9163 44.4796L21.8419 44.0806C21.9742 44.0806 22.7676 45.8099 22.5031 47.9383Z" fill="black"/>
<path d="M16.2876 75.0755L15.2297 75.6076C15.0974 75.6076 14.9652 75.6076 14.8329 75.6076L13.9073 75.0755C13.775 74.9425 13.775 74.9425 13.9073 74.8094L14.9652 74.2773C15.0974 74.2773 15.2297 74.2773 15.3619 74.2773L16.2876 74.8094C16.4198 74.9425 16.4198 75.0755 16.2876 75.0755Z" fill="black"/>
<path d="M17.8746 72.814L18.8003 73.3461C18.9325 73.4791 18.9325 73.4791 18.8003 73.6121L17.7424 74.1442C17.6101 74.1442 17.4779 74.1442 17.3456 74.1442L16.42 73.6121C16.2877 73.4791 16.2877 73.4791 16.42 73.3461L17.4779 72.814C17.6101 72.814 17.7424 72.814 17.8746 72.814Z" fill="black"/>
<path d="M15.6265 71.6167L16.5522 72.1488C16.6845 72.2818 16.6845 72.2818 16.5522 72.4148L15.4943 72.9469C15.3621 72.9469 15.2298 72.9469 15.0976 72.9469L14.1719 72.4148C14.0397 72.2818 14.0397 72.2818 14.1719 72.1488L15.2298 71.6167C15.2298 71.6167 15.4943 71.6167 15.6265 71.6167Z" fill="black"/>
<path d="M13.2462 70.4196L14.1718 70.9517C14.3041 71.0847 14.3041 71.0847 14.1718 71.2177L13.1139 71.7498C12.9817 71.7498 12.8495 71.7498 12.7172 71.7498L11.7916 71.2177C11.6593 71.0847 11.6593 71.0847 11.7916 70.9517L12.8495 70.4196C12.9817 70.2866 13.1139 70.2866 13.2462 70.4196Z" fill="black"/>
<path d="M15.6265 69.089L16.5522 69.6211C16.6845 69.7541 16.6845 69.7541 16.5522 69.8872L15.4943 70.4193C15.3621 70.4193 15.2298 70.4193 15.0976 70.4193L14.1719 69.8872C14.0397 69.7541 14.0397 69.7541 14.1719 69.6211L15.2298 69.089C15.2298 68.956 15.4943 68.956 15.6265 69.089Z" fill="black"/>
<path d="M12.9818 72.814L13.9074 73.3461C14.0397 73.4791 14.0397 73.4791 13.9074 73.6121L12.8495 74.1442C12.7173 74.1442 12.5851 74.1442 12.4528 74.1442L11.5272 73.6121C11.3949 73.4791 11.3949 73.4791 11.5272 73.3461L12.5851 72.814C12.7173 72.814 12.8495 72.814 12.9818 72.814Z" fill="black"/>
<path d="M18.7999 76.5384L17.742 77.0705C17.6098 77.0705 17.4776 77.0705 17.3453 77.0705L16.2874 76.5384C16.1552 76.4053 16.1552 76.4053 16.2874 76.2723L17.3453 75.7402C17.4776 75.7402 17.6098 75.7402 17.742 75.7402L18.6677 76.2723C18.7999 76.2723 18.7999 76.4053 18.7999 76.5384Z" fill="black"/>
<path d="M21.3125 75.0755L20.2546 75.6076C20.1223 75.6076 19.9901 75.6076 19.8579 75.6076L18.9322 75.0755C18.7999 74.9425 18.7999 74.9425 18.9322 74.8094L19.9901 74.2773C20.1223 74.2773 20.2546 74.2773 20.3868 74.2773L21.3125 74.8094C21.3125 74.8094 21.3125 74.9425 21.3125 75.0755Z" fill="black"/>
<path d="M21.1804 77.8687L20.1225 78.5339C19.9902 78.5339 19.858 78.5339 19.7258 78.5339L18.8001 78.0018C18.6679 77.8687 18.6679 77.8687 18.8001 77.7357L19.858 77.2036C19.9902 77.2036 20.1225 77.2036 20.2547 77.2036L21.1804 77.7357V77.8687Z" fill="black"/>
<path d="M23.6931 76.4056L22.6352 76.9377C22.5029 76.9377 22.3707 76.9377 22.2385 76.9377L21.3128 76.4056C21.1806 76.2725 21.1806 76.2725 21.3128 76.1395L22.3707 75.6074C22.5029 75.6074 22.6352 75.6074 22.7674 75.6074L23.6931 76.1395C23.6931 76.2725 23.6931 76.4056 23.6931 76.4056Z" fill="black"/>
<path d="M23.6931 79.3323L22.6352 79.8644C22.5029 79.8644 22.3707 79.8644 22.2385 79.8644L21.3128 79.3323C21.1806 79.1993 21.1806 79.1993 21.3128 79.0663L22.3707 78.5342C22.5029 78.5342 22.6352 78.5342 22.7674 78.5342L23.6931 79.0663C23.6931 79.1993 23.6931 79.3323 23.6931 79.3323Z" fill="black"/>
<path d="M26.2053 77.8687L25.1474 78.5339C25.0151 78.5339 24.8829 78.5339 24.7507 78.5339L23.825 78.0018C23.6928 77.8687 23.6928 77.8687 23.825 77.7357L24.8829 77.2036C25.0151 77.2036 25.1474 77.2036 25.2796 77.2036L26.2053 77.7357V77.8687Z" fill="black"/>
<path d="M26.0732 80.6624L25.0153 81.1945C24.8831 81.1945 24.7508 81.1945 24.6186 81.1945L23.6929 80.6624C23.5607 80.5294 23.5607 80.5294 23.6929 80.3964L24.7508 79.8643C24.8831 79.8643 25.0153 79.8643 25.1475 79.8643L26.0732 80.3964C26.0732 80.5294 26.0732 80.6624 26.0732 80.6624Z" fill="black"/>
<path d="M28.5857 79.3323L27.5278 79.8644C27.3955 79.8644 27.2633 79.8644 27.131 79.8644L26.2054 79.3323C26.0731 79.1993 26.0731 79.1993 26.2054 79.0663L27.2633 78.5342C27.3955 78.5342 27.5278 78.5342 27.66 78.5342L28.5857 79.0663C28.5857 79.0663 28.5857 79.1993 28.5857 79.3323Z" fill="black"/>
<path d="M28.4536 82.1258L27.3957 82.6579C27.2634 82.6579 27.1312 82.6579 26.999 82.6579L26.0733 82.1258C25.9411 81.9928 25.9411 81.9928 26.0733 81.8597L27.1312 81.3276C27.2634 81.3276 27.3957 81.3276 27.5279 81.3276L28.4536 81.8597C28.4536 81.9928 28.5858 81.9928 28.4536 82.1258Z" fill="black"/>
<path d="M30.966 80.6624L29.9081 81.1945C29.7759 81.1945 29.6437 81.1945 29.5114 81.1945L28.5858 80.6624C28.4535 80.5294 28.4535 80.5294 28.5858 80.3964L29.5114 79.8643C29.6437 79.8643 29.7759 79.8643 29.9081 79.8643L30.8338 80.3964C30.966 80.5294 31.0983 80.5294 30.966 80.6624Z" fill="black"/>
<path d="M30.966 83.5887L29.9081 84.1208C29.7759 84.1208 29.6437 84.1208 29.5114 84.1208L28.5858 83.5887C28.4535 83.4556 28.4535 83.4556 28.5858 83.3226L29.6437 82.7905C29.7759 82.7905 29.9081 82.7905 30.0404 82.7905L30.966 83.3226C31.0983 83.4556 31.0983 83.4556 30.966 83.5887Z" fill="black"/>
<path d="M33.4785 82.1258L32.4206 82.6579C32.2883 82.6579 32.1561 82.6579 32.0239 82.6579L31.0982 82.1258C30.966 81.9928 30.966 81.9928 31.0982 81.8597L32.1561 81.3276C32.2883 81.3276 32.4206 81.3276 32.5528 81.3276L33.4785 81.8597C33.6107 81.9928 33.6107 81.9928 33.4785 82.1258Z" fill="black"/>
<path d="M33.3464 84.9192L32.2885 85.4513C32.1563 85.4513 32.024 85.4513 31.8918 85.4513L30.9661 84.9192C30.8339 84.7862 30.8339 84.7862 30.9661 84.6532L32.024 84.1211C32.1563 84.1211 32.2885 84.1211 32.4207 84.1211L33.3464 84.6532C33.4786 84.7862 33.4786 84.9192 33.3464 84.9192Z" fill="black"/>
<path d="M35.8589 83.4559L34.801 84.121C34.6687 84.121 34.5365 84.121 34.4042 84.121L33.4786 83.4559C33.3463 83.3228 33.3463 83.3228 33.4786 83.1898L34.5365 82.6577C34.6687 82.6577 34.801 82.6577 34.9332 82.6577L35.8589 83.1898C35.9911 83.3228 35.9911 83.4559 35.8589 83.4559Z" fill="black"/>
<path d="M35.7268 86.3821L34.6689 86.9142C34.5366 86.9142 34.4044 86.9142 34.2722 86.9142L33.3465 86.3821C33.2143 86.2491 33.2143 86.2491 33.3465 86.1161L34.4044 85.584C34.5366 85.584 34.6689 85.584 34.8011 85.584L35.7268 86.1161C35.859 86.1161 35.859 86.2491 35.7268 86.3821Z" fill="black"/>
<path d="M38.2392 84.9192L37.1813 85.4513C37.0491 85.4513 36.9168 85.4513 36.7846 85.4513L35.8589 84.9192C35.7267 84.7862 35.7267 84.7862 35.8589 84.6532L36.9168 84.1211C37.0491 84.1211 37.1813 84.1211 37.3136 84.1211L38.2392 84.6532C38.3715 84.7862 38.3715 84.7862 38.2392 84.9192Z" fill="black"/>
<path d="M38.2392 87.8455L37.1813 88.3776C37.0491 88.3776 36.9168 88.3776 36.7846 88.3776L35.8589 87.8455C35.7267 87.7125 35.7267 87.7125 35.8589 87.5795L36.9168 87.0474C37.0491 87.0474 37.1813 87.0474 37.3136 87.0474L38.2392 87.5795C38.3715 87.7125 38.3715 87.7125 38.2392 87.8455Z" fill="black"/>
<path d="M40.7517 86.3821L39.6938 86.9142C39.5615 86.9142 39.4293 86.9142 39.2971 86.9142L38.3714 86.3821C38.2392 86.2491 38.2392 86.2491 38.3714 86.1161L39.4293 85.584C39.5615 85.584 39.6938 85.584 39.826 85.584L40.7517 86.1161C40.8839 86.2491 40.8839 86.2491 40.7517 86.3821Z" fill="black"/>
<path d="M40.6193 89.1756L39.5614 89.7077C39.4292 89.7077 39.297 89.7077 39.1647 89.7077L38.2391 89.1756C38.1068 89.0426 38.1068 89.0426 38.2391 88.9095L39.297 88.3774C39.4292 88.3774 39.5614 88.3774 39.6937 88.3774L40.6193 88.9095C40.7516 89.0426 40.7516 89.1756 40.6193 89.1756Z" fill="black"/>
<path d="M43.132 87.7127L42.0741 88.2448C41.9419 88.2448 41.8097 88.2448 41.6774 88.2448L40.7518 87.7127C40.6195 87.5797 40.6195 87.5797 40.7518 87.4466L41.8097 86.9146C41.9419 86.9146 42.0741 86.9146 42.2064 86.9146L43.132 87.4466C43.2643 87.5797 43.2643 87.7127 43.132 87.7127Z" fill="black"/>
<path d="M42.9997 90.639L41.9418 91.1711C41.8096 91.1711 41.6773 91.1711 41.5451 91.1711L40.6194 90.639C40.4872 90.5059 40.4872 90.5059 40.6194 90.3729L41.6773 89.8408C41.8096 89.8408 41.9418 89.8408 42.0741 89.8408L42.9997 90.3729C43.132 90.3729 43.132 90.5059 42.9997 90.639Z" fill="black"/>
<path d="M45.5122 89.1756L44.4543 89.7077C44.322 89.7077 44.1898 89.7077 44.0576 89.7077L43.1319 89.1756C42.9997 89.0426 42.9997 89.0426 43.1319 88.9095L44.1898 88.3774C44.322 88.3774 44.4543 88.3774 44.5865 88.3774L45.5122 88.9095C45.6444 88.9095 45.6444 89.0426 45.5122 89.1756Z" fill="black"/>
<path d="M45.5122 92.1023L44.4543 92.6344C44.322 92.6344 44.1898 92.6344 44.0576 92.6344L43.1319 92.1023C42.9997 91.9693 42.9997 91.9693 43.1319 91.8363L44.1898 91.3042C44.322 91.3042 44.4543 91.3042 44.5865 91.3042L45.5122 91.8363C45.6444 91.8363 45.6444 91.9693 45.5122 92.1023Z" fill="black"/>
<path d="M48.0249 90.639L46.967 91.1711C46.8347 91.1711 46.7025 91.1711 46.5703 91.1711L45.6446 90.639C45.5124 90.5059 45.5124 90.5059 45.6446 90.3729L46.7025 89.8408C46.8347 89.8408 46.967 89.8408 47.0992 89.8408L48.0249 90.3729C48.1571 90.3729 48.1571 90.5059 48.0249 90.639Z" fill="black"/>
<path d="M47.8923 93.4324L46.8344 93.9645C46.7022 93.9645 46.5699 93.9645 46.4377 93.9645L45.512 93.4324C45.3798 93.2994 45.3798 93.2994 45.512 93.1664L46.5699 92.6343C46.7022 92.6343 46.8344 92.6343 46.9666 92.6343L47.8923 93.1664C48.0245 93.2994 48.0245 93.4324 47.8923 93.4324Z" fill="black"/>
<path d="M50.405 91.9695L49.3471 92.6346C49.2149 92.6346 49.0826 92.6346 48.9504 92.6346L48.0247 91.9695C47.8925 91.8365 47.8925 91.8365 48.0247 91.7035L49.0826 91.1714C49.2149 91.1714 49.3471 91.1714 49.4793 91.1714L50.405 91.7035C50.5372 91.8365 50.5372 91.9695 50.405 91.9695Z" fill="black"/>
<path d="M50.2727 94.763L49.2148 95.2951C49.0825 95.2951 48.9503 95.2951 48.8181 95.2951L47.8924 94.763C47.7602 94.63 47.7602 94.63 47.8924 94.4969L48.9503 93.9648C49.0825 93.9648 49.2148 93.9648 49.347 93.9648L50.2727 94.4969C50.4049 94.63 50.4049 94.763 50.2727 94.763Z" fill="black"/>
<path d="M52.7854 93.2996L51.7275 93.8317C51.5952 93.8317 51.463 93.8317 51.3308 93.8317L50.4051 93.2996C50.2728 93.1666 50.2728 93.1666 50.4051 93.0336L51.463 92.5015C51.5952 92.5015 51.7275 92.5015 51.8597 92.5015L52.7854 93.0336C52.9176 93.1666 52.9176 93.2996 52.7854 93.2996Z" fill="black"/>
<path d="M52.7854 96.2259L51.7275 96.758C51.5952 96.758 51.463 96.758 51.3308 96.758L50.4051 96.2259C50.2728 96.0929 50.2728 96.0929 50.4051 95.9598L51.463 95.4277C51.5952 95.4277 51.7275 95.4277 51.8597 95.4277L52.7854 95.9598C52.9176 96.0929 52.9176 96.2259 52.7854 96.2259Z" fill="black"/>
<path d="M55.2978 94.763L54.2399 95.2951C54.1077 95.2951 53.9754 95.2951 53.8432 95.2951L52.9175 94.763C52.7853 94.63 52.7853 94.63 52.9175 94.4969L53.9754 93.9648C54.1077 93.9648 54.2399 93.9648 54.3722 93.9648L55.2978 94.4969C55.4301 94.63 55.4301 94.763 55.2978 94.763Z" fill="black"/>
<path d="M57.6782 96.2259L56.6203 96.758C56.488 96.758 56.3558 96.758 56.2236 96.758L55.2979 96.2259C55.1657 96.0929 55.1657 96.0929 55.2979 95.9598L56.3558 95.4277C56.488 95.4277 56.6203 95.4277 56.7525 95.4277L57.6782 95.9598C57.8104 96.0929 57.8104 96.0929 57.6782 96.2259Z" fill="black"/>
<path d="M21.3126 72.0156C21.4448 72.1486 21.4448 72.1486 21.3126 72.2817L20.2547 72.8138C20.1224 72.8138 19.9902 72.8138 19.858 72.8138L18.9323 72.1487C18.8001 72.1487 21.3126 72.0156 21.3126 72.0156Z" fill="black"/>
<path d="M26.2053 72.1487L25.1474 72.6808C25.0151 72.6808 24.8829 72.6808 24.7507 72.6808L23.825 72.1487C23.6928 72.0157 23.6928 72.0157 23.825 71.8827L24.8829 71.3506C25.0151 71.3506 25.1474 71.3506 25.2796 71.3506L26.2053 71.8827C26.3375 72.0157 26.3375 72.0157 26.2053 72.1487Z" fill="black"/>
<path d="M23.6931 73.6121L22.6352 74.1442C22.5029 74.1442 22.3707 74.1442 22.2385 74.1442L21.3128 73.6121C21.1806 73.4791 21.1806 73.4791 21.3128 73.3461L22.3707 72.814C22.5029 72.814 22.6352 72.814 22.7674 72.814L23.6931 73.3461C23.8253 73.3461 23.8253 73.4791 23.6931 73.6121Z" fill="black"/>
<path d="M28.7178 70.4194C28.8501 70.5525 28.8501 70.5525 28.7178 70.6855L27.6599 71.2176C27.5277 71.2176 27.3955 71.2176 27.2632 71.2176L26.3376 70.6855C26.2053 70.5525 28.7178 70.4194 28.7178 70.4194Z" fill="black"/>
<path d="M28.5857 73.4788L27.5278 74.0109C27.3955 74.0109 27.2633 74.0109 27.131 74.0109L26.2054 73.4788C26.0731 73.3458 26.0731 73.3458 26.2054 73.2128L27.2633 72.6807C27.3955 72.6807 27.5278 72.6807 27.66 72.6807L28.5857 73.2128C28.7179 73.3458 28.7179 73.4788 28.5857 73.4788Z" fill="black"/>
<path d="M26.0732 74.9422L25.0153 75.4743C24.8831 75.4743 24.7508 75.4743 24.6186 75.4743L23.6929 74.9422C23.5607 74.8092 23.5607 74.8092 23.6929 74.6761L24.7508 74.144C24.8831 74.144 25.0153 74.144 25.1475 74.144L26.0732 74.6761C26.2054 74.8092 26.2054 74.9422 26.0732 74.9422Z" fill="black"/>
<path d="M31.0984 72.0159L30.0405 72.548C29.9082 72.548 29.776 72.548 29.6437 72.548L28.7181 72.0159C28.5858 71.8829 28.5858 71.8829 28.7181 71.7499L29.776 71.2178C29.9082 71.2178 30.0405 71.2178 30.1727 71.2178L31.0984 71.7499C31.2306 71.8829 31.2306 72.0159 31.0984 72.0159Z" fill="black"/>
<path d="M33.6108 70.2866C33.743 70.4196 33.743 70.4196 33.6108 70.5527L32.5529 71.0848C32.4207 71.0848 32.2884 71.0848 32.1562 71.0848L31.2305 70.5527C31.0983 70.4196 31.0983 70.4196 31.2305 70.2866H33.6108Z" fill="black"/>
<path d="M31.2304 74.9422L30.1725 75.4743C30.0403 75.4743 29.9081 75.4743 29.7758 75.4743L28.8502 74.9422C28.7179 74.8092 28.7179 74.8092 28.8502 74.6761L29.9081 74.144C30.0403 74.144 30.1725 74.144 30.3048 74.144L31.2304 74.6761C31.2304 74.8092 31.2304 74.9422 31.2304 74.9422Z" fill="black"/>
<path d="M28.718 76.4056L27.6601 76.9377C27.5278 76.9377 27.3956 76.9377 27.2634 76.9377L26.3377 76.4056C26.2055 76.2725 26.2055 76.2725 26.3377 76.1395L27.3956 75.6074C27.5278 75.6074 27.6601 75.6074 27.7923 75.6074L28.718 76.1395C28.718 76.2725 28.718 76.4056 28.718 76.4056Z" fill="black"/>
<path d="M33.7429 73.4788L32.685 74.0109C32.5527 74.0109 32.4205 74.0109 32.2883 74.0109L31.3626 73.4788C31.2304 73.3458 31.2304 73.3458 31.3626 73.2128L32.4205 72.6807C32.5527 72.6807 32.685 72.6807 32.8172 72.6807L33.7429 73.2128C33.7429 73.3458 33.7429 73.4788 33.7429 73.4788Z" fill="black"/>
<path d="M36.2556 72.0159L35.1977 72.548C35.0654 72.548 34.9332 72.548 34.801 72.548L33.8753 72.0159C33.7431 71.8829 33.7431 71.8829 33.8753 71.7499L34.9332 71.2178C35.0654 71.2178 35.1977 71.2178 35.3299 71.2178L36.2556 71.7499C36.2556 71.8829 36.2556 72.0159 36.2556 72.0159Z" fill="black"/>
<path d="M38.636 70.4196C38.7682 70.4196 38.7682 70.5527 38.7682 70.5527L37.7103 71.0848C37.5781 71.0848 37.4458 71.0848 37.3136 71.0848L36.2557 70.5527C36.1234 70.4196 36.1234 70.4196 36.2557 70.2866L38.636 70.4196Z" fill="black"/>
<path d="M33.6108 76.4056L32.5529 76.9377C32.4207 76.9377 32.2884 76.9377 32.1562 76.9377L31.2305 76.4056C31.0983 76.2725 31.0983 76.2725 31.2305 76.1395L32.2884 75.6074C32.4207 75.6074 32.5529 75.6074 32.6851 75.6074L33.6108 76.1395C33.6108 76.1395 33.6108 76.2725 33.6108 76.4056Z" fill="black"/>
<path d="M31.0984 77.8689L30.0405 78.401C29.9082 78.401 29.776 78.401 29.6437 78.401L28.7181 77.8689C28.5858 77.7359 28.5858 77.7359 28.7181 77.6029L29.776 77.0708C29.9082 77.0708 30.0405 77.0708 30.1727 77.0708L31.0984 77.6029C31.0984 77.6029 31.0984 77.7359 31.0984 77.8689Z" fill="black"/>
<path d="M36.1233 74.9422L35.0654 75.4743C34.9331 75.4743 34.8009 75.4743 34.6686 75.4743L33.743 74.9422C33.6107 74.8092 33.6107 74.8092 33.743 74.6761L34.8009 74.144C34.9331 74.144 35.0654 74.144 35.1976 74.144L36.1233 74.6761C36.1233 74.6761 36.1233 74.8092 36.1233 74.9422Z" fill="black"/>
<path d="M38.6357 73.4788L37.5778 74.0109C37.4456 74.0109 37.3134 74.0109 37.1811 74.0109L36.1232 73.4788C36.1232 73.3458 35.991 73.2128 36.1232 73.2128L37.1811 72.6807C37.3134 72.6807 37.4456 72.6807 37.5778 72.6807L38.5035 73.2128C38.6357 73.2128 38.6357 73.3458 38.6357 73.4788Z" fill="black"/>
<path d="M41.1482 72.0159L40.0903 72.548C39.958 72.548 39.8258 72.548 39.6935 72.548L38.7679 72.0159C38.6356 71.8829 38.6356 71.8829 38.7679 71.7499L39.8258 71.2178C39.958 71.2178 40.0903 71.2178 40.2225 71.2178L41.1482 71.7499C41.1482 71.7499 41.1482 71.8829 41.1482 72.0159Z" fill="black"/>
<path d="M42.6029 69.7544L43.5285 70.2865C43.6608 70.4195 43.6608 70.4195 43.5285 70.5525L42.4706 71.0846C42.3384 71.0846 42.2062 71.0846 42.0739 71.0846L41.1483 70.5525C41.016 70.4195 41.016 70.4195 41.1483 70.2865C41.1483 70.2865 42.4706 69.6214 42.6029 69.7544Z" fill="black"/>
<path d="M35.9911 77.7356L34.9332 78.2677C34.801 78.2677 34.6687 78.2677 34.5365 78.2677L33.4786 77.7356C33.3463 77.6026 33.3463 77.6026 33.4786 77.4696L34.5365 76.9375C34.6687 76.9375 34.801 76.9375 34.9332 76.9375L35.8589 77.4696C35.9911 77.6026 35.9911 77.7356 35.9911 77.7356Z" fill="black"/>
<path d="M33.4785 79.199L32.4206 79.7311C32.2883 79.7311 32.1561 79.7311 32.0239 79.7311L31.0982 79.199C30.966 79.066 30.966 79.066 31.0982 78.933L32.1561 78.4009C32.2883 78.4009 32.4206 78.4009 32.5528 78.4009L33.4785 78.933C33.4785 79.066 33.4785 79.199 33.4785 79.199Z" fill="black"/>
<path d="M38.5036 76.2725L37.4457 76.9377C37.3135 76.9377 37.1813 76.9377 37.049 76.9377L36.1233 76.4056C35.9911 76.2725 35.9911 76.2725 36.1233 76.1395L37.1812 75.6074C37.3135 75.6074 37.4457 75.6074 37.578 75.6074L38.5036 76.1395V76.2725Z" fill="black"/>
<path d="M41.0161 74.8094L39.9582 75.3415C39.8259 75.3415 39.6937 75.3415 39.5615 75.3415L38.6358 74.8094C38.5036 74.6764 38.5036 74.6764 38.6358 74.5433L39.6937 74.0112C39.8259 74.0112 39.9582 74.0112 40.0904 74.0112L41.0161 74.5433C41.0161 74.6764 41.0161 74.8094 41.0161 74.8094Z" fill="black"/>
<path d="M43.5285 73.346L42.4706 73.8781C42.3384 73.8781 42.2062 73.8781 42.0739 73.8781L41.1483 73.346C41.016 73.213 41.016 73.213 41.1483 73.0799L42.2062 72.5479C42.3384 72.5479 42.4706 72.5479 42.6029 72.5479L43.5285 73.0799C43.5285 73.213 43.5285 73.346 43.5285 73.346Z" fill="black"/>
<path d="M46.0411 71.8826L44.9832 72.4147C44.851 72.4147 44.7188 72.4147 44.5865 72.4147L43.5286 71.8826C43.3964 71.7496 43.3964 71.7496 43.5286 71.6166L44.5865 71.0845C44.7188 71.0845 44.851 71.0845 44.9832 71.0845L45.9089 71.6166C46.0411 71.7496 46.0411 71.8826 46.0411 71.8826Z" fill="black"/>
<path d="M47.4957 69.6216L48.4214 70.1537C48.5536 70.2867 48.5536 70.2867 48.4214 70.4197L47.3635 70.9518C47.2312 70.9518 47.099 70.9518 46.9667 70.9518L46.0411 70.4197C45.9088 70.2867 45.9088 70.2867 46.0411 70.1537L47.099 69.6216C47.2312 69.6216 47.3635 69.6216 47.4957 69.6216Z" fill="black"/>
<path d="M38.5036 79.199L37.4457 79.8641C37.3135 79.8641 37.1813 79.8641 37.049 79.8641L36.1233 79.199C35.9911 79.066 35.9911 79.066 36.1233 78.933L37.1812 78.4009C37.3135 78.4009 37.4457 78.4009 37.578 78.4009L38.5036 78.933C38.5036 79.066 38.6359 79.199 38.5036 79.199Z" fill="black"/>
<path d="M35.9912 80.6624L34.9333 81.1945C34.801 81.1945 34.6688 81.1945 34.5366 81.1945L33.6109 80.6624C33.4787 80.5294 33.4787 80.5294 33.6109 80.3964L34.6688 79.8643C34.801 79.8643 34.9333 79.8643 35.0655 79.8643L35.9912 80.3964C35.9912 80.5294 36.1234 80.6624 35.9912 80.6624Z" fill="black"/>
<path d="M41.0161 77.7356L39.9582 78.2677C39.8259 78.2677 39.6937 78.2677 39.5615 78.2677L38.6358 77.7356C38.5036 77.6026 38.5036 77.6026 38.6358 77.4696L39.6937 76.9375C39.8259 76.9375 39.9582 76.9375 40.0904 76.9375L41.0161 77.4696C41.0161 77.6026 41.1483 77.7356 41.0161 77.7356Z" fill="black"/>
<path d="M43.5285 76.2727L42.4706 76.8048C42.3384 76.8048 42.2062 76.8048 42.0739 76.8048L41.1483 76.2727C41.016 76.1397 41.016 76.1397 41.1483 76.0067L42.2062 75.4746C42.3384 75.4746 42.4706 75.4746 42.6029 75.4746L43.5285 76.0067C43.5285 76.1397 43.6608 76.2727 43.5285 76.2727Z" fill="black"/>
<path d="M46.0412 74.8094L44.9833 75.3415C44.8511 75.3415 44.7189 75.3415 44.5866 75.3415L43.6609 74.8094C43.5287 74.6764 43.5287 74.6764 43.6609 74.5433L44.7188 74.0112C44.8511 74.0112 44.9833 74.0112 45.1156 74.0112L46.0412 74.5433C46.0412 74.6764 46.1735 74.8094 46.0412 74.8094Z" fill="black"/>
<path d="M48.5537 73.346L47.4958 73.8781C47.3635 73.8781 47.2313 73.8781 47.0991 73.8781L46.1734 73.346C46.0412 73.213 46.0412 73.213 46.1734 73.0799L47.2313 72.5479C47.3635 72.5479 47.4958 72.5479 47.628 72.5479L48.5537 73.0799C48.5537 73.213 48.6859 73.346 48.5537 73.346Z" fill="black"/>
<path d="M51.0661 71.8826L50.0082 72.4147C49.876 72.4147 49.7438 72.4147 49.6115 72.4147L48.6858 71.8826C48.5536 71.7496 48.5536 71.7496 48.6858 71.6166L49.7437 71.0845C49.876 71.0845 50.0082 71.0845 50.1405 71.0845L51.0661 71.6166C51.0661 71.7496 51.1984 71.8826 51.0661 71.8826Z" fill="black"/>
<path d="M53.5788 70.4197L52.5209 70.9518C52.3887 70.9518 52.2564 70.9518 52.1242 70.9518L51.1985 70.4197C51.0663 70.2867 51.0663 70.2867 51.1985 70.1537L52.2564 69.6216C52.3887 69.6216 52.5209 69.6216 52.6532 69.6216L53.5788 70.1537C53.5788 70.2867 53.7111 70.4197 53.5788 70.4197Z" fill="black"/>
<path d="M56.0914 68.9561L55.0335 69.4882C54.9012 69.4882 54.769 69.4882 54.6368 69.4882L53.7111 68.9561C53.5789 68.9561 56.2236 68.9561 56.0914 68.9561Z" fill="black"/>
<path d="M40.8838 80.5294L39.8259 81.1945C39.6936 81.1945 39.5614 81.1945 39.4291 81.1945L38.5035 80.6624C38.3712 80.5294 38.3712 80.5294 38.5035 80.3964L39.5614 79.8643C39.6936 79.8643 39.8259 79.8643 39.9581 79.8643L40.8838 80.3964C40.8838 80.3964 41.016 80.5294 40.8838 80.5294Z" fill="black"/>
<path d="M38.3715 81.9925L37.3136 82.5246C37.1814 82.5246 37.0492 82.5246 36.9169 82.5246L35.9913 81.9925C35.859 81.8595 35.859 81.8595 35.9913 81.7264L37.0492 81.1943C37.1814 81.1943 37.3136 81.1943 37.4459 81.1943L38.3715 81.7264C38.3715 81.8595 38.5038 81.9925 38.3715 81.9925Z" fill="black"/>
<path d="M43.3964 79.0662L42.3385 79.5983C42.2063 79.5983 42.0741 79.5983 41.9418 79.5983L41.0162 79.0662C40.8839 78.9332 40.8839 78.9332 41.0162 78.8002L42.0741 78.2681C42.2063 78.2681 42.3385 78.2681 42.4708 78.2681L43.3964 78.8002C43.3964 78.9332 43.5287 79.0662 43.3964 79.0662Z" fill="black"/>
<path d="M45.9089 77.7356L44.851 78.2677C44.7188 78.2677 44.5865 78.2677 44.4543 78.2677L43.5286 77.7356C43.3964 77.6026 43.3964 77.6026 43.5286 77.4696L44.5865 76.9375C44.7188 76.9375 44.851 76.9375 44.9832 76.9375L45.9089 77.4696C45.9089 77.4696 46.0411 77.6026 45.9089 77.7356Z" fill="black"/>
<path d="M48.4214 76.2727L47.3634 76.8048C47.2312 76.8048 47.099 76.8048 46.9667 76.8048L46.0411 76.2727C45.9088 76.1397 45.9088 76.1397 46.0411 76.0067L47.099 75.4746C47.2312 75.4746 47.3634 75.4746 47.4957 75.4746L48.4214 76.0067C48.4214 76.0067 48.5536 76.1397 48.4214 76.2727Z" fill="black"/>
<path d="M50.9341 74.8094L49.8761 75.3415C49.7439 75.3415 49.6117 75.3415 49.4794 75.3415L48.5538 74.8094C48.4215 74.6764 48.4215 74.6764 48.5538 74.5433L49.6117 74.0112C49.7439 74.0112 49.8761 74.0112 50.0084 74.0112L50.9341 74.5433C50.9341 74.5433 51.0663 74.6764 50.9341 74.8094Z" fill="black"/>
<path d="M53.4465 73.346L52.3886 73.8781C52.2564 73.8781 52.1241 73.8781 51.9919 73.8781L51.0662 73.346C50.934 73.213 50.934 73.213 51.0662 73.0799L52.1241 72.5479C52.2564 72.5479 52.3886 72.5479 52.5208 72.5479L53.4465 73.0799C53.4465 73.0799 53.5787 73.213 53.4465 73.346Z" fill="black"/>
<path d="M55.9592 71.8826L54.9013 72.4147C54.7691 72.4147 54.6368 72.4147 54.5046 72.4147L53.5789 71.8826C53.4467 71.7496 53.4467 71.7496 53.5789 71.6166L54.6368 71.0845C54.7691 71.0845 54.9013 71.0845 55.0335 71.0845L55.9592 71.6166C55.9592 71.6166 56.0914 71.7496 55.9592 71.8826Z" fill="black"/>
<path d="M58.4714 70.4197L57.4135 70.9518C57.2813 70.9518 57.149 70.9518 57.0168 70.9518L56.0911 70.4197C55.9589 70.2867 55.9589 70.2867 56.0911 70.1537L57.149 69.6216C57.2813 69.6216 57.4135 69.6216 57.5457 69.6216L58.4714 70.1537C58.4714 70.1537 58.6036 70.2867 58.4714 70.4197Z" fill="black"/>
<path d="M60.984 68.9562L59.9261 69.4883C59.7938 69.4883 59.6616 69.4883 59.5293 69.4883L58.6037 68.9562C58.4714 68.8232 61.1162 68.8232 60.984 68.9562Z" fill="black"/>
<path d="M43.2641 81.9925L42.2062 82.5246C42.074 82.5246 41.9417 82.5246 41.8095 82.5246L40.8838 81.9925C40.7516 81.8595 40.7516 81.8595 40.8838 81.7264L41.9418 81.1943C42.074 81.1943 42.2062 81.1943 42.3385 81.1943L43.2641 81.7264C43.2641 81.8595 43.3964 81.8595 43.2641 81.9925Z" fill="black"/>
<path d="M40.7517 83.4559L39.6938 83.9879C39.5615 83.9879 39.4293 83.9879 39.2971 83.9879L38.3714 83.4559C38.2392 83.3228 38.2392 83.3228 38.3714 83.1898L39.4293 82.6577C39.5615 82.6577 39.6938 82.6577 39.826 82.6577L40.7517 83.1898C40.7517 83.3228 40.8839 83.3228 40.7517 83.4559Z" fill="black"/>
<path d="M45.7768 80.5291L44.7189 81.0612C44.5867 81.0612 44.4544 81.0612 44.3222 81.0612L43.3965 80.5291C43.2643 80.3961 43.2643 80.3961 43.3965 80.263L44.4544 79.731C44.5867 79.731 44.7189 79.731 44.8512 79.731L45.7768 80.263C45.7768 80.3961 45.9091 80.3961 45.7768 80.5291Z" fill="black"/>
<path d="M48.2893 79.0662L47.2314 79.5983C47.0991 79.5983 46.9669 79.5983 46.8347 79.5983L45.909 79.0662C45.7768 78.9332 45.7768 78.9332 45.909 78.8002L46.9669 78.2681C47.0991 78.2681 47.2314 78.2681 47.3636 78.2681L48.2893 78.8002C48.4215 78.9332 48.4215 78.9332 48.2893 79.0662Z" fill="black"/>
<path d="M50.8017 77.6028L49.7438 78.1349C49.6116 78.1349 49.4793 78.1349 49.3471 78.1349L48.4214 77.6028C48.2892 77.4698 48.2892 77.4698 48.4214 77.3368L49.4793 76.8047C49.6116 76.8047 49.7438 76.8047 49.8761 76.8047L50.8017 77.3368C50.934 77.4698 50.934 77.6028 50.8017 77.6028Z" fill="black"/>
<path d="M53.3144 76.1394L52.2565 76.6715C52.1243 76.6715 51.992 76.6715 51.8598 76.6715L50.9341 76.1394C50.8019 76.0064 50.8019 76.0064 50.9341 75.8734L51.992 75.3413C52.1243 75.3413 52.2565 75.3413 52.3888 75.3413L53.3144 75.8734C53.4467 76.0064 53.4467 76.1394 53.3144 76.1394Z" fill="black"/>
<path d="M55.8267 74.6766L54.7688 75.2086C54.6366 75.2086 54.5043 75.2086 54.3721 75.2086L53.4464 74.6766C53.3142 74.6766 53.3142 74.5435 53.3142 74.4105L54.3721 73.8784C54.5043 73.8784 54.6366 73.8784 54.7688 73.8784L55.6945 74.4105C55.959 74.5435 55.959 74.6766 55.8267 74.6766Z" fill="black"/>
<path d="M58.3393 73.2132L57.2814 73.8783C57.1492 73.8783 57.0169 73.8783 56.8847 73.8783L55.959 73.2132C55.8268 73.0802 55.8268 73.0802 55.959 72.9471L57.0169 72.415C57.1492 72.415 57.2814 72.415 57.4137 72.415L58.3393 72.9471C58.4716 73.0802 58.4716 73.2132 58.3393 73.2132Z" fill="black"/>
<path d="M60.8518 71.7498L59.7939 72.2819C59.6616 72.2819 59.5294 72.2819 59.3972 72.2819L58.4715 71.7498C58.3393 71.6168 58.3393 71.6168 58.4715 71.4838L59.5294 70.9517C59.6616 70.9517 59.7939 70.9517 59.9261 70.9517L60.8518 71.4838C60.984 71.6168 60.984 71.7498 60.8518 71.7498Z" fill="black"/>
<path d="M63.3642 70.2864L62.3063 70.8185C62.1741 70.8185 62.0418 70.8185 61.9096 70.8185L60.9839 70.2864C60.8517 70.1534 60.8517 70.1534 60.9839 70.0204L62.0418 69.4883C62.1741 69.4883 62.3063 69.4883 62.4386 69.4883L63.3642 70.0204C63.4965 70.1534 63.4965 70.2864 63.3642 70.2864Z" fill="black"/>
<path d="M65.8768 68.8232L64.8189 69.3553C64.6866 69.3553 64.5544 69.3553 64.4222 69.3553L63.4965 68.8232C63.3643 68.8232 66.009 68.8232 65.8768 68.8232Z" fill="black"/>
<path d="M45.7768 83.4559L44.7189 83.9879C44.5867 83.9879 44.4544 83.9879 44.3222 83.9879L43.3965 83.4559C43.2643 83.3228 43.2643 83.3228 43.3965 83.1898L44.4544 82.6577C44.5867 82.6577 44.7189 82.6577 44.8512 82.6577L45.7768 83.1898C45.9091 83.3228 45.9091 83.3228 45.7768 83.4559Z" fill="black"/>
<path d="M43.2641 84.9192L42.2062 85.4513C42.074 85.4513 41.9417 85.4513 41.8095 85.4513L40.8838 84.9192C40.7516 84.7862 40.7516 84.7862 40.8838 84.6532L41.9417 84.1211C42.074 84.1211 42.2062 84.1211 42.3385 84.1211L43.2641 84.6532C43.3964 84.7862 43.3964 84.7862 43.2641 84.9192Z" fill="black"/>
<path d="M48.2893 81.9925L47.2314 82.5246C47.0991 82.5246 46.9669 82.5246 46.8347 82.5246L45.909 81.9925C45.7768 81.8595 45.7768 81.8595 45.909 81.7264L46.9669 81.1943C47.0991 81.1943 47.2314 81.1943 47.3636 81.1943L48.2893 81.7264C48.4215 81.8595 48.4215 81.8595 48.2893 81.9925Z" fill="black"/>
<path d="M50.8017 80.5291L49.7438 81.0612C49.6116 81.0612 49.4793 81.0612 49.3471 81.0612L48.4214 80.5291C48.2892 80.3961 48.2892 80.3961 48.4214 80.263L49.4793 79.731C49.6116 79.731 49.7438 79.731 49.8761 79.731L50.8017 80.263C50.934 80.3961 50.934 80.3961 50.8017 80.5291Z" fill="black"/>
<path d="M53.3144 79.0662L52.2565 79.5983C52.1243 79.5983 51.992 79.5983 51.8598 79.5983L50.9341 79.0662C50.8019 78.9332 50.8019 78.9332 50.9341 78.8002L51.992 78.2681C52.1243 78.2681 52.2565 78.2681 52.3888 78.2681L53.3144 78.8002C53.4467 78.9332 53.4467 79.0662 53.3144 79.0662Z" fill="black"/>
<path d="M55.8266 77.6028L54.7687 78.1349C54.6365 78.1349 54.5043 78.1349 54.372 78.1349L53.4463 77.6028C53.3141 77.4698 53.3141 77.4698 53.4463 77.3368L54.5043 76.8047C54.6365 76.8047 54.7687 76.8047 54.901 76.8047L55.8266 77.3368C55.9589 77.4698 55.9589 77.6028 55.8266 77.6028Z" fill="black"/>
<path d="M58.3393 76.1394L57.2814 76.8046C57.1492 76.8046 57.0169 76.8046 56.8847 76.8046L55.959 76.1394C55.8268 76.0064 55.8268 76.0064 55.959 75.8734L57.0169 75.3413C57.1492 75.3413 57.2814 75.3413 57.4137 75.3413L58.3393 75.8734C58.4716 76.0064 58.4716 76.1394 58.3393 76.1394Z" fill="black"/>
<path d="M60.8518 74.6766L59.7939 75.2086C59.6616 75.2086 59.5294 75.2086 59.3972 75.2086L58.4715 74.6766C58.3393 74.5435 58.3393 74.5435 58.4715 74.4105L59.5294 73.8784C59.6616 73.8784 59.7939 73.8784 59.9261 73.8784L60.8518 74.4105C60.984 74.5435 60.984 74.6766 60.8518 74.6766Z" fill="black"/>
<path d="M63.3642 73.2132L62.3063 73.7453C62.1741 73.7453 62.0418 73.7453 61.9096 73.7453L60.9839 73.2132C60.8517 73.0802 60.8517 73.0802 60.9839 72.9471L62.0418 72.415C62.1741 72.415 62.3063 72.415 62.4386 72.415L63.3642 72.9471C63.4965 73.0802 63.4965 73.2132 63.3642 73.2132Z" fill="black"/>
<path d="M65.8769 71.7498L64.819 72.2819C64.6868 72.2819 64.5545 72.2819 64.4223 72.2819L63.4966 71.7498C63.3644 71.6168 63.3644 71.6168 63.4966 71.4838L64.5545 70.9517C64.6868 70.9517 64.819 70.9517 64.9513 70.9517L65.8769 71.4838C66.0092 71.6168 66.0092 71.7498 65.8769 71.7498Z" fill="black"/>
<path d="M67.3314 69.4883L68.257 70.0204C68.3893 70.1534 68.3893 70.1534 68.257 70.2864L67.1991 70.8185C67.0669 70.8185 66.9347 70.8185 66.8024 70.8185L65.8768 70.2864C65.7445 70.1534 65.7445 70.1534 65.8768 70.0204L66.9347 69.4883C67.0669 69.4883 67.1991 69.4883 67.3314 69.4883Z" fill="black"/>
<path d="M48.157 84.7859L47.0991 85.318C46.9668 85.318 46.8346 85.318 46.7023 85.318L45.7767 84.7859C45.6444 84.6529 45.6444 84.6529 45.7767 84.5199L46.8346 83.9878C46.9668 83.9878 47.0991 83.9878 47.2313 83.9878L48.157 84.5199C48.2892 84.6529 48.2892 84.7859 48.157 84.7859Z" fill="black"/>
<path d="M45.6445 86.2493L44.5866 86.7814C44.4544 86.7814 44.3221 86.7814 44.1899 86.7814L43.2642 86.2493C43.132 86.1163 43.132 86.1163 43.2642 85.9833L44.3221 85.4512C44.4544 85.4512 44.5866 85.4512 44.7188 85.4512L45.6445 85.9833C45.7767 86.1163 45.7767 86.2493 45.6445 86.2493Z" fill="black"/>
<path d="M50.6696 83.323L49.6117 83.8551C49.4795 83.8551 49.3473 83.8551 49.215 83.8551L48.2894 83.323C48.1571 83.19 48.1571 83.19 48.2894 83.057L49.3473 82.5249C49.4795 82.5249 49.6117 82.5249 49.744 82.5249L50.6696 83.057C50.8019 83.19 50.8019 83.323 50.6696 83.323Z" fill="black"/>
<path d="M53.1819 81.8595L52.1239 82.5246C51.9917 82.5246 51.8595 82.5246 51.7272 82.5246L50.8016 81.9925C50.6693 81.8595 50.6693 81.8595 50.8016 81.7264L51.8595 81.1943C51.9917 81.1943 52.124 81.1943 52.2562 81.1943L53.1819 81.7264C53.3141 81.7264 53.3141 81.8595 53.1819 81.8595Z" fill="black"/>
<path d="M55.6946 80.3961L54.6366 81.0612C54.5044 81.0612 54.3722 81.0612 54.2399 81.0612L53.3143 80.5291C53.182 80.3961 53.182 80.3961 53.3143 80.263L54.3722 79.731C54.5044 79.731 54.6366 79.731 54.7689 79.731L55.6946 80.263C55.8268 80.263 55.8268 80.3961 55.6946 80.3961Z" fill="black"/>
<path d="M58.207 78.9329L57.1491 79.465C57.0169 79.465 56.8846 79.465 56.7524 79.465L55.8267 78.9329C55.6945 78.7999 55.6945 78.7999 55.8267 78.6669L56.8846 78.1348C57.0169 78.1348 57.1491 78.1348 57.2813 78.1348L58.207 78.6669C58.3392 78.7999 58.3392 78.9329 58.207 78.9329Z" fill="black"/>
<path d="M60.7194 77.47L59.6615 78.0021C59.5293 78.0021 59.3971 78.0021 59.2648 78.0021L58.3392 77.47C58.2069 77.337 58.2069 77.337 58.3392 77.204L59.3971 76.6719C59.5293 76.6719 59.6616 76.6719 59.7938 76.6719L60.7194 77.204C60.8517 77.337 60.8517 77.47 60.7194 77.47Z" fill="black"/>
<path d="M63.2321 76.0066L62.1742 76.5387C62.042 76.5387 61.9098 76.5387 61.7775 76.5387L60.8519 76.0066C60.7196 75.8736 60.7196 75.8736 60.8519 75.7406L61.9098 75.2085C62.042 75.2085 62.1742 75.2085 62.3065 75.2085L63.2321 75.7406C63.3644 75.8736 63.3644 76.0066 63.2321 76.0066Z" fill="black"/>
<path d="M65.7444 74.6766L64.6865 75.2086C64.5542 75.2086 64.422 75.2086 64.2897 75.2086L63.3641 74.6766C63.2318 74.5435 63.2318 74.5435 63.3641 74.4105L64.422 73.8784C64.5542 73.8784 64.6865 73.8784 64.8187 73.8784L65.7444 74.4105C65.8766 74.4105 65.8766 74.5435 65.7444 74.6766Z" fill="black"/>
<path d="M68.257 73.2132L67.1991 73.7453C67.0669 73.7453 66.9347 73.7453 66.8024 73.7453L65.8768 73.2132C65.7445 73.0802 65.7445 73.0802 65.8768 72.9471L66.9347 72.415C67.0669 72.415 67.1991 72.415 67.3314 72.415L68.257 72.9471C68.3893 72.9471 68.3893 73.0802 68.257 73.2132Z" fill="black"/>
<path d="M70.7695 71.7498L69.7116 72.2819C69.5794 72.2819 69.4471 72.2819 69.3149 72.2819L68.3892 71.7498C68.257 71.6168 68.257 71.6168 68.3892 71.4838L69.4471 70.9517C69.5794 70.9517 69.7116 70.9517 69.8438 70.9517L70.7695 71.4838C70.9017 71.4838 70.9017 71.6168 70.7695 71.7498Z" fill="black"/>
<path d="M73.2819 70.0204C73.4142 70.1534 73.4142 70.1534 73.2819 70.2864L72.224 70.8185C72.0918 70.8185 71.9596 70.8185 71.8273 70.8185L70.9017 70.2864C70.7694 70.1534 70.7694 70.1534 70.9017 70.0204L71.9596 69.4883C71.9596 69.3553 73.2819 70.0204 73.2819 70.0204Z" fill="black"/>
<path d="M50.5371 86.2493L49.4792 86.7814C49.3469 86.7814 49.2147 86.7814 49.0825 86.7814L48.1568 86.2493C48.0246 86.1163 48.0246 86.1163 48.1568 85.9833L49.2147 85.4512C49.3469 85.4512 49.4792 85.4512 49.6114 85.4512L50.5371 85.9833C50.6693 85.9833 50.6693 86.1163 50.5371 86.2493Z" fill="black"/>
<path d="M48.0249 87.7127L46.967 88.2448C46.8347 88.2448 46.7025 88.2448 46.5703 88.2448L45.6446 87.7127C45.5124 87.5797 45.5124 87.5797 45.6446 87.4466L46.7025 86.9146C46.8347 86.9146 46.967 86.9146 47.0992 86.9146L48.0249 87.4466C48.1571 87.4466 48.1571 87.5797 48.0249 87.7127Z" fill="black"/>
<path d="M53.0498 84.7859L51.9919 85.318C51.8596 85.318 51.7274 85.318 51.5952 85.318L50.6695 84.7859C50.5373 84.6529 50.5373 84.6529 50.6695 84.5199L51.7274 83.9878C51.8596 83.9878 51.9919 83.9878 52.1241 83.9878L53.0498 84.5199C53.182 84.5199 53.182 84.6529 53.0498 84.7859Z" fill="black"/>
<path d="M55.5622 83.323L54.5043 83.8551C54.3721 83.8551 54.2398 83.8551 54.1076 83.8551L53.1819 83.323C53.0497 83.19 53.0497 83.19 53.1819 83.057L54.2398 82.5249C54.3721 82.5249 54.5043 82.5249 54.6366 82.5249L55.5622 83.057C55.6945 83.19 55.6945 83.19 55.5622 83.323Z" fill="black"/>
<path d="M58.0747 81.8597L57.0168 82.3918C56.8845 82.3918 56.7523 82.3918 56.6201 82.3918L55.6944 81.8597C55.5622 81.7266 55.5622 81.7266 55.6944 81.5936L56.7523 81.0615C56.8845 81.0615 57.0168 81.0615 57.149 81.0615L58.0747 81.5936C58.2069 81.7266 58.2069 81.7266 58.0747 81.8597Z" fill="black"/>
<path d="M60.5874 80.3963L59.5295 80.9284C59.3972 80.9284 59.265 80.9284 59.1328 80.9284L58.2071 80.3963C58.0749 80.2633 58.0749 80.2633 58.2071 80.1302L59.265 79.5981C59.3972 79.5981 59.5295 79.5981 59.6617 79.5981L60.5874 80.1302C60.7196 80.2633 60.7196 80.2633 60.5874 80.3963Z" fill="black"/>
<path d="M63.0996 78.9329L62.0417 79.465C61.9094 79.465 61.7772 79.465 61.645 79.465L60.7193 78.9329C60.5871 78.7999 60.5871 78.7999 60.7193 78.6669L61.7772 78.1348C61.9094 78.1348 62.0417 78.1348 62.1739 78.1348L63.0996 78.6669C63.2318 78.7999 63.2318 78.7999 63.0996 78.9329Z" fill="black"/>
<path d="M65.6123 77.47L64.5544 78.0021C64.4221 78.0021 64.2899 78.0021 64.1577 78.0021L63.232 77.47C63.0998 77.337 63.0998 77.337 63.232 77.204L64.2899 76.6719C64.4221 76.6719 64.5544 76.6719 64.6866 76.6719L65.6123 77.204C65.7445 77.337 65.7445 77.337 65.6123 77.47Z" fill="black"/>
<path d="M68.1247 76.0066L67.0668 76.5387C66.9346 76.5387 66.8023 76.5387 66.6701 76.5387L65.7444 76.0066C65.6122 75.8736 65.6122 75.8736 65.7444 75.7406L66.8023 75.2085C66.9346 75.2085 67.0668 75.2085 67.1991 75.2085L68.1247 75.7406C68.257 75.8736 68.257 75.8736 68.1247 76.0066Z" fill="black"/>
<path d="M70.6374 74.5433L69.5795 75.0754C69.4473 75.0754 69.315 75.0754 69.1828 75.0754L68.2571 74.5433C68.1249 74.4102 68.1249 74.4102 68.2571 74.2772L69.315 73.7451C69.4473 73.7451 69.5795 73.7451 69.7118 73.7451L70.6374 74.2772C70.7697 74.4102 70.7697 74.4102 70.6374 74.5433Z" fill="black"/>
<path d="M73.1499 73.0799L72.092 73.612C71.9597 73.612 71.8275 73.612 71.6953 73.612L70.7696 73.0799C70.6374 72.9469 70.6374 72.9469 70.7696 72.8138L71.8275 72.2817C71.9597 72.2817 72.092 72.2817 72.2242 72.2817L73.1499 72.8138C73.2821 72.9469 73.2821 73.0799 73.1499 73.0799Z" fill="black"/>
<path d="M75.6623 71.617L74.6044 72.1491C74.4722 72.1491 74.3399 72.1491 74.2077 72.1491L73.282 71.617C73.1498 71.484 73.1498 71.484 73.282 71.3509L74.3399 70.8188C74.4722 70.8188 74.6044 70.8188 74.7367 70.8188L75.6623 71.3509C75.7946 71.484 75.7946 71.617 75.6623 71.617Z" fill="black"/>
<path d="M78.1749 70.1533L77.117 70.8184C76.9847 70.8184 76.8525 70.8184 76.7203 70.8184L75.7946 70.1533C75.6624 70.1533 78.3071 70.1533 78.1749 70.1533Z" fill="black"/>
<path d="M53.0498 87.7127L51.9919 88.2448C51.8596 88.2448 51.7274 88.2448 51.5952 88.2448L50.6695 87.7127C50.5373 87.5797 50.5373 87.5797 50.6695 87.4466L51.7274 86.9146C51.8596 86.9146 51.9919 86.9146 52.1241 86.9146L53.0498 87.4466C53.182 87.4466 53.182 87.5797 53.0498 87.7127Z" fill="black"/>
<path d="M50.5371 89.1756L49.4792 89.7077C49.3469 89.7077 49.2147 89.7077 49.0825 89.7077L48.1568 89.1756C48.0246 89.0426 48.0246 89.0426 48.1568 88.9095L49.2147 88.3774C49.3469 88.3774 49.4792 88.3774 49.6114 88.3774L50.5371 88.9095C50.6693 88.9095 50.6693 89.0426 50.5371 89.1756Z" fill="black"/>
<path d="M55.5622 86.2493L54.5043 86.7814C54.3721 86.7814 54.2398 86.7814 54.1076 86.7814L53.1819 86.2493C53.0497 86.1163 53.0497 86.1163 53.1819 85.9833L54.2398 85.4512C54.3721 85.4512 54.5043 85.4512 54.6366 85.4512L55.5622 85.9833C55.6945 86.1163 55.6945 86.1163 55.5622 86.2493Z" fill="black"/>
<path d="M58.0747 84.7859L57.0168 85.318C56.8845 85.318 56.7523 85.318 56.6201 85.318L55.6944 84.7859C55.5622 84.6529 55.5622 84.6529 55.6944 84.5199L56.7523 83.9878C56.8845 83.9878 57.0168 83.9878 57.149 83.9878L58.0747 84.5199C58.2069 84.6529 58.2069 84.6529 58.0747 84.7859Z" fill="black"/>
<path d="M60.5874 83.323L59.5295 83.8551C59.3972 83.8551 59.265 83.8551 59.1328 83.8551L58.2071 83.323C58.0749 83.19 58.0749 83.19 58.2071 83.057L59.265 82.5249C59.3972 82.5249 59.5295 82.5249 59.6617 82.5249L60.5874 83.057C60.7196 83.19 60.7196 83.19 60.5874 83.323Z" fill="black"/>
<path d="M63.0996 81.8597L62.0417 82.3918C61.9094 82.3918 61.7772 82.3918 61.645 82.3918L60.7193 81.8597C60.5871 81.7266 60.5871 81.7266 60.7193 81.5936L61.7772 81.0615C61.9094 81.0615 62.0417 81.0615 62.1739 81.0615L63.0996 81.5936C63.2318 81.7266 63.2318 81.7266 63.0996 81.8597Z" fill="black"/>
<path d="M65.6123 80.3963L64.5544 80.9284C64.4221 80.9284 64.2899 80.9284 64.1577 80.9284L63.232 80.3963C63.0998 80.2633 63.0998 80.2633 63.232 80.1302L64.2899 79.5981C64.4221 79.5981 64.5544 79.5981 64.6866 79.5981L65.6123 80.1302C65.7445 80.2633 65.7445 80.2633 65.6123 80.3963Z" fill="black"/>
<path d="M68.1247 78.9329L67.0668 79.465C66.9346 79.465 66.8023 79.465 66.6701 79.465L65.7444 78.9329C65.6122 78.7999 65.6122 78.7999 65.7444 78.6669L66.8023 78.1348C66.9346 78.1348 67.0668 78.1348 67.1991 78.1348L68.1247 78.6669C68.257 78.7999 68.257 78.7999 68.1247 78.9329Z" fill="black"/>
<path d="M70.6374 77.47L69.5795 78.0021C69.4473 78.0021 69.315 78.0021 69.1828 78.0021L68.2571 77.47C68.1249 77.337 68.1249 77.337 68.2571 77.204L69.315 76.6719C69.4473 76.6719 69.5795 76.6719 69.7118 76.6719L70.6374 77.204C70.7697 77.337 70.7697 77.337 70.6374 77.47Z" fill="black"/>
<path d="M73.1499 76.0066L72.092 76.5387C71.9597 76.5387 71.8275 76.5387 71.6953 76.5387L70.7696 76.0066C70.6374 75.8736 70.6374 75.8736 70.7696 75.7406L71.8275 75.2085C71.9597 75.2085 72.092 75.2085 72.2242 75.2085L73.1499 75.7406C73.2821 75.8736 73.2821 76.0066 73.1499 76.0066Z" fill="black"/>
<path d="M75.6623 74.5433L74.6044 75.0754C74.4722 75.0754 74.3399 75.0754 74.2077 75.0754L73.282 74.5433C73.1498 74.4102 73.1498 74.4102 73.282 74.2772L74.3399 73.7451C74.4722 73.7451 74.6044 73.7451 74.7367 73.7451L75.6623 74.2772C75.7946 74.4102 75.7946 74.5433 75.6623 74.5433Z" fill="black"/>
<path d="M78.175 73.0799L77.1171 73.745C76.9849 73.745 76.8526 73.745 76.7204 73.745L75.7947 73.0799C75.6625 72.9469 75.6625 72.9469 75.7947 72.8138L76.8526 72.2817C76.9849 72.2817 77.1171 72.2817 77.2493 72.2817L78.175 72.8138C78.3073 72.9469 78.3073 73.0799 78.175 73.0799Z" fill="black"/>
<path d="M80.6875 71.617L79.6296 72.1491C79.4973 72.1491 79.3651 72.1491 79.2328 72.1491L78.3072 71.617C78.1749 71.484 78.1749 71.484 78.3072 71.3509L79.3651 70.8188C79.4973 70.8188 79.6296 70.8188 79.7618 70.8188L80.6875 71.3509C80.8197 71.484 80.8197 71.617 80.6875 71.617Z" fill="black"/>
<path d="M83.2 70.1533L82.1421 70.6854C82.0099 70.6854 81.8776 70.6854 81.7454 70.6854L80.8197 70.1533C80.6875 70.1533 83.3323 70.1533 83.2 70.1533Z" fill="black"/>
<path d="M55.4299 89.0428L54.372 89.5749C54.2398 89.5749 54.1075 89.5749 53.9753 89.5749L53.0496 89.0428C52.9174 88.9097 52.9174 88.9097 53.0496 88.7767L54.1075 88.2446C54.2398 88.2446 54.372 88.2446 54.5042 88.2446L55.4299 88.7767C55.5621 88.9097 55.5621 89.0428 55.4299 89.0428Z" fill="black"/>
<path d="M52.9175 90.5061L51.8595 91.0382C51.7273 91.0382 51.5951 91.0382 51.4628 91.0382L50.5372 90.5061C50.4049 90.3731 50.4049 90.3731 50.5372 90.2401L51.5951 89.708C51.7273 89.708 51.8595 89.708 51.9918 89.708L52.9175 90.2401C53.0497 90.3731 53.0497 90.5061 52.9175 90.5061Z" fill="black"/>
<path d="M57.9426 87.5794L56.8847 88.1115C56.7524 88.1115 56.6202 88.1115 56.488 88.1115L55.5623 87.5794C55.4301 87.4464 55.4301 87.4464 55.5623 87.3134L56.6202 86.7812C56.7524 86.7812 56.8847 86.7812 57.0169 86.7812L57.9426 87.3134C58.0748 87.4464 58.0748 87.5794 57.9426 87.5794Z" fill="black"/>
<path d="M60.4551 86.1165L59.3971 86.6486C59.2649 86.6486 59.1327 86.6486 59.0004 86.6486L58.0748 86.1165C57.9425 85.9835 57.9425 85.9835 58.0748 85.8505L59.1327 85.3184C59.2649 85.3184 59.3971 85.3184 59.5294 85.3184L60.4551 85.8505C60.5873 85.9835 60.5873 86.1165 60.4551 86.1165Z" fill="black"/>
<path d="M62.9675 84.6531L61.9096 85.1852C61.7774 85.1852 61.6451 85.1852 61.5129 85.1852L60.5872 84.6531C60.455 84.5201 60.455 84.5201 60.5872 84.3871L61.6451 83.855C61.7774 83.855 61.9096 83.855 62.0418 83.855L62.9675 84.3871C63.0997 84.5201 63.0997 84.6531 62.9675 84.6531Z" fill="black"/>
<path d="M65.4799 83.19L64.422 83.8551C64.2898 83.8551 64.1576 83.8551 64.0253 83.8551L63.0997 83.323C62.9674 83.19 62.9674 83.19 63.0997 83.057L64.1576 82.5249C64.2898 82.5249 64.422 82.5249 64.5543 82.5249L65.4799 83.057C65.6122 83.057 65.6122 83.19 65.4799 83.19Z" fill="black"/>
<path d="M67.9926 81.7264L66.9347 82.2585C66.8025 82.2585 66.6703 82.2585 66.538 82.2585L65.6124 81.7264C65.4801 81.5933 65.4801 81.5933 65.6124 81.4603L66.6703 80.9282C66.8025 80.9282 66.9347 80.9282 67.067 80.9282L67.9926 81.4603C68.1249 81.5933 68.1249 81.7264 67.9926 81.7264Z" fill="black"/>
<path d="M70.5051 80.2635L69.4472 80.7956C69.315 80.7956 69.1827 80.7956 69.0505 80.7956L68.1248 80.2635C67.9926 80.1305 67.9926 80.1304 68.1248 79.9974L69.1827 79.4653C69.315 79.4653 69.4472 79.4653 69.5794 79.4653L70.5051 79.9974C70.6373 80.1304 70.6373 80.2635 70.5051 80.2635Z" fill="black"/>
<path d="M73.0175 78.8001L71.9596 79.3322C71.8274 79.3322 71.6952 79.3322 71.5629 79.3322L70.6373 78.8001C70.505 78.6671 70.505 78.6671 70.6373 78.534L71.6952 78.002C71.8274 78.002 71.9596 78.002 72.0919 78.002L73.0175 78.534C73.1498 78.6671 73.1498 78.8001 73.0175 78.8001Z" fill="black"/>
<path d="M75.5302 77.337L74.4723 78.0021C74.3401 78.0021 74.2079 78.0021 74.0756 78.0021L73.15 77.47C73.0177 77.337 73.0177 77.337 73.15 77.204L74.2079 76.6719C74.3401 76.6719 74.4723 76.6719 74.6046 76.6719L75.5302 77.204C75.6625 77.204 75.6625 77.337 75.5302 77.337Z" fill="black"/>
<path d="M78.0427 75.8733L76.9848 76.4054C76.8526 76.4054 76.7203 76.4054 76.5881 76.4054L75.6624 75.8733C75.5302 75.7403 75.5302 75.7403 75.6624 75.6073L76.7203 75.0752C76.8526 75.0752 76.9848 75.0752 77.117 75.0752L78.0427 75.6073C78.1749 75.7403 78.1749 75.8733 78.0427 75.8733Z" fill="black"/>
<path d="M80.5551 74.4102L79.4972 74.9423C79.365 74.9423 79.2328 74.9423 79.1005 74.9423L78.1749 74.5433C78.0426 74.4102 78.0426 74.4102 78.1749 74.2772L79.2328 73.7451C79.365 73.7451 79.4972 73.7451 79.6295 73.7451L80.5551 74.2772C80.6874 74.2772 80.6874 74.4102 80.5551 74.4102Z" fill="black"/>
<path d="M83.0678 72.9471L82.0099 73.4792C81.8777 73.4792 81.7455 73.4792 81.6132 73.4792L80.6876 72.9471C80.5553 72.814 80.5553 72.814 80.6876 72.681L81.7455 72.1489C81.8777 72.1489 82.0099 72.1489 82.1422 72.1489L83.0678 72.681C83.2001 72.814 83.2001 72.9471 83.0678 72.9471Z" fill="black"/>
<path d="M85.5803 71.617L84.5224 72.1491C84.3901 72.1491 84.2579 72.1491 84.1257 72.1491L83.2 71.617C83.0678 71.484 83.0678 71.484 83.2 71.3509L84.2579 70.8188C84.3902 70.8188 84.5224 70.8188 84.6546 70.8188L85.5803 71.3509C85.7125 71.3509 85.7125 71.484 85.5803 71.617Z" fill="black"/>
<path d="M87.035 70.6854C86.9027 70.6854 86.7705 70.6854 86.6383 70.6854L85.7126 70.1533C85.5804 70.0203 87.035 70.6854 87.035 70.6854Z" fill="black"/>
<path d="M57.8103 90.5061L56.7524 91.0382C56.6201 91.0382 56.4879 91.0382 56.3557 91.0382L55.43 90.5061C55.2978 90.3731 55.2978 90.3731 55.43 90.2401L56.4879 89.708C56.6201 89.708 56.7524 89.708 56.8846 89.708L57.8103 90.2401C57.9425 90.2401 57.9425 90.3731 57.8103 90.5061Z" fill="black"/>
<path d="M55.2978 91.9695L54.2399 92.5016C54.1077 92.5016 53.9754 92.5016 53.8432 92.5016L52.9175 91.9695C52.7853 91.8365 52.7853 91.8365 52.9175 91.7035L53.9754 91.1714C54.1077 91.1714 54.2399 91.1714 54.3722 91.1714L55.2978 91.7035C55.4301 91.7035 55.4301 91.8365 55.2978 91.9695Z" fill="black"/>
<path d="M60.3227 89.0428L59.2648 89.5749C59.1326 89.5749 59.0003 89.5749 58.8681 89.5749L57.9424 89.0428C57.8102 88.9097 57.8102 88.9097 57.9424 88.7767L59.0003 88.2446C59.1326 88.2446 59.2648 88.2446 59.3971 88.2446L60.3227 88.7767C60.455 88.7767 60.455 88.9097 60.3227 89.0428Z" fill="black"/>
<path d="M62.8352 87.5794L61.7773 88.1115C61.645 88.1115 61.5128 88.1115 61.3806 88.1115L60.4549 87.5794C60.3227 87.4464 60.3227 87.4464 60.4549 87.3134L61.5128 86.7812C61.645 86.7812 61.7773 86.7812 61.9095 86.7812L62.8352 87.3134C62.9674 87.3134 62.9674 87.4464 62.8352 87.5794Z" fill="black"/>
<path d="M65.3479 86.1165L64.29 86.6486C64.1577 86.6486 64.0255 86.6486 63.8933 86.6486L62.9676 86.1165C62.8353 85.9835 62.8353 85.9835 62.9676 85.8505L64.0255 85.3184C64.1577 85.3184 64.29 85.3184 64.4222 85.3184L65.3479 85.8505C65.4801 85.8505 65.4801 85.9835 65.3479 86.1165Z" fill="black"/>
<path d="M67.8603 84.6531L66.8024 85.1852C66.6702 85.1852 66.5379 85.1852 66.4057 85.1852L65.48 84.6531C65.3478 84.5201 65.3478 84.5201 65.48 84.3871L66.5379 83.855C66.6702 83.855 66.8024 83.855 66.9347 83.855L67.8603 84.3871C67.9926 84.3871 67.9926 84.5201 67.8603 84.6531Z" fill="black"/>
<path d="M70.3728 83.1897L69.3149 83.7218C69.1826 83.7218 69.0504 83.7218 68.9182 83.7218L67.9925 83.1897C67.8603 83.0567 67.8603 83.0567 67.9925 82.9237L69.0504 82.3916C69.1826 82.3916 69.3149 82.3916 69.4471 82.3916L70.3728 82.9237C70.505 82.9237 70.505 83.0567 70.3728 83.1897Z" fill="black"/>
<path d="M72.8855 81.7264L71.8276 82.2585C71.6953 82.2585 71.5631 82.2585 71.4309 82.2585L70.5052 81.7264C70.3729 81.5933 70.3729 81.5933 70.5052 81.4603L71.5631 80.9282C71.6953 80.9282 71.8276 80.9282 71.9598 80.9282L72.8855 81.4603C73.0177 81.4603 73.0177 81.5933 72.8855 81.7264Z" fill="black"/>
<path d="M75.3979 80.2635L74.34 80.7956C74.2078 80.7956 74.0755 80.7956 73.9433 80.7956L73.0176 80.2635C72.8854 80.1305 72.8854 80.1304 73.0176 79.9974L74.0755 79.4653C74.2078 79.4653 74.34 79.4653 74.4723 79.4653L75.3979 79.9974C75.5302 80.1304 75.5302 80.1305 75.3979 80.2635Z" fill="black"/>
<path d="M77.9106 78.8001L76.8527 79.3322C76.7205 79.3322 76.5882 79.3322 76.456 79.3322L75.5303 78.8001C75.3981 78.6671 75.3981 78.6671 75.5303 78.534L76.5882 78.002C76.7205 78.002 76.8527 78.002 76.985 78.002L77.9106 78.534C78.0428 78.6671 78.0428 78.6671 77.9106 78.8001Z" fill="black"/>
<path d="M80.4231 77.3367L79.3652 77.8688C79.2329 77.8688 79.1007 77.8688 78.9684 77.8688L78.0428 77.3367C77.9105 77.2037 77.9105 77.2037 78.0428 77.0707L79.1007 76.5386C79.2329 76.5386 79.3652 76.5386 79.4974 76.5386L80.4231 77.0707C80.5553 77.2037 80.5553 77.2037 80.4231 77.3367Z" fill="black"/>
<path d="M82.9355 75.8733L81.8776 76.4054C81.7454 76.4054 81.6131 76.4054 81.4809 76.4054L80.5552 75.8733C80.423 75.7403 80.423 75.7403 80.5552 75.6073L81.6131 75.0752C81.7454 75.0752 81.8776 75.0752 82.0099 75.0752L82.9355 75.6073C83.0678 75.7403 83.0678 75.7403 82.9355 75.8733Z" fill="black"/>
<path d="M85.448 74.41L84.3901 74.942C84.2578 74.942 84.1256 74.942 83.9934 74.942L83.0677 74.41C82.9354 74.2769 82.9354 74.2769 83.0677 74.1439L84.1256 73.6118C84.2578 73.6118 84.3901 73.6118 84.5223 73.6118L85.448 74.1439C85.5802 74.2769 85.5802 74.2769 85.448 74.41Z" fill="black"/>
<path d="M87.9604 72.9471L86.9025 73.4792C86.7703 73.4792 86.638 73.4792 86.5058 73.4792L85.5801 72.9471C85.4479 72.814 85.4479 72.814 85.5801 72.681L86.638 72.1489C86.7703 72.1489 86.9025 72.1489 87.0347 72.1489L87.9604 72.681C88.0926 72.814 88.0926 72.814 87.9604 72.9471Z" fill="black"/>
<path d="M89.5474 70.6857L90.4731 71.2178C90.6053 71.3508 90.6053 71.3508 90.4731 71.4839L89.4152 72.0159C89.283 72.0159 89.1507 72.0159 89.0185 72.0159L88.0928 71.4839C87.9606 71.3508 87.9606 71.3508 88.0928 71.2178L89.1507 70.6857C89.1507 70.5527 89.4152 70.5527 89.5474 70.6857Z" fill="black"/>
<path d="M60.3227 91.9695L59.2648 92.5016C59.1326 92.5016 59.0003 92.5016 58.8681 92.5016L57.9424 91.9695C57.8102 91.8365 57.8102 91.8365 57.9424 91.7035L59.0003 91.1714C59.1326 91.1714 59.2648 91.1714 59.3971 91.1714L60.3227 91.7035C60.455 91.7035 60.455 91.8365 60.3227 91.9695Z" fill="black"/>
<path d="M57.8103 93.4324L56.7524 93.9645C56.6201 93.9645 56.4879 93.9645 56.3557 93.9645L55.43 93.4324C55.2978 93.2994 55.2978 93.2994 55.43 93.1664L56.4879 92.6343C56.6201 92.6343 56.7524 92.6343 56.8846 92.6343L57.8103 93.1664C57.9425 93.1664 57.9425 93.2994 57.8103 93.4324Z" fill="black"/>
<path d="M62.8352 90.5061L61.7773 91.0382C61.645 91.0382 61.5128 91.0382 61.3806 91.0382L60.4549 90.5061C60.3227 90.3731 60.3227 90.3731 60.4549 90.2401L61.5128 89.708C61.645 89.708 61.7773 89.708 61.9095 89.708L62.8352 90.2401C62.9674 90.2401 62.9674 90.3731 62.8352 90.5061Z" fill="black"/>
<path d="M65.3479 89.0428L64.29 89.5749C64.1577 89.5749 64.0255 89.5749 63.8933 89.5749L62.9676 89.0428C62.8353 88.9097 62.8353 88.9097 62.9676 88.7767L64.0255 88.2446C64.1577 88.2446 64.29 88.2446 64.4222 88.2446L65.3479 88.7767C65.4801 88.7767 65.4801 88.9097 65.3479 89.0428Z" fill="black"/>
<path d="M67.8603 87.5794L66.8024 88.1115C66.6702 88.1115 66.5379 88.1115 66.4057 88.1115L65.48 87.5794C65.3478 87.4464 65.3478 87.4464 65.48 87.3134L66.5379 86.7812C66.6702 86.7812 66.8024 86.7812 66.9347 86.7812L67.8603 87.3134C67.9926 87.3134 67.9926 87.4464 67.8603 87.5794Z" fill="black"/>
<path d="M70.3728 86.1165L69.3149 86.6486C69.1826 86.6486 69.0504 86.6486 68.9182 86.6486L67.9925 86.1165C67.8603 85.9835 67.8603 85.9835 67.9925 85.8505L69.0504 85.3184C69.1826 85.3184 69.3149 85.3184 69.4471 85.3184L70.3728 85.8505C70.505 85.8505 70.505 85.9835 70.3728 86.1165Z" fill="black"/>
<path d="M72.8855 84.6531L71.8276 85.1852C71.6953 85.1852 71.5631 85.1852 71.4309 85.1852L70.5052 84.6531C70.3729 84.5201 70.3729 84.5201 70.5052 84.3871L71.5631 83.855C71.6953 83.855 71.8276 83.855 71.9598 83.855L72.8855 84.3871C73.0177 84.3871 73.0177 84.5201 72.8855 84.6531Z" fill="black"/>
<path d="M75.3979 83.1897L74.34 83.7218C74.2078 83.7218 74.0755 83.7218 73.9433 83.7218L73.0176 83.1897C72.8854 83.0567 72.8854 83.0567 73.0176 82.9237L74.0755 82.3916C74.2078 82.3916 74.34 82.3916 74.4723 82.3916L75.3979 82.9237C75.5302 83.0567 75.5302 83.0567 75.3979 83.1897Z" fill="black"/>
<path d="M77.9106 81.7264L76.8527 82.2585C76.7205 82.2585 76.5882 82.2585 76.456 82.2585L75.5303 81.7264C75.3981 81.5933 75.3981 81.5933 75.5303 81.4603L76.5882 80.9282C76.7205 80.9282 76.8527 80.9282 76.985 80.9282L77.9106 81.4603C78.0428 81.5933 78.0428 81.5933 77.9106 81.7264Z" fill="black"/>
<path d="M80.4231 80.2635L79.3652 80.7956C79.2329 80.7956 79.1007 80.7956 78.9684 80.7956L78.0428 80.2635C77.9105 80.1305 77.9105 80.1304 78.0428 79.9974L79.1007 79.4653C79.2329 79.4653 79.3652 79.4653 79.4974 79.4653L80.4231 79.9974C80.5553 80.1304 80.5553 80.1305 80.4231 80.2635Z" fill="black"/>
<path d="M82.9355 78.8001L81.8776 79.3322C81.7454 79.3322 81.6131 79.3322 81.4809 79.3322L80.5552 78.8001C80.423 78.6671 80.423 78.6671 80.5552 78.534L81.6131 78.002C81.7454 78.002 81.8776 78.002 82.0099 78.002L82.9355 78.534C83.0678 78.6671 83.0678 78.6671 82.9355 78.8001Z" fill="black"/>
<path d="M85.448 77.3367L84.3901 77.8688C84.2578 77.8688 84.1256 77.8688 83.9934 77.8688L83.0677 77.3367C82.9354 77.2037 82.9354 77.2037 83.0677 77.0707L84.1256 76.5386C84.2578 76.5386 84.3901 76.5386 84.5223 76.5386L85.448 77.0707C85.5802 77.2037 85.5802 77.2037 85.448 77.3367Z" fill="black"/>
<path d="M87.9604 75.8733L86.9025 76.4054C86.7703 76.4054 86.638 76.4054 86.5058 76.4054L85.5801 75.8733C85.4479 75.7403 85.4479 75.7403 85.5801 75.6073L86.638 75.0752C86.7703 75.0752 86.9025 75.0752 87.0347 75.0752L87.9604 75.6073C88.0926 75.7403 88.0926 75.7403 87.9604 75.8733Z" fill="black"/>
<path d="M90.4731 74.41L89.4152 74.942C89.283 74.942 89.1507 74.942 89.0185 74.942L88.0928 74.41C87.9606 74.2769 87.9606 74.2769 88.0928 74.1439L89.1507 73.6118C89.283 73.6118 89.4152 73.6118 89.5474 73.6118L90.4731 74.1439C90.6053 74.2769 90.6053 74.2769 90.4731 74.41Z" fill="black"/>
<path d="M92.9856 72.9471L91.9277 73.4792C91.7954 73.4792 91.6632 73.4792 91.531 73.4792L90.6053 72.9471C90.473 72.814 90.473 72.814 90.6053 72.681L91.6632 72.1489C91.7954 72.1489 91.9277 72.1489 92.0599 72.1489L92.9856 72.681C93.1178 72.814 93.1178 72.9471 92.9856 72.9471Z" fill="black"/>
<path d="M62.7031 93.2996L61.6452 93.8317C61.513 93.8317 61.3807 93.8317 61.2485 93.8317L60.3228 93.2996C60.1906 93.1666 60.1906 93.1666 60.3228 93.0336L61.3807 92.5015C61.513 92.5015 61.6452 92.5015 61.7774 92.5015L62.7031 93.0336C62.8353 93.1666 62.8353 93.2996 62.7031 93.2996Z" fill="black"/>
<path d="M60.1904 94.763L59.1325 95.2951C59.0003 95.2951 58.868 95.2951 58.7358 95.2951L57.8101 94.763C57.6779 94.63 57.6779 94.63 57.8101 94.4969L58.868 93.9648C59.0003 93.9648 59.1325 93.9648 59.2647 93.9648L60.1904 94.4969C60.3226 94.63 60.3226 94.763 60.1904 94.763Z" fill="black"/>
<path d="M65.2155 91.8362L64.1576 92.3683C64.0254 92.3683 63.8932 92.3683 63.7609 92.3683L62.8353 91.8362C62.703 91.7032 62.703 91.7032 62.8353 91.5702L63.8932 91.0381C64.0254 91.0381 64.1576 91.0381 64.2899 91.0381L65.2155 91.5702C65.3478 91.7032 65.3478 91.8362 65.2155 91.8362Z" fill="black"/>
<path d="M67.7282 90.3729L66.6703 90.905C66.5381 90.905 66.4059 90.905 66.2736 90.905L65.348 90.3729C65.2157 90.2398 65.2157 90.2398 65.348 90.1068L66.4059 89.5747C66.5381 89.5747 66.6703 89.5747 66.8026 89.5747L67.7282 90.1068C67.8605 90.2398 67.8605 90.3729 67.7282 90.3729Z" fill="black"/>
<path d="M70.2407 88.91L69.1828 89.5751C69.0505 89.5751 68.9183 89.5751 68.7861 89.5751L67.8604 88.91C67.7282 88.7769 67.7282 88.7769 67.8604 88.6439L68.9183 88.1118C69.0505 88.1118 69.1828 88.1118 69.315 88.1118L70.2407 88.6439C70.3729 88.7769 70.3729 88.91 70.2407 88.91Z" fill="black"/>
<path d="M72.7531 87.4466L71.6952 87.9787C71.563 87.9787 71.4308 87.9787 71.2985 87.9787L70.3729 87.4466C70.2406 87.3136 70.2406 87.3136 70.3729 87.1805L71.4308 86.6484C71.563 86.6484 71.6952 86.6484 71.8275 86.6484L72.7531 87.1805C72.8854 87.3136 72.8854 87.4466 72.7531 87.4466Z" fill="black"/>
<path d="M75.2658 85.9832L74.2079 86.5153C74.0757 86.5153 73.9435 86.5153 73.8112 86.5153L72.8856 85.9832C72.7533 85.8502 72.7533 85.8502 72.8856 85.7172L73.9435 85.1851C74.0757 85.1851 74.2079 85.1851 74.3402 85.1851L75.2658 85.7172C75.3981 85.8502 75.3981 85.9832 75.2658 85.9832Z" fill="black"/>
<path d="M77.7784 84.5201L76.8527 85.1852C76.7205 85.1852 76.5882 85.1852 76.456 85.1852L75.5303 84.6531C75.3981 84.5201 75.3981 84.5201 75.5303 84.3871L76.5882 83.855C76.7205 83.855 76.8527 83.855 76.985 83.855L77.9106 84.3871C77.9106 84.3871 77.9106 84.5201 77.7784 84.5201Z" fill="black"/>
<path d="M80.2907 83.0569L79.2328 83.589C79.1006 83.589 78.9684 83.589 78.8361 83.589L77.9105 83.0569C77.7782 82.9239 77.7782 82.9239 77.9105 82.7909L78.9684 82.2588C79.1006 82.2588 79.2328 82.2588 79.3651 82.2588L80.2907 82.7909C80.423 82.9239 80.423 83.0569 80.2907 83.0569Z" fill="black"/>
<path d="M82.8034 81.5935L81.7455 82.1256C81.6133 82.1256 81.4811 82.1256 81.3488 82.1256L80.4232 81.5935C80.2909 81.4605 80.2909 81.4605 80.4232 81.3275L81.4811 80.7954C81.6133 80.7954 81.7455 80.7954 81.8778 80.7954L82.8034 81.3275C82.9357 81.4605 82.9357 81.5935 82.8034 81.5935Z" fill="black"/>
<path d="M85.3159 80.1302L84.258 80.6623C84.1257 80.6623 83.9935 80.6623 83.8613 80.6623L82.9356 80.1302C82.8034 79.9972 82.8034 79.9972 82.9356 79.8641L83.9935 79.332C84.1257 79.332 84.258 79.332 84.3902 79.332L85.3159 79.8641C85.4481 79.9972 85.4481 80.1302 85.3159 80.1302Z" fill="black"/>
<path d="M87.8283 78.6668L86.7704 79.1989C86.6382 79.1989 86.5059 79.1989 86.3737 79.1989L85.4481 78.6668C85.3158 78.5338 85.3158 78.5338 85.4481 78.4008L86.5059 77.8687C86.6382 77.8687 86.7704 77.8687 86.9027 77.8687L87.8283 78.4008C87.9606 78.5338 87.9606 78.6668 87.8283 78.6668Z" fill="black"/>
<path d="M90.3408 77.2039L89.2829 77.736C89.1506 77.736 89.0184 77.736 88.8862 77.736L87.9605 77.2039C87.8283 77.0709 87.8283 77.0709 87.9605 76.9379L89.0184 76.4058C89.1507 76.4058 89.2829 76.4058 89.4151 76.4058L90.3408 76.9379C90.473 77.0709 90.473 77.2039 90.3408 77.2039Z" fill="black"/>
<path d="M92.8535 75.7405L91.7956 76.2726C91.6633 76.2726 91.5311 76.2726 91.3989 76.2726L90.4732 75.7405C90.341 75.6075 90.341 75.6075 90.4732 75.4745L91.5311 74.9424C91.6633 74.9424 91.7956 74.9424 91.9278 74.9424L92.8535 75.4745C92.9857 75.6075 92.9857 75.7405 92.8535 75.7405Z" fill="black"/>
<path d="M90.7376 28.2511L53.9755 49.6679L17.2134 28.2511L53.9755 6.96729L90.7376 28.2511Z" fill="white"/>
<path d="M53.9754 50.3331L53.7109 50.067L16.6843 28.5172V27.9851L16.9488 27.8521L53.9754 6.30225L54.2399 6.43527L91.2665 27.9851V28.5172L91.002 28.6502L53.9754 50.3331ZM18.1389 28.2511L53.9754 49.0028L89.8119 28.2511L53.9754 7.49946L18.1389 28.2511Z" fill="black"/>
<path d="M53.9754 92.5012L17.0811 71.0844V28.3838L53.8432 49.8006L53.9754 92.5012Z" fill="#849BAF"/>
<path d="M53.9754 93.0334L53.7109 92.9004L16.6843 71.3505V71.0845V27.9848L17.2133 27.7188L17.4778 27.8518L54.5044 49.4016V49.6677V92.7673L53.9754 93.0334ZM17.61 70.8184L53.4464 91.5701V49.9337L17.61 29.182V70.8184Z" fill="black"/>
<path d="M90.7377 71.0846L53.9756 92.5014V49.6678L90.7377 28.251V71.0846Z" fill="black"/>
<path d="M53.9754 93.1664L53.3142 92.7673V92.3683V49.4016L53.5787 49.2686L90.7375 27.7188L91.3987 28.1178V28.5169V71.6166L91.1342 71.7496L53.9754 93.1664ZM54.5044 50.0667V91.4371L90.2086 70.6854V29.315L54.5044 50.0667Z" fill="black"/>
<path d="M66.009 77.4698V43.4158H66.8025V75.0754L67.8604 73.6121L68.9183 74.5433L70.5051 72.2819L71.6953 73.2131L73.4144 70.6856L74.34 71.7498L75.9269 69.2224L76.9848 70.2865L77.9104 69.2224V36.4985H78.7039V69.4884L76.9848 71.4838L76.0591 70.5526L74.6045 72.947L73.5466 72.0159L71.9597 74.4103L70.6374 73.3461L68.9183 75.6075L67.9926 74.8094L66.009 77.4698Z" fill="#849BAF"/>
<path d="M82.6709 54.9883L76.588 58.4469C75.6623 58.979 74.8689 58.5799 74.8689 57.3827V47.539C74.8689 46.3417 75.6623 45.0115 76.588 44.4794L82.6709 41.0208C83.5966 40.4887 84.39 40.8878 84.39 42.085V51.9287C84.39 52.9929 83.5966 54.4562 82.6709 54.9883Z" fill="black"/>
<path d="M75.7948 59.1122C75.5303 59.1122 75.3981 59.1122 75.1336 58.9792C74.6046 58.7132 74.4724 58.1811 74.4724 57.5159V47.6722C74.4724 46.342 75.3981 44.8787 76.456 44.2136L82.5389 40.755C83.2001 40.3559 83.7291 40.3559 84.1258 40.6219C84.6547 40.888 84.787 41.4201 84.787 42.0852V51.929C84.787 53.2592 83.8613 54.7224 82.8034 55.3876L76.7205 58.8462C76.456 58.9792 76.1915 59.1122 75.7948 59.1122ZM83.4646 41.154C83.3323 41.154 83.0679 41.154 82.9356 41.2871L76.8527 44.7457C76.0593 45.2778 75.2658 46.475 75.2658 47.5392V57.3829C75.2658 57.782 75.3981 58.048 75.5303 58.1811C75.7948 58.3141 76.0593 58.3141 76.3237 58.048L82.4067 54.5894C83.2001 54.0573 83.9935 52.8601 83.9935 51.7959V41.9522C83.9935 41.5531 83.8613 41.2871 83.7291 41.154C83.5968 41.2871 83.5968 41.154 83.4646 41.154Z" fill="#849BAF"/>
<path d="M85.9771 64.8326L82.9357 66.5619C82.4067 66.828 82.01 66.5619 82.01 66.0298V61.241C82.01 60.7089 82.4067 60.0438 82.9357 59.6447L85.9771 57.9154C86.5061 57.6494 86.9028 57.9154 86.9028 58.4475V63.3694C86.7706 63.9015 86.3739 64.5666 85.9771 64.8326Z" fill="black"/>
<path d="M82.539 67.227C82.4068 67.227 82.2746 67.227 82.1423 67.0939C81.8778 66.9609 81.7456 66.5618 81.7456 66.1628V61.2409C81.7456 60.5758 82.2746 59.6446 82.8035 59.3786L85.845 57.6492C86.2417 57.3832 86.6384 57.3832 86.9029 57.6492C87.1674 57.7823 87.2996 58.1813 87.2996 58.5804V63.5023C87.2996 64.1674 86.7706 65.0986 86.2417 65.3646L83.2002 67.0939C82.9357 67.0939 82.6713 67.227 82.539 67.227ZM86.3739 58.1813C86.3739 58.1813 86.2417 58.1813 86.2417 58.3144L83.2002 60.0437C82.8035 60.1767 82.4068 60.8418 82.4068 61.2409V66.1628C82.4068 66.2958 82.4068 66.4288 82.4068 66.4288C82.4068 66.4288 82.539 66.4288 82.6713 66.4288L85.7127 64.6995C86.1095 64.4335 86.3739 63.9014 86.3739 63.5023V58.5804C86.3739 58.3144 86.3739 58.1813 86.3739 58.1813Z" fill="#849BAF"/>
<path d="M75.7946 63.6353C73.9433 64.6995 72.3564 63.9013 72.3564 61.6399V59.6446C72.3564 57.5162 73.8111 54.8557 75.7946 53.7915C77.646 52.7273 79.2328 53.5255 79.2328 55.7869V57.7822C79.2328 59.7776 77.646 62.4381 75.7946 63.6353Z" fill="black"/>
<path d="M74.2078 64.4334C73.811 64.4334 73.4143 64.3003 73.1499 64.1673C72.3564 63.7682 71.9597 62.8371 71.9597 61.6399V59.6445C71.9597 57.3831 73.5466 54.5896 75.5301 53.3924C76.588 52.7273 77.5137 52.7273 78.3071 53.1264C79.1006 53.5254 79.4973 54.4566 79.4973 55.6538V57.6492C79.4973 59.9106 77.9104 62.7041 75.9269 63.9013C75.3979 64.3003 74.7367 64.4334 74.2078 64.4334ZM77.2492 53.6584C76.8525 53.6584 76.4558 53.7915 75.9269 54.0575C74.2078 55.1217 72.7531 57.5161 72.7531 59.6445V61.6399C72.7531 62.571 73.0176 63.2362 73.5466 63.5022C74.0755 63.7682 74.7367 63.7682 75.5301 63.2362C77.2492 62.172 78.7038 59.7775 78.7038 57.6492V55.6538C78.7038 54.7226 78.4394 54.0575 77.9104 53.7915C77.7782 53.6584 77.5137 53.6584 77.2492 53.6584Z" fill="#849BAF"/>
<path d="M46.216 44.7953L45.6465 45.1333L49.1411 51.0911L49.7105 50.7531L46.216 44.7953Z" fill="black"/>
<path d="M43.5294 43.6992L42.96 44.0371L49.2086 54.6924L49.7781 54.3545L43.5294 43.6992Z" fill="black"/>
<path d="M43.55 47.3056L42.9805 47.6436L49.2291 58.2989L49.7986 57.9609L43.55 47.3056Z" fill="black"/>
<path d="M43.6859 50.8398L43.1165 51.1777L49.3651 61.833L49.9346 61.4951L43.6859 50.8398Z" fill="black"/>
<path d="M43.6383 54.333L43.0688 54.6709L49.3175 65.3262L49.887 64.9883L43.6383 54.333Z" fill="black"/>
<path d="M43.6464 57.8037L43.0769 58.1416L49.3256 68.7969L49.8951 68.459L43.6464 57.8037Z" fill="black"/>
<path d="M43.6664 61.4106L43.0969 61.7485L49.3456 72.4039L49.9151 72.0659L43.6664 61.4106Z" fill="black"/>
<path d="M43.8029 64.9443L43.2334 65.2822L49.4821 75.9375L50.0516 75.5996L43.8029 64.9443Z" fill="black"/>
<path d="M43.8273 68.5507L43.2578 68.8887L49.5077 79.544L50.0772 79.206L43.8273 68.5507Z" fill="black"/>
<path d="M43.8061 72.2997L43.2366 72.6377L49.4852 83.293L50.0547 82.9551L43.8061 72.2997Z" fill="black"/>
<path d="M43.8288 75.9013L43.2593 76.2393L49.508 86.8946L50.0774 86.5566L43.8288 75.9013Z" fill="black"/>
<path d="M43.9672 79.4403L43.3977 79.7783L49.6476 90.4336L50.2171 90.0956L43.9672 79.4403Z" fill="black"/>
<path d="M43.9245 83.0034L43.355 83.3413L46.177 88.1534L46.7464 87.8154L43.9245 83.0034Z" fill="black"/>
<path d="M38.5037 67.7589C39.6938 69.7542 39.6938 71.8826 38.5037 72.5477C37.3136 73.2129 35.4622 72.1487 34.4043 70.1533C33.2142 68.158 33.2142 66.0296 34.4043 65.3645C35.5945 64.6993 37.4458 65.7635 38.5037 67.7589Z" fill="#849BAF"/>
<path d="M37.7104 73.2127C37.1814 73.2127 36.7847 73.0797 36.2558 72.8136C35.4623 72.2815 34.6689 71.4834 34.0077 70.4192C32.6854 68.1578 32.8176 65.8964 34.14 65.0982C34.8012 64.6992 35.7268 64.8322 36.6525 65.3643C37.4459 65.8964 38.2393 66.6945 38.9005 67.7587C40.2229 70.0201 40.0907 72.2815 38.7683 73.0797C38.5038 73.0797 38.1071 73.2127 37.7104 73.2127ZM35.1979 65.6303C34.9334 65.6303 34.8012 65.6303 34.6689 65.7634C33.7433 66.2955 33.7433 68.2908 34.8012 70.0201C35.3301 70.9513 35.9913 71.6164 36.6525 72.0155C37.3137 72.4145 37.8426 72.4145 38.3716 72.2815C39.2972 71.7494 39.2972 69.7541 38.2393 68.0248C37.7104 67.0936 37.0492 66.4285 36.388 66.0294C35.8591 65.6303 35.4623 65.6303 35.1979 65.6303Z" fill="black"/>
<path d="M30.0404 59.1121L24.3542 55.7865C23.693 55.3874 23.1641 54.4563 23.1641 53.6581V47.14C23.1641 46.3418 23.693 46.0758 24.3542 46.4748L30.0404 49.8004C30.7016 50.1995 31.2306 51.1307 31.2306 51.9288V58.447C31.3628 59.1121 30.7016 59.5112 30.0404 59.1121Z" fill="#849BAF"/>
<path d="M30.5694 59.6443C30.3049 59.6443 30.0404 59.5113 29.7759 59.3783L24.222 56.1857C23.4285 55.6536 22.7673 54.5894 22.7673 53.6582V47.1401C22.7673 46.608 23.0318 46.2089 23.2963 45.9429C23.693 45.6768 24.0897 45.8098 24.6187 46.0759L30.3049 49.4015C31.0983 49.9336 31.7595 50.9978 31.7595 51.9289V58.4471C31.7595 58.9792 31.495 59.3783 31.2306 59.6443C30.9661 59.6443 30.8338 59.6443 30.5694 59.6443ZM23.8252 46.608C23.5608 46.741 23.5608 46.874 23.5608 47.1401V53.6582C23.5608 54.3234 24.0897 55.1215 24.6187 55.5206L30.3049 58.8462C30.4371 58.9792 30.7016 58.9792 30.8338 58.9792C30.9661 58.9792 30.9661 58.7131 30.9661 58.5801V52.062C30.9661 51.3968 30.4371 50.5987 29.9082 50.1996L24.222 46.741C24.0897 46.741 23.9575 46.608 23.8252 46.608Z" fill="black"/>
<path d="M79.2327 29.0491L73.5464 32.3747C72.8853 32.7738 71.8274 32.7738 71.0339 32.3747L65.3477 29.0491C64.6865 28.65 64.6865 27.9849 65.3477 27.5858L71.0339 24.2602C71.6951 23.8612 72.753 23.8612 73.5464 24.2602L79.2327 27.5858C79.8939 27.9849 79.8939 28.65 79.2327 29.0491Z" fill="#849BAF"/>
<path d="M72.3563 33.0396C71.8274 33.0396 71.2984 32.9066 70.9017 32.6405L65.3477 29.315C64.951 29.0489 64.6865 28.6498 64.6865 28.2508C64.6865 27.8517 64.951 27.4526 65.3477 27.1866L71.0339 23.861C71.8274 23.3289 73.1497 23.3289 73.9432 23.861L79.6294 27.1866C80.0261 27.4526 80.2906 27.8517 80.2906 28.2508C80.2906 28.6498 80.0261 29.0489 79.6294 29.315L73.9432 32.6405C73.4142 32.9066 72.8853 33.0396 72.3563 33.0396ZM72.3563 24.3931C71.9596 24.3931 71.5629 24.5261 71.2984 24.6591L65.7444 27.9847C65.6122 28.1177 65.48 28.2508 65.48 28.3838C65.48 28.5168 65.6122 28.6498 65.7444 28.7829L71.4307 32.1085C71.9596 32.3745 72.8853 32.3745 73.5465 32.1085L79.2327 28.7829C79.3649 28.6498 79.4972 28.5168 79.4972 28.3838C79.4972 28.2508 79.3649 28.1177 79.2327 27.9847L73.5465 24.6591C73.1497 24.5261 72.753 24.3931 72.3563 24.3931Z" fill="black"/>
<path d="M75.3982 32.9064L72.8856 34.3696C72.6212 34.5027 72.0922 34.5027 71.8277 34.3696L69.183 32.9064C68.9185 32.7733 68.9185 32.3743 69.183 32.2413L71.6955 30.778C71.96 30.645 72.4889 30.645 72.7534 30.778L75.2659 32.2413C75.7949 32.5073 75.7949 32.7733 75.3982 32.9064Z" fill="#849BAF"/>
<path d="M72.3564 34.9018C72.0919 34.9018 71.8274 34.9018 71.563 34.7688L68.9182 33.3055C68.6537 33.1725 68.5215 32.9065 68.5215 32.6404C68.5215 32.3744 68.6537 32.1083 68.9182 31.9753L71.4307 30.512C71.8274 30.246 72.4886 30.246 73.0176 30.512L75.5301 31.9753C75.7946 32.1083 75.9268 32.3744 75.9268 32.6404C75.9268 32.9065 75.7946 33.1725 75.5301 33.3055L73.0176 34.7688C72.8853 34.9018 72.6209 34.9018 72.3564 34.9018ZM69.4471 32.6404L71.9597 34.1037C72.0919 34.2367 72.4886 34.2367 72.6209 34.1037L75.1334 32.6404L72.6209 31.1772C72.4886 31.0441 72.0919 31.0441 71.9597 31.1772L69.4471 32.6404Z" fill="black"/>
<path d="M33.8751 53.2591L35.0652 56.7177C35.1975 57.1168 35.462 57.5158 35.8587 57.7819L38.5034 59.7773C39.2969 60.4424 39.6936 61.7726 39.0324 62.0386L37.0488 63.1028C36.7843 63.2359 36.6521 63.5019 36.7843 63.901L37.181 67.2266C37.3133 68.2908 36.5199 68.4238 35.7264 67.6256L33.4784 64.9652C33.2139 64.5661 32.8172 64.4331 32.5527 64.4331L30.1724 64.5661C29.5113 64.5661 28.5856 63.3689 28.7178 62.5707L29.1145 59.7773C29.1145 59.3782 29.1145 58.9791 28.8501 58.58L26.8665 55.2544C26.3375 54.3233 26.602 53.2591 27.3955 53.6582L30.0402 54.7223C30.3047 54.8554 30.7014 54.7224 30.8336 54.5893L32.0238 52.461C32.5527 51.6628 33.6106 52.1949 33.8751 53.2591Z" fill="white"/>
<path d="M36.7847 68.6898C36.388 68.6898 35.9913 68.4238 35.5946 68.0247L33.2143 65.2312C32.9498 64.9652 32.8176 64.8322 32.5531 64.8322L30.1728 64.9652C29.7761 64.9652 29.3794 64.6991 28.9827 64.3001C28.4537 63.768 28.3215 62.9698 28.3215 62.4377L28.7182 59.6442C28.7182 59.3782 28.7182 59.1121 28.4537 58.7131L26.4702 55.3875C26.0734 54.5893 25.9412 53.7912 26.3379 53.3921C26.6024 53.1261 26.9991 52.9931 27.3958 53.1261L30.0406 54.1903C30.1728 54.3233 30.3051 54.1903 30.3051 54.1903L31.4952 52.0619C31.6274 51.7958 32.0242 51.5298 32.4209 51.6628C33.0821 51.6628 33.7432 52.3279 34.0077 53.2591L35.1979 56.7177C35.3301 57.1168 35.5946 57.3828 35.859 57.5159L38.5038 59.5112C39.165 60.0433 39.5617 60.8415 39.5617 61.5066C39.5617 61.9056 39.2972 62.1717 39.0328 62.4377L37.0492 63.5019C37.0492 63.5019 36.917 63.635 36.917 63.901L37.3137 67.2266C37.4459 67.8917 37.1814 68.2908 36.7847 68.5568C37.0492 68.6899 36.917 68.6898 36.7847 68.6898ZM32.5531 64.034C32.9498 64.034 33.3465 64.3001 33.7432 64.6991L36.1235 67.4926C36.388 67.8917 36.6525 67.8917 36.7847 67.8917C36.917 67.8917 36.917 67.7587 36.917 67.4926L36.5202 64.167C36.388 63.635 36.6525 63.1029 37.0492 62.9698L39.0328 61.9056C39.165 61.9056 39.165 61.7726 39.165 61.6396C39.165 61.2405 38.9005 60.5754 38.5038 60.3094L35.859 58.314C35.4623 58.048 35.1979 57.5159 34.9334 57.1168L33.4788 53.3921C33.2143 52.727 32.8176 52.461 32.5531 52.3279H32.4209L31.363 54.5893C31.0985 54.9884 30.5695 55.1214 30.1728 54.9884L27.5281 53.9242C27.3958 53.9242 27.3958 53.9242 27.2636 53.9242C27.1313 54.0573 27.1313 54.4563 27.3958 54.9884L29.3794 58.314C29.6439 58.8461 29.7761 59.3782 29.7761 59.7773L29.3794 62.5708C29.3794 62.9698 29.5116 63.3689 29.7761 63.768C29.9083 64.034 30.1728 64.167 30.3051 64.167L32.5531 64.034Z" fill="black"/>
<path d="M36.1236 50.1998H35.0657V38.7598L72.0923 17.21L72.6212 18.0081L36.1236 39.2919V50.1998Z" fill="black"/>
<path d="M54.9011 27.9849C51.8596 27.9849 27.1312 27.4528 25.5443 9.76061C25.0153 4.83874 26.9989 2.44431 28.5858 1.2471C31.6272 -0.748258 36.52 -0.349187 41.4128 2.44431C48.157 6.16897 55.959 14.9485 55.6945 27.4528V27.9849H55.1656C55.1656 27.9849 55.0333 27.9849 54.9011 27.9849ZM33.0819 1.11407C31.495 1.11407 30.1726 1.51314 29.1147 2.17826C27.1312 3.5085 26.2055 6.16897 26.47 9.62759C28.0568 26.1225 50.934 26.9207 54.6366 26.9207C54.6366 15.0816 47.2313 6.83409 40.8839 3.37548C38.1069 1.91222 35.4621 1.11407 33.0819 1.11407Z" fill="black"/>
<path d="M60.323 29.7141C55.5625 29.7141 54.9013 28.7829 54.7691 28.3838C54.5046 27.9848 54.6368 27.5857 54.6368 27.3196C54.9013 25.9894 58.075 11.3568 66.8027 6.3019C70.1087 4.43957 73.6791 4.17352 77.6462 5.50376C85.9772 8.43028 86.7706 13.0861 86.5061 15.6136C85.845 21.9987 77.7784 27.9848 68.5218 29.0489C64.9514 29.448 62.3066 29.7141 60.323 29.7141ZM55.5625 27.7187C55.5625 27.7187 55.6947 27.8517 55.5625 27.7187C55.827 27.9848 57.4138 29.315 68.3896 27.9848C76.985 27.0536 84.7871 21.3336 85.4482 15.4805C85.845 11.6228 82.9357 8.43028 77.2495 6.43493C73.6791 5.23771 70.2409 5.37074 67.3317 7.10005C58.8684 12.0219 55.6947 27.3196 55.5625 27.4527V27.7187Z" fill="black"/>
<path d="M57.017 42.8835C56.7526 42.8835 56.4881 42.8835 56.2236 42.8835C53.4466 42.6175 51.5953 40.6221 51.0663 37.6956L52.1242 37.5626C52.7854 41.0212 55.0335 41.8194 56.3558 41.9524C58.4716 42.2184 60.7197 41.1542 61.2486 39.824C61.7776 38.4938 60.8519 37.2965 59.9263 36.4984C55.5624 32.9068 54.6367 30.1133 54.5045 28.65C52.2565 30.1133 46.967 33.0398 41.5452 31.0444C39.1649 30.2463 37.9748 30.2463 37.5781 30.7784C37.4458 31.0444 37.4458 31.3105 37.4458 31.4435C37.7103 31.9756 38.3715 32.6407 39.4294 32.6407V33.7049C37.9748 33.5719 36.9169 32.6407 36.5202 31.7096C36.2557 31.0444 36.3879 30.3793 36.7846 29.9802C37.3136 29.3151 38.7682 28.9161 41.9419 30.1133C47.4959 32.1086 53.3144 28.2509 54.5045 27.4528C54.769 27.3198 55.0335 27.3198 55.2979 27.4528C55.5624 27.5858 55.6947 27.8519 55.5624 28.1179C55.4302 28.9161 55.5624 31.5765 60.5875 35.8333C62.8355 37.6956 62.571 39.4249 62.3065 40.3561C61.5131 41.6863 59.3973 42.8835 57.017 42.8835Z" fill="black"/>
<path d="M44.1899 95.8269L43.132 96.359C42.9998 96.359 42.8675 96.359 42.7353 96.359L41.8096 95.8269C41.6774 95.6939 41.6774 95.6939 41.8096 95.5609L42.8675 95.0288C42.9998 95.0288 43.132 95.0288 43.2642 95.0288L44.1899 95.5609C44.3221 95.5609 44.3221 95.6939 44.1899 95.8269Z" fill="black"/>
<path d="M46.7026 94.3636L45.6447 94.8957C45.5125 94.8957 45.3802 94.8957 45.248 94.8957L44.3223 94.3636C44.1901 94.2306 44.1901 94.2305 44.3223 94.0975L45.3802 93.5654C45.5125 93.5654 45.6447 93.5654 45.7769 93.5654L46.7026 94.0975C46.8348 94.0975 46.8348 94.2306 46.7026 94.3636Z" fill="black"/>
<path d="M46.8347 97.2903L45.7768 97.8224C45.6445 97.8224 45.5123 97.8224 45.3801 97.8224L44.4544 97.2903C44.3222 97.1573 44.3222 97.1573 44.4544 97.0243L45.5123 96.4922C45.6445 96.4922 45.7768 96.4922 45.909 96.4922L46.8347 97.0243C46.8347 97.0243 46.8347 97.1573 46.8347 97.2903Z" fill="black"/>
<path d="M44.3222 98.7532L43.2643 99.2853C43.1321 99.2853 42.9999 99.2853 42.8676 99.2853L41.942 98.7532C41.8097 98.6202 41.8097 98.6202 41.942 98.4872L42.9999 97.9551C43.1321 97.9551 43.2643 97.9551 43.3966 97.9551L44.3222 98.4872C44.3222 98.4872 44.3222 98.6202 44.3222 98.7532Z" fill="black"/>
<path d="M49.3471 95.8269L48.2892 96.359C48.1569 96.359 48.0247 96.359 47.8924 96.359L46.8345 95.8269C46.7023 95.6939 46.7023 95.6939 46.8345 95.5609L47.8924 95.0288C48.0247 95.0288 48.1569 95.0288 48.2892 95.0288L49.2148 95.5609C49.3471 95.5609 49.3471 95.6939 49.3471 95.8269Z" fill="black"/>
<path d="M49.215 98.6204L48.1571 99.1525C48.0248 99.1525 47.8926 99.1525 47.7604 99.1525L46.7024 98.6204C46.5702 98.4874 46.5702 98.4874 46.7024 98.3544L47.7604 97.8223C47.8926 97.8223 48.0248 97.8223 48.1571 97.8223L49.0827 98.3544C49.215 98.4874 49.215 98.6204 49.215 98.6204Z" fill="black"/>
<path d="M46.7026 100.084L45.6447 100.616C45.5125 100.616 45.3802 100.616 45.248 100.616L44.3223 100.084C44.1901 99.9508 44.1901 99.9508 44.3223 99.8177L45.3802 99.2856C45.5125 99.2856 45.6447 99.2856 45.7769 99.2856L46.7026 99.8177C46.7026 99.9508 46.7026 100.084 46.7026 100.084Z" fill="black"/>
<path d="M51.5952 100.084L50.5373 100.616C50.405 100.616 50.2728 100.616 50.1406 100.616L49.2149 100.084C49.0827 99.9508 49.0827 99.9508 49.2149 99.8177L50.2728 99.2856C50.405 99.2856 50.5373 99.2856 50.6695 99.2856L51.5952 99.8177C51.5952 99.8177 51.5952 99.9508 51.5952 100.084Z" fill="black"/>
<path d="M49.0827 101.547L48.0248 102.079C47.8926 102.079 47.7604 102.079 47.6281 102.079L46.7024 101.547C46.5702 101.414 46.5702 101.414 46.7024 101.281L47.7604 100.749C47.8926 100.749 48.0248 100.749 48.1571 100.749L49.0827 101.281C49.0827 101.281 49.0827 101.414 49.0827 101.547Z" fill="black"/>
<path d="M54.1079 98.6204L53.05 99.1525C52.9177 99.1525 52.7855 99.1525 52.6533 99.1525L51.7276 98.6204C51.5954 98.4874 51.5954 98.4874 51.7276 98.3544L52.7855 97.8223C52.9177 97.8223 53.05 97.8223 53.1822 97.8223L54.1079 98.3544C54.1079 98.3544 54.1079 98.4874 54.1079 98.6204Z" fill="black"/>
<path d="M56.6202 97.157L55.5623 97.6891C55.4301 97.6891 55.2979 97.6891 55.1656 97.6891L54.1077 97.157C53.9755 97.024 53.9755 97.024 54.1077 96.891L55.1656 96.3589C55.2979 96.3589 55.4301 96.3589 55.5623 96.3589L56.488 96.891C56.6202 96.891 56.6202 97.024 56.6202 97.157Z" fill="black"/>
<path d="M54.1079 101.547L53.05 102.079C52.9177 102.079 52.7855 102.079 52.6533 102.079L51.7276 101.547C51.5954 101.414 51.5954 101.414 51.7276 101.281L52.7855 100.749C52.9177 100.749 53.05 100.749 53.1822 100.749L54.1079 101.281C54.1079 101.281 54.1079 101.414 54.1079 101.547Z" fill="black"/>
<path d="M51.5952 103.01L50.5373 103.542C50.405 103.542 50.2728 103.542 50.1406 103.542L49.2149 103.01C49.0827 102.877 49.0827 102.877 49.2149 102.744L50.2728 102.212C50.405 102.212 50.5373 102.212 50.6695 102.212L51.5952 102.744C51.5952 102.744 51.5952 102.877 51.5952 103.01Z" fill="black"/>
<path d="M56.6206 100.084L55.5627 100.616C55.4304 100.616 55.2982 100.616 55.166 100.616L54.2403 100.084C54.1081 99.9508 54.1081 99.9508 54.2403 99.8177L55.2982 99.2856C55.4304 99.2856 55.5627 99.2856 55.6949 99.2856L56.6206 99.8177C56.6206 99.8177 56.6206 99.9508 56.6206 100.084Z" fill="black"/>
<path d="M59.1328 98.6204L58.0749 99.1525C57.9426 99.1525 57.8104 99.1525 57.6782 99.1525L56.7525 98.6204C56.6203 98.4874 56.6203 98.4874 56.7525 98.3544L57.8104 97.8223C57.9426 97.8223 58.0749 97.8223 58.2071 97.8223L59.1328 98.3544C59.1328 98.3544 59.1328 98.4874 59.1328 98.6204Z" fill="black"/>
<path d="M56.488 102.877L55.4301 103.409C55.2979 103.409 55.1656 103.409 55.0334 103.409L54.1077 102.877C53.9755 102.744 53.9755 102.744 54.1077 102.611L55.1656 102.079C55.2979 102.079 55.4301 102.079 55.5623 102.079L56.488 102.611C56.488 102.744 56.488 102.877 56.488 102.877Z" fill="black"/>
<path d="M59.0007 101.414L57.9428 101.946C57.8106 101.946 57.6783 101.946 57.5461 101.946L56.6204 101.414C56.4882 101.281 56.4882 101.281 56.6204 101.148L57.6783 100.616C57.8106 100.616 57.9428 100.616 58.075 100.616L59.0007 101.148C59.0007 101.281 59.1329 101.414 59.0007 101.414Z" fill="black"/>
<path d="M60.1907 84.2535C57.9426 80.5288 55.4301 82.3912 54.9012 82.9233C54.9012 82.9233 54.7689 82.9233 54.7689 82.7902C54.24 81.8591 51.7275 76.9372 49.4794 78.0014L45.6445 80.1298V80.2628L48.2893 84.7856L51.8597 94.6293L50.934 94.8954V96.8907L51.0663 97.0238L54.7689 94.8954L59.3973 91.1707C59.5295 91.1707 62.9677 89.0423 60.1907 84.2535Z" fill="white"/>
<path d="M51.0665 97.5561C50.9343 97.5561 50.802 97.5561 50.802 97.4231C50.6698 97.2901 50.5376 97.1571 50.5376 96.891V94.4966L51.331 94.3636L48.025 85.0519L45.248 80.3961V80.13C45.248 79.997 45.3803 79.864 45.5125 79.731L49.3474 77.6026C51.8599 76.4054 54.108 80.2631 55.1659 82.1254C55.6948 81.7263 56.6205 81.3272 57.6784 81.4603C58.8685 81.5933 59.9264 82.5245 60.7199 83.9877C63.8936 89.1756 59.9264 91.7031 59.9264 91.7031L55.1659 95.4277L51.4632 97.5561C51.1987 97.5561 51.1987 97.5561 51.0665 97.5561ZM51.4632 95.4277V96.3589L54.6369 94.4966L59.2653 90.7719C59.3975 90.6389 62.3067 88.7766 59.7942 84.5198C59.133 83.3226 58.2074 82.6575 57.4139 82.5245C56.356 82.3914 55.5626 83.0566 55.2981 83.1896L55.1659 83.3226H54.9014C54.7692 83.3226 54.5047 83.1896 54.5047 82.9235C53.579 80.9282 51.4632 77.7356 49.8764 78.4007L46.4382 80.2631L48.9507 84.6528L52.6534 95.0287L51.4632 95.4277Z" fill="black"/>
<path d="M56.3559 86.7815C56.3559 86.7815 54.6368 86.6485 54.3723 86.7815C54.1078 86.7815 50.4052 88.3778 50.4052 88.3778L49.8762 89.575L51.7275 94.7629L50.8019 95.0289V97.0243L50.9341 97.1573L54.6368 95.0289L59.2651 91.3043C59.2651 91.3043 62.5711 89.1759 60.0585 84.7861L56.3559 86.7815Z" fill="#849BAF"/>
<path d="M50.9343 97.5562C50.802 97.5562 50.6698 97.5562 50.6698 97.4232C50.5376 97.2902 50.4053 97.1571 50.4053 96.8911V94.4967L51.1987 94.3636L49.3474 89.5748L50.0086 87.9785L50.1408 87.8455C51.8599 87.1804 53.8435 86.2492 54.2402 86.2492C54.5047 86.2492 55.5626 86.2492 56.2238 86.2492L60.4554 83.9878L60.7199 84.3869C63.3646 89.1757 59.7942 91.5701 59.662 91.5701L54.9014 95.2948L51.1987 97.4232C51.1987 97.5562 51.0665 97.5562 50.9343 97.5562ZM51.331 95.4278V96.359L54.3724 94.6297L59.0008 90.905C59.133 90.772 61.6455 89.1757 59.9264 85.4511L56.356 87.4464H56.2238C55.4304 87.4464 54.5047 87.3134 54.3724 87.4464C54.108 87.4464 52.1244 88.3776 50.802 88.9097L50.4053 89.8408L52.3889 95.2948L51.331 95.4278Z" fill="black"/>
<path d="M51.7275 84.6523L54.7689 82.923V82.79C54.5045 82.2579 53.8433 80.9277 52.9176 79.7305L49.0827 81.9919L47.8926 84.2533L48.2893 85.0514L48.8182 86.6477L50.1406 87.7119L51.7275 84.6523Z" fill="#849BAF"/>
<path d="M50.4051 88.2443L48.4216 86.781L47.7604 85.0517L47.2314 84.1205L48.5538 81.4601L52.9177 78.9326L53.1821 79.3317C54.24 80.5289 54.9012 82.1252 55.1657 82.5243C55.298 82.6573 55.1657 82.9233 55.1657 83.0564V83.1894L51.992 84.9187L50.4051 88.2443ZM49.3472 86.1159L50.0084 86.648L51.3308 84.1205L54.1078 82.5243C53.8433 81.9922 53.3144 81.061 52.6532 80.2629L49.3472 82.2582L48.4216 84.1205L48.8183 84.6526L49.3472 86.1159Z" fill="black"/>
<path d="M56.2236 86.3824C53.9756 82.6577 51.4631 84.5201 50.9341 85.0522C50.9341 85.0522 50.8019 85.0522 50.8019 84.9191C50.2729 83.988 47.7604 79.0661 45.5123 80.1303C42.7353 81.5935 46.1735 87.8457 46.1735 87.8457L50.8019 97.0243L50.9341 97.1573L55.5624 93.4326C55.6947 93.4326 59.1329 91.1713 56.2236 86.3824Z" fill="#849BAF"/>
<path d="M51.0665 97.6891H50.802C50.6698 97.6891 50.4053 97.5561 50.4053 97.29L45.777 88.1114C45.6448 87.9784 43.3967 83.7216 44.1901 81.3272C44.4546 80.6621 44.8513 80.13 45.5125 79.8639C46.306 79.4648 47.7606 79.4648 49.4797 81.5932C50.2731 82.5244 50.9343 83.7216 51.331 84.3867C51.8599 83.9877 52.7856 83.5886 53.8435 83.7216C55.0337 83.8546 56.0916 84.7858 56.885 86.2491C60.0587 91.437 56.0916 93.9644 56.0916 93.9644L51.0665 97.6891ZM46.306 80.529C46.1737 80.529 46.0415 80.529 45.777 80.6621C45.3803 80.7951 45.1158 81.1942 44.9836 81.5932C44.4546 83.3225 45.9092 86.5151 46.5704 87.5793L50.9343 96.3588L55.1659 92.9002C55.2981 92.7672 58.2074 90.9049 55.6948 86.6481C55.0337 85.4509 54.108 84.7858 53.3146 84.6528C52.2567 84.5197 51.4632 85.1849 51.1988 85.3179L51.0665 85.4509H50.802C50.6698 85.4509 50.4053 85.3179 50.4053 85.0518C50.1409 84.6528 49.4797 83.1895 48.554 81.9923C47.8928 81.3272 47.0994 80.529 46.306 80.529Z" fill="black"/>
<path d="M49.2988 88.4399L48.3586 88.9277L50.9652 94.0111L51.9054 93.5233L49.2988 88.4399Z" fill="black"/>
<path d="M50.0085 83.3227L53.8434 81.1943L54.6369 82.9236L50.9342 84.919L50.0085 83.3227Z" fill="black"/>
<path d="M56.4883 93.0332L58.3396 92.1021L60.4554 90.5058L61.1166 88.7765L61.2488 86.9141L60.9844 86.249L57.4139 88.2444L57.5462 89.5746L57.1495 91.3039L56.4883 93.0332Z" fill="black"/>
<path d="M63.8935 88.6433L62.8356 88.5103C63.1001 86.648 62.4389 85.1847 62.3066 85.1847L63.2323 84.7856C63.3645 84.7856 64.0257 86.5149 63.8935 88.6433Z" fill="black"/>
</svg>
